<svg width="92" height="53" viewBox="0 0 92 53" fill="none" xmlns="http://www.w3.org/2000/svg">
<g filter="url(#filter0_d_2654_2253)">
<g filter="url(#filter1_d_2654_2253)">
<rect x="6" y="3" width="80" height="40" rx="2.3494" fill="url(#paint0_linear_2654_2253)"/>
<mask id="mask0_2654_2253" style="mask-type:alpha" maskUnits="userSpaceOnUse" x="6" y="3" width="80" height="40">
<rect x="6" y="3" width="80" height="40" rx="2.3494" fill="url(#paint1_linear_2654_2253)"/>
</mask>
<g mask="url(#mask0_2654_2253)">
<path fill-rule="evenodd" clip-rule="evenodd" d="M40.4954 46.9C40.4954 33.3691 53.9131 22.4 70.4648 22.4H88.4464V26.4H70.4648C56.6154 26.4 45.3883 35.5782 45.3883 46.9H40.4954Z" fill="url(#paint2_linear_2654_2253)"/>
<path fill-rule="evenodd" clip-rule="evenodd" d="M4.28742 25.8C20.8391 25.8 34.2568 36.769 34.2568 50.3L34.2568 65L29.3639 65L29.3639 50.3C29.3639 38.9782 18.1368 29.8 4.28742 29.8L4.28742 25.8Z" fill="url(#paint3_linear_2654_2253)"/>
<path fill-rule="evenodd" clip-rule="evenodd" d="M84.4099 17.8C67.8582 17.8 54.4404 6.83096 54.4404 -6.70001L54.4404 -21.4L59.3334 -21.4L59.3334 -6.70001C59.3334 4.62183 70.5605 13.8 84.4099 13.8L84.4099 17.8Z" fill="url(#paint4_linear_2654_2253)"/>
<path fill-rule="evenodd" clip-rule="evenodd" d="M29.7308 21.5L4.04271 21.5L4.04271 17.5L29.7308 17.5C43.5801 17.5 54.8072 8.32183 54.8072 -3L59.7002 -3C59.7002 10.531 46.2824 21.5 29.7308 21.5Z" fill="url(#paint5_linear_2654_2253)"/>
</g>
</g>
<path d="M10.9926 10.5161C11.356 10.5161 11.5376 10.3814 11.5376 10.112C11.5376 10.0023 11.5094 9.9162 11.4531 9.85355C11.3998 9.7909 11.2996 9.73608 11.1523 9.6891L10.767 9.56223C10.3066 9.41187 10.0763 9.10958 10.0763 8.65536C10.0763 8.39223 10.1578 8.17608 10.3206 8.00693C10.4867 7.83464 10.7451 7.74849 11.096 7.74849C11.2432 7.74849 11.3888 7.76572 11.5329 7.80018C11.677 7.8315 11.8305 7.88319 11.9934 7.95524L11.8196 8.43922C11.6692 8.3797 11.5408 8.33741 11.4343 8.31235C11.3309 8.28416 11.2244 8.27006 11.1147 8.27006C10.9706 8.27006 10.8563 8.29669 10.7717 8.34994C10.6903 8.40006 10.6496 8.49247 10.6496 8.62717C10.6496 8.72741 10.6778 8.81042 10.7341 8.8762C10.7937 8.93885 10.8908 8.99211 11.0255 9.03596L11.4108 9.16283C11.6426 9.24114 11.8164 9.35548 11.9323 9.50584C12.0514 9.65307 12.1109 9.84885 12.1109 10.0932C12.1109 10.3751 12.0216 10.6038 11.8431 10.7792C11.6645 10.9515 11.3841 11.0376 11.002 11.0376C10.8516 11.0376 10.695 11.0204 10.5321 10.986C10.3723 10.9484 10.1969 10.8857 10.0058 10.798L10.1797 10.314C10.3551 10.3892 10.5039 10.4425 10.6261 10.4738C10.7514 10.502 10.8735 10.5161 10.9926 10.5161ZM13.0957 8.15729H12.5271V7.59813H13.0957V8.15729ZM13.0816 10.9907H12.5412V8.60837H13.0816V10.9907ZM13.6945 10.3187V7.51355H14.2348V10.3187C14.2348 10.3657 14.2458 10.4111 14.2677 10.455C14.2928 10.4957 14.3398 10.5161 14.4087 10.5161H14.4839V11.0142H14.3523C14.1737 11.0142 14.0375 10.9797 13.9435 10.9108C13.8495 10.8419 13.7837 10.7542 13.7461 10.6476C13.7117 10.5411 13.6945 10.4315 13.6945 10.3187ZM16.7833 8.60837L15.9375 10.9907H15.4441L14.5984 8.60837H15.1434L15.5522 9.79717L15.7073 10.2905L15.8576 9.79717L16.2476 8.60837H16.7833ZM18.8802 10.8544C18.7173 10.9202 18.5638 10.9672 18.4197 10.9954C18.2756 11.0236 18.1393 11.0376 18.0109 11.0376C17.6569 11.0376 17.3891 10.9374 17.2074 10.7369C17.0257 10.5364 16.9349 10.2702 16.9349 9.93813V9.6562C16.9349 9.43379 16.9756 9.24114 17.057 9.07825C17.1385 8.91536 17.2544 8.78849 17.4047 8.69765C17.5551 8.60681 17.7321 8.56138 17.9357 8.56138C18.1017 8.56138 18.2568 8.59584 18.4009 8.66476C18.5481 8.73054 18.6672 8.83548 18.758 8.97958C18.852 9.12054 18.899 9.30223 18.899 9.52464C18.899 9.59042 18.8943 9.6609 18.8849 9.73608C18.8755 9.80813 18.8598 9.88488 18.8379 9.96632H17.4564C17.4627 10.1605 17.5113 10.3062 17.6021 10.4033C17.6929 10.5004 17.8386 10.549 18.0391 10.549C18.1456 10.549 18.2552 10.5364 18.368 10.5114C18.4839 10.4863 18.6029 10.4487 18.7251 10.3986L18.8802 10.8544ZM17.9357 9.01717C17.7916 9.01717 17.6788 9.06416 17.5974 9.15813C17.5191 9.24897 17.4737 9.38054 17.4611 9.55283H18.3633C18.3664 9.53717 18.368 9.52307 18.368 9.51054C18.368 9.49488 18.368 9.48078 18.368 9.46825C18.368 9.31789 18.3257 9.20512 18.2411 9.12994C18.1566 9.05476 18.0547 9.01717 17.9357 9.01717ZM20.7479 9.10175C20.6006 9.10175 20.4597 9.12524 20.325 9.17223C20.1934 9.21608 20.0665 9.28813 19.9444 9.38837V10.9907H19.404V8.60837H19.9162V8.97488C20.0759 8.82452 20.2185 8.71801 20.3438 8.65536C20.4691 8.59271 20.6038 8.56138 20.7479 8.56138V9.10175ZM21.9973 10.9907V7.79548H23.0499C23.3851 7.79548 23.6357 7.88006 23.8017 8.04922C23.9708 8.21837 24.0554 8.44391 24.0554 8.72584V8.97488C24.0554 9.25681 23.9708 9.48391 23.8017 9.6562C23.6357 9.82536 23.3851 9.90994 23.0499 9.90994H22.5612V10.9907H21.9973ZM23.0499 8.33584H22.5612V9.36958H23.0499C23.1877 9.36958 23.2926 9.33512 23.3647 9.2662C23.4399 9.19729 23.4775 9.10018 23.4775 8.97488V8.72584C23.4775 8.60367 23.4399 8.50813 23.3647 8.43922C23.2926 8.3703 23.1877 8.33584 23.0499 8.33584ZM24.4934 10.3187V7.51355H25.0338V10.3187C25.0338 10.3657 25.0448 10.4111 25.0667 10.455C25.0917 10.4957 25.1387 10.5161 25.2076 10.5161H25.2828V11.0142H25.1513C24.9727 11.0142 24.8364 10.9797 24.7425 10.9108C24.6485 10.8419 24.5827 10.7542 24.5451 10.6476C24.5107 10.5411 24.4934 10.4315 24.4934 10.3187ZM27.493 11.0142C27.3332 11.0142 27.2048 10.9813 27.1077 10.9155C27.0137 10.8497 26.9448 10.7683 26.9009 10.6711C26.7662 10.7964 26.6362 10.8889 26.5109 10.9484C26.3856 11.0079 26.2509 11.0376 26.1068 11.0376C25.897 11.0376 25.7419 10.9703 25.6417 10.8356C25.5446 10.7009 25.496 10.5302 25.496 10.3234C25.496 10.1856 25.5211 10.065 25.5712 9.96163C25.6244 9.85512 25.7106 9.77211 25.8296 9.71259C25.9486 9.65307 26.1115 9.62331 26.3183 9.62331C26.3997 9.62331 26.4843 9.62958 26.572 9.64211C26.6597 9.6515 26.7474 9.66404 26.8352 9.6797V9.40247C26.8352 9.2709 26.7991 9.18163 26.7271 9.13464C26.655 9.08452 26.5579 9.05946 26.4358 9.05946C26.3418 9.05946 26.2384 9.07199 26.1256 9.09705C26.016 9.12211 25.897 9.16126 25.7685 9.21452L25.6135 8.75403C25.9299 8.6256 26.2165 8.56138 26.4733 8.56138C26.7052 8.56138 26.8837 8.60054 27.009 8.67885C27.1374 8.75717 27.2267 8.86054 27.2768 8.98897C27.327 9.11741 27.352 9.25524 27.352 9.40247V10.3187C27.352 10.3657 27.3646 10.4111 27.3896 10.455C27.4178 10.4957 27.4711 10.5161 27.5494 10.5161H27.6011V11.0142H27.493ZM26.0176 10.314C26.0176 10.3986 26.0364 10.466 26.0739 10.5161C26.1115 10.5631 26.1664 10.5866 26.2384 10.5866C26.3105 10.5866 26.3919 10.5678 26.4827 10.5302C26.5736 10.4926 26.6911 10.4049 26.8352 10.267V10.065C26.6723 10.0368 26.5125 10.0227 26.3559 10.0227C26.2337 10.0227 26.146 10.0478 26.0927 10.0979C26.0426 10.148 26.0176 10.2201 26.0176 10.314ZM29.118 9.06416C29.0397 9.06416 28.9504 9.08295 28.8502 9.12054C28.7499 9.15813 28.6309 9.23175 28.4931 9.34138V10.9907H27.9527V8.60837H28.4649V8.92789C28.6121 8.79946 28.7515 8.70705 28.8831 8.65066C29.0146 8.59114 29.1478 8.56138 29.2825 8.56138C29.5111 8.56138 29.685 8.635 29.804 8.78223C29.9231 8.92632 29.9826 9.12994 29.9826 9.39307V10.9907H29.4422V9.45885C29.4422 9.19572 29.3341 9.06416 29.118 9.06416Z" fill="#1D1D1D"/>
<path d="M10.2539 15.9719V13.4158H11.0057C11.2513 13.4158 11.4318 13.4759 11.547 13.5962C11.6648 13.714 11.7237 13.8731 11.7237 14.0736V14.1563C11.7237 14.2666 11.6986 14.3643 11.6485 14.4495C11.5984 14.5347 11.5257 14.6024 11.4305 14.6525C11.5633 14.6951 11.6636 14.7653 11.7312 14.863C11.8014 14.9582 11.8365 15.0735 11.8365 15.2088V15.2915C11.8365 15.497 11.7763 15.6624 11.656 15.7877C11.5383 15.9105 11.3528 15.9719 11.0997 15.9719H10.2539ZM11.0057 13.7165H10.581V14.5247H11.0057C11.131 14.5247 11.225 14.4934 11.2877 14.4307C11.3528 14.3656 11.3854 14.2766 11.3854 14.1638V14.0736C11.3854 13.9633 11.3528 13.8769 11.2877 13.8142C11.225 13.7491 11.131 13.7165 11.0057 13.7165ZM11.0997 14.8254H10.581V15.675H11.0997C11.2325 15.675 11.3315 15.6411 11.3967 15.5735C11.4643 15.5058 11.4982 15.4118 11.4982 15.2915V15.2013C11.4982 15.086 11.4643 14.9946 11.3967 14.9269C11.3315 14.8592 11.2325 14.8254 11.0997 14.8254ZM13.6172 15.8629C13.5044 15.918 13.3916 15.9556 13.2789 15.9757C13.1661 15.9982 13.0621 16.0095 12.9669 16.0095C12.6987 16.0095 12.4982 15.9331 12.3654 15.7802C12.2351 15.6273 12.1699 15.4181 12.1699 15.1525V14.9269C12.1699 14.6688 12.2351 14.462 12.3654 14.3067C12.4982 14.1513 12.6849 14.0736 12.9255 14.0736C13.0533 14.0736 13.1699 14.0999 13.2751 14.1526C13.3829 14.2027 13.4681 14.2804 13.5307 14.3856C13.5959 14.4884 13.6285 14.6212 13.6285 14.7841C13.6285 14.8893 13.6134 15.0096 13.5833 15.1449H12.4744V15.1525C12.4744 15.3429 12.5133 15.487 12.591 15.5847C12.6712 15.6825 12.799 15.7313 12.9744 15.7313C13.0546 15.7313 13.1423 15.7213 13.2375 15.7013C13.3352 15.6812 13.4305 15.6499 13.5232 15.6073L13.6172 15.8629ZM12.9255 14.3443C12.7802 14.3443 12.6699 14.3919 12.5947 14.4871C12.522 14.5798 12.4819 14.7114 12.4744 14.8818H13.3165C13.324 14.8367 13.3277 14.7941 13.3277 14.754C13.3277 14.6137 13.2876 14.5109 13.2074 14.4458C13.1298 14.3781 13.0358 14.3443 12.9255 14.3443ZM14.9391 14.3631C14.8689 14.3631 14.7862 14.3806 14.691 14.4157C14.5982 14.4508 14.4855 14.5222 14.3527 14.6299V15.9719H14.0444V14.1112H14.3376V14.3706C14.4704 14.2578 14.5907 14.1801 14.6985 14.1375C14.8088 14.0949 14.914 14.0736 15.0142 14.0736C15.1872 14.0736 15.3187 14.1287 15.4089 14.239C15.5017 14.3468 15.548 14.5009 15.548 14.7014V15.9719H15.2398V14.7465C15.2398 14.4909 15.1395 14.3631 14.9391 14.3631ZM17.4239 15.8629C17.3112 15.918 17.1984 15.9556 17.0856 15.9757C16.9729 15.9982 16.8689 16.0095 16.7736 16.0095C16.5055 16.0095 16.305 15.9331 16.1722 15.7802C16.0419 15.6273 15.9767 15.4181 15.9767 15.1525V14.9269C15.9767 14.6688 16.0419 14.462 16.1722 14.3067C16.305 14.1513 16.4917 14.0736 16.7323 14.0736C16.8601 14.0736 16.9766 14.0999 17.0819 14.1526C17.1896 14.2027 17.2748 14.2804 17.3375 14.3856C17.4026 14.4884 17.4352 14.6212 17.4352 14.7841C17.4352 14.8893 17.4202 15.0096 17.3901 15.1449H16.2812V15.1525C16.2812 15.3429 16.32 15.487 16.3977 15.5847C16.4779 15.6825 16.6057 15.7313 16.7811 15.7313C16.8613 15.7313 16.949 15.7213 17.0443 15.7013C17.142 15.6812 17.2372 15.6499 17.33 15.6073L17.4239 15.8629ZM16.7323 14.3443C16.5869 14.3443 16.4767 14.3919 16.4015 14.4871C16.3288 14.5798 16.2887 14.7114 16.2812 14.8818H17.1232C17.1307 14.8367 17.1345 14.7941 17.1345 14.754C17.1345 14.6137 17.0944 14.5109 17.0142 14.4458C16.9365 14.3781 16.8425 14.3443 16.7323 14.3443ZM18.2196 13.8368V14.1112H19.3736V15.9719H19.0653V14.3819H18.2196V15.9719H17.9113V14.3819H17.588V14.1112H17.9113V13.8406C17.9113 13.7178 17.9339 13.605 17.979 13.5022C18.0266 13.397 18.1043 13.313 18.212 13.2504C18.3198 13.1852 18.4651 13.1526 18.6481 13.1526C18.7458 13.1526 18.8511 13.1639 18.9638 13.1865C19.0791 13.209 19.1982 13.2479 19.321 13.303L19.2119 13.5473C19.1042 13.5047 19.0027 13.4759 18.9075 13.4609C18.8147 13.4433 18.7308 13.4346 18.6556 13.4346C18.5178 13.4346 18.41 13.4672 18.3323 13.5323C18.2571 13.595 18.2196 13.6965 18.2196 13.8368ZM20.944 15.9043C20.8037 15.9744 20.6546 16.0095 20.4967 16.0095C20.3614 16.0095 20.2549 15.9819 20.1772 15.9268C20.102 15.8717 20.0481 15.7978 20.0156 15.705C19.9855 15.6123 19.9704 15.5096 19.9704 15.3968V14.3819H19.6472V14.1112H19.9704V13.5925H20.2787V14.1112H20.8877V14.3819H20.2787V15.3855C20.2787 15.5158 20.3 15.606 20.3426 15.6562C20.3877 15.7038 20.4566 15.7276 20.5493 15.7276C20.5944 15.7276 20.6408 15.7226 20.6884 15.7126C20.7385 15.7 20.7924 15.68 20.8501 15.6524L20.944 15.9043ZM21.6869 15.7351C21.9375 15.7351 22.0629 15.6499 22.0629 15.4795C22.0629 15.4068 22.0403 15.3492 21.9952 15.3066C21.9501 15.264 21.8674 15.2276 21.7471 15.1976L21.5403 15.1449C21.3875 15.1073 21.2735 15.0422 21.1983 14.9495C21.1231 14.8542 21.0855 14.7415 21.0855 14.6112C21.0855 14.5159 21.1068 14.4282 21.1494 14.348C21.192 14.2653 21.2597 14.1989 21.3524 14.1488C21.4451 14.0987 21.5654 14.0736 21.7133 14.0736C21.8085 14.0736 21.905 14.0849 22.0027 14.1074C22.1029 14.1275 22.2044 14.1626 22.3072 14.2127L22.2095 14.4721C22.0265 14.3894 21.8611 14.348 21.7133 14.348C21.4952 14.348 21.3862 14.4295 21.3862 14.5924C21.3862 14.655 21.4063 14.7089 21.4464 14.754C21.4865 14.7991 21.5616 14.8354 21.6719 14.863L21.8787 14.9156C22.0441 14.9557 22.1656 15.0209 22.2433 15.1111C22.321 15.2013 22.3598 15.3179 22.3598 15.4607C22.3598 15.5634 22.3373 15.6574 22.2922 15.7426C22.2495 15.8253 22.1794 15.8905 22.0816 15.9381C21.9864 15.9857 21.8574 16.0095 21.6945 16.0095C21.5867 16.0095 21.4789 15.9982 21.3712 15.9757C21.2659 15.9531 21.1569 15.9168 21.0442 15.8667L21.1269 15.6111C21.2346 15.6537 21.3323 15.685 21.4201 15.705C21.5078 15.7251 21.5967 15.7351 21.6869 15.7351Z" fill="#1D1D1D"/>
<path d="M12.9094 20H12.4395V19.5302H12.9094V20ZM17.1292 21.0187H15.6707V20.7706C15.6707 20.5827 15.6933 20.4248 15.7384 20.297C15.786 20.1692 15.8486 20.0639 15.9263 19.9812C16.0065 19.896 16.0955 19.8284 16.1932 19.7783L16.4375 19.6542C16.5528 19.5941 16.6443 19.5314 16.712 19.4663C16.7821 19.4011 16.8172 19.3071 16.8172 19.1843V19.1204C16.8172 18.9801 16.7771 18.8786 16.6969 18.8159C16.6192 18.7533 16.504 18.722 16.3511 18.722C16.2659 18.722 16.1757 18.7332 16.0804 18.7558C15.9852 18.7758 15.88 18.8109 15.7647 18.8611L15.6594 18.5866C15.7847 18.529 15.905 18.4877 16.0203 18.4626C16.1381 18.4375 16.2508 18.425 16.3586 18.425C16.6368 18.425 16.836 18.4902 16.9563 18.6205C17.0766 18.7483 17.1367 18.9149 17.1367 19.1204V19.1843C17.1367 19.3197 17.1104 19.4324 17.0578 19.5226C17.0077 19.6129 16.94 19.6893 16.8548 19.7519C16.7721 19.8121 16.6831 19.866 16.5879 19.9136L16.3436 20.0414C16.2258 20.104 16.1381 20.1905 16.0804 20.3008C16.0253 20.411 15.9952 20.5514 15.9902 20.7218H17.1292V21.0187ZM19.5855 19.9437H18.657V21.0187H18.33V18.4626H19.6983V18.7708H18.657V19.6354H19.5855V19.9437ZM20.9723 19.4287C20.8596 19.4287 20.7493 19.4487 20.6416 19.4888C20.5363 19.5289 20.4235 19.6053 20.3032 19.7181V21.0187H19.995V19.158H20.2882V19.4587C20.416 19.3334 20.5325 19.2457 20.6378 19.1956C20.7456 19.1455 20.8571 19.1204 20.9723 19.1204V19.4287ZM22.6073 20.9097C22.4945 20.9649 22.3818 21.0024 22.269 21.0225C22.1562 21.0451 22.0522 21.0563 21.957 21.0563C21.6888 21.0563 21.4884 20.9799 21.3555 20.827C21.2252 20.6742 21.1601 20.4649 21.1601 20.1993V19.9737C21.1601 19.7156 21.2252 19.5089 21.3555 19.3535C21.4884 19.1981 21.6751 19.1204 21.9156 19.1204C22.0434 19.1204 22.16 19.1467 22.2652 19.1994C22.373 19.2495 22.4582 19.3272 22.5208 19.4324C22.586 19.5352 22.6186 19.668 22.6186 19.8309C22.6186 19.9361 22.6035 20.0564 22.5735 20.1917H21.4645V20.1993C21.4645 20.3897 21.5034 20.5338 21.5811 20.6316C21.6613 20.7293 21.7891 20.7782 21.9645 20.7782C22.0447 20.7782 22.1324 20.7681 22.2276 20.7481C22.3254 20.728 22.4206 20.6967 22.5133 20.6541L22.6073 20.9097ZM21.9156 19.3911C21.7703 19.3911 21.66 19.4387 21.5848 19.5339C21.5122 19.6266 21.4721 19.7582 21.4645 19.9286H22.3066C22.3141 19.8835 22.3178 19.8409 22.3178 19.8008C22.3178 19.6605 22.2778 19.5577 22.1976 19.4926C22.1199 19.4249 22.0259 19.3911 21.9156 19.3911ZM24.384 20.9097C24.2713 20.9649 24.1585 21.0024 24.0457 21.0225C23.9329 21.0451 23.8289 21.0563 23.7337 21.0563C23.4656 21.0563 23.2651 20.9799 23.1323 20.827C23.002 20.6742 22.9368 20.4649 22.9368 20.1993V19.9737C22.9368 19.7156 23.002 19.5089 23.1323 19.3535C23.2651 19.1981 23.4518 19.1204 23.6924 19.1204C23.8202 19.1204 23.9367 19.1467 24.042 19.1994C24.1497 19.2495 24.2349 19.3272 24.2976 19.4324C24.3627 19.5352 24.3953 19.668 24.3953 19.8309C24.3953 19.9361 24.3803 20.0564 24.3502 20.1917H23.2413V20.1993C23.2413 20.3897 23.2801 20.5338 23.3578 20.6316C23.438 20.7293 23.5658 20.7782 23.7412 20.7782C23.8214 20.7782 23.9091 20.7681 24.0044 20.7481C24.1021 20.728 24.1973 20.6967 24.29 20.6541L24.384 20.9097ZM23.6924 19.3911C23.547 19.3911 23.4367 19.4387 23.3616 19.5339C23.2889 19.6266 23.2488 19.7582 23.2413 19.9286H24.0833C24.0908 19.8835 24.0946 19.8409 24.0946 19.8008C24.0946 19.6605 24.0545 19.5577 23.9743 19.4926C23.8966 19.4249 23.8026 19.3911 23.6924 19.3911ZM25.2305 18.7708V18.4626H27.0461V18.7708H26.3018V21.0187H25.9748V18.7708H25.2305ZM26.8825 20.0151V19.7444H27.9351V20.0151H26.8825ZM28.9072 20.7631C29.0651 20.7631 29.1866 20.7293 29.2718 20.6616C29.357 20.5915 29.3996 20.49 29.3996 20.3571C29.3996 20.2469 29.3695 20.1542 29.3094 20.079C29.2518 20.0038 29.1565 19.9462 29.0237 19.9061L28.7192 19.8158C28.5288 19.7582 28.3884 19.6717 28.2982 19.5565C28.208 19.4387 28.1629 19.2946 28.1629 19.1242C28.1629 18.9939 28.1879 18.8761 28.2381 18.7708C28.2907 18.6656 28.3734 18.5816 28.4862 18.519C28.6014 18.4563 28.7518 18.425 28.9372 18.425C29.05 18.425 29.1665 18.4388 29.2868 18.4664C29.4071 18.4914 29.5287 18.5328 29.6515 18.5904L29.5462 18.8723C29.4259 18.8197 29.3169 18.7821 29.2192 18.7596C29.1239 18.7345 29.0325 18.722 28.9448 18.722C28.8019 18.722 28.6904 18.752 28.6102 18.8122C28.5325 18.8698 28.4937 18.9663 28.4937 19.1016C28.4937 19.1994 28.52 19.2821 28.5726 19.3497C28.6252 19.4149 28.7192 19.4688 28.8545 19.5114L29.159 19.6016C29.5399 19.7144 29.7304 19.9574 29.7304 20.3308C29.7304 20.5464 29.6652 20.7218 29.5349 20.8571C29.4046 20.9899 29.1954 21.0563 28.9072 21.0563C28.7894 21.0563 28.6641 21.0425 28.5313 21.015C28.401 20.9849 28.2656 20.9385 28.1253 20.8759L28.2268 20.5977C28.3596 20.6579 28.4786 20.7005 28.5839 20.7255C28.6917 20.7506 28.7994 20.7631 28.9072 20.7631ZM30.9957 19.4099C30.9256 19.4099 30.8429 19.4274 30.7476 19.4625C30.6549 19.4976 30.5421 19.569 30.4093 19.6768V21.0187H30.1011V18.2371H30.4093V19.4061C30.5396 19.2958 30.6574 19.2207 30.7627 19.1806C30.8679 19.1405 30.9707 19.1204 31.0709 19.1204C31.2438 19.1204 31.3754 19.1756 31.4656 19.2858C31.5583 19.3936 31.6047 19.5477 31.6047 19.7482V21.0187H31.2965V19.7933C31.2965 19.5377 31.1962 19.4099 30.9957 19.4099ZM32.4581 18.7032H32.1123V18.3573H32.4581V18.7032ZM32.4393 21.0187H32.1311V19.158H32.4393V21.0187ZM33.9638 19.4287C33.851 19.4287 33.7407 19.4487 33.633 19.4888C33.5277 19.5289 33.415 19.6053 33.2947 19.7181V21.0187H32.9864V19.158H33.2796V19.4587C33.4074 19.3334 33.524 19.2457 33.6292 19.1956C33.737 19.1455 33.8485 19.1204 33.9638 19.1204V19.4287ZM35.2717 20.9511C35.1314 21.0212 34.9822 21.0563 34.8244 21.0563C34.689 21.0563 34.5825 21.0288 34.5048 20.9736C34.4297 20.9185 34.3758 20.8446 34.3432 20.7518C34.3131 20.6591 34.2981 20.5564 34.2981 20.4436V19.4287H33.9748V19.158H34.2981V18.6393H34.6063V19.158H35.2153V19.4287H34.6063V20.4323C34.6063 20.5626 34.6276 20.6529 34.6702 20.703C34.7154 20.7506 34.7843 20.7744 34.877 20.7744C34.9221 20.7744 34.9685 20.7694 35.0161 20.7594C35.0662 20.7468 35.1201 20.7268 35.1777 20.6992L35.2717 20.9511ZM12.9094 25H12.4395V24.5302H12.9094V25ZM15.8925 26.0187V23.4626H16.6894C16.935 23.4626 17.1217 23.5277 17.2495 23.6581C17.3798 23.7859 17.445 23.9575 17.445 24.1731V24.3723C17.445 24.5878 17.3798 24.7607 17.2495 24.891C17.1217 25.0213 16.935 25.0865 16.6894 25.0865H16.2195V26.0187H15.8925ZM16.6894 23.7708H16.2195V24.782H16.6894C16.8247 24.782 16.9275 24.7457 16.9976 24.673C17.0703 24.6003 17.1066 24.5001 17.1066 24.3723V24.1731C17.1066 24.0477 17.0703 23.95 16.9976 23.8798C16.9275 23.8072 16.8247 23.7708 16.6894 23.7708ZM19.1419 25.9097C19.0292 25.9649 18.9164 26.0024 18.8036 26.0225C18.6908 26.0451 18.5868 26.0563 18.4916 26.0563C18.2235 26.0563 18.023 25.9799 17.8902 25.827C17.7599 25.6742 17.6947 25.4649 17.6947 25.1993V24.9737C17.6947 24.7156 17.7599 24.5089 17.8902 24.3535C18.023 24.1981 18.2097 24.1204 18.4503 24.1204C18.5781 24.1204 18.6946 24.1467 18.7999 24.1994C18.9076 24.2495 18.9928 24.3272 19.0555 24.4324C19.1206 24.5352 19.1532 24.668 19.1532 24.8309C19.1532 24.9361 19.1382 25.0564 19.1081 25.1917H17.9992V25.1993C17.9992 25.3897 18.038 25.5338 18.1157 25.6316C18.1959 25.7293 18.3237 25.7782 18.4991 25.7782C18.5793 25.7782 18.667 25.7681 18.7623 25.7481C18.86 25.728 18.9552 25.6967 19.048 25.6541L19.1419 25.9097ZM18.4503 24.3911C18.3049 24.3911 18.1947 24.4387 18.1195 24.5339C18.0468 24.6266 18.0067 24.7582 17.9992 24.9286H18.8412C18.8487 24.8835 18.8525 24.8409 18.8525 24.8008C18.8525 24.6605 18.8124 24.5577 18.7322 24.4926C18.6545 24.4249 18.5605 24.3911 18.4503 24.3911ZM20.5465 24.4287C20.4337 24.4287 20.3235 24.4487 20.2157 24.4888C20.1105 24.5289 19.9977 24.6053 19.8774 24.7181V26.0187H19.5692V24.158H19.8624V24.4587C19.9902 24.3334 20.1067 24.2457 20.212 24.1956C20.3197 24.1455 20.4312 24.1204 20.5465 24.1204V24.4287ZM21.5294 25.5677V23.2371H21.8376V25.5526C21.8376 25.6203 21.8476 25.6717 21.8677 25.7067C21.8902 25.7393 21.9341 25.7556 21.9992 25.7556H22.0594V26.0375H21.9729C21.8075 26.0375 21.6923 25.9937 21.6271 25.906C21.5619 25.8183 21.5294 25.7055 21.5294 25.5677ZM23.7563 25.9097C23.6435 25.9649 23.5308 26.0024 23.418 26.0225C23.3052 26.0451 23.2012 26.0563 23.106 26.0563C22.8378 26.0563 22.6374 25.9799 22.5045 25.827C22.3742 25.6742 22.3091 25.4649 22.3091 25.1993V24.9737C22.3091 24.7156 22.3742 24.5089 22.5045 24.3535C22.6374 24.1981 22.8241 24.1204 23.0646 24.1204C23.1924 24.1204 23.309 24.1467 23.4142 24.1994C23.522 24.2495 23.6072 24.3272 23.6698 24.4324C23.735 24.5352 23.7676 24.668 23.7676 24.8309C23.7676 24.9361 23.7525 25.0564 23.7225 25.1917H22.6135V25.1993C22.6135 25.3897 22.6524 25.5338 22.7301 25.6316C22.8103 25.7293 22.9381 25.7782 23.1135 25.7782C23.1937 25.7782 23.2814 25.7681 23.3766 25.7481C23.4744 25.728 23.5696 25.6967 23.6623 25.6541L23.7563 25.9097ZM23.0646 24.3911C22.9193 24.3911 22.809 24.4387 22.7338 24.5339C22.6612 24.6266 22.6211 24.7582 22.6135 24.9286H23.4556C23.4631 24.8835 23.4669 24.8409 23.4669 24.8008C23.4669 24.6605 23.4268 24.5577 23.3466 24.4926C23.2689 24.4249 23.1749 24.3911 23.0646 24.3911ZM25.5443 26.0375C25.429 26.0375 25.3363 26.0112 25.2661 25.9586C25.1985 25.906 25.1509 25.8408 25.1233 25.7631C25.0005 25.8709 24.889 25.9473 24.7887 25.9924C24.6885 26.035 24.5883 26.0563 24.488 26.0563C24.3251 26.0563 24.2048 26.0037 24.1271 25.8984C24.0495 25.7932 24.0106 25.6641 24.0106 25.5113C24.0106 25.4085 24.0294 25.3171 24.067 25.2369C24.1046 25.1567 24.1685 25.094 24.2587 25.0489C24.3489 25.0013 24.4705 24.9775 24.6233 24.9775C24.691 24.9775 24.7649 24.9825 24.8451 24.9925C24.9253 25 25.0068 25.0101 25.0895 25.0226V24.7707C25.0895 24.6304 25.0581 24.5352 24.9955 24.4851C24.9353 24.4324 24.8464 24.4061 24.7286 24.4061C24.5682 24.4061 24.389 24.45 24.1911 24.5377L24.0933 24.2821C24.2086 24.2294 24.3189 24.1893 24.4241 24.1618C24.5294 24.1342 24.6359 24.1204 24.7436 24.1204C24.9191 24.1204 25.0531 24.1492 25.1458 24.2069C25.2386 24.2645 25.3025 24.341 25.3376 24.4362C25.3726 24.5314 25.3902 24.6354 25.3902 24.7482V25.5526C25.3902 25.6103 25.4015 25.6591 25.424 25.6992C25.4466 25.7368 25.4917 25.7556 25.5593 25.7556H25.6007V26.0375H25.5443ZM24.3151 25.5075C24.3151 25.5927 24.3351 25.6616 24.3752 25.7143C24.4153 25.7669 24.473 25.7932 24.5482 25.7932C24.6133 25.7932 24.6885 25.7744 24.7737 25.7368C24.8589 25.6967 24.9642 25.6178 25.0895 25.5V25.2632C24.9191 25.2356 24.7687 25.2218 24.6384 25.2218C24.5231 25.2218 24.4404 25.2456 24.3903 25.2932C24.3402 25.3409 24.3151 25.4123 24.3151 25.5075ZM27.0514 26.0187V25.7594C26.9361 25.8696 26.8308 25.9473 26.7356 25.9924C26.6429 26.035 26.5464 26.0563 26.4462 26.0563C26.2482 26.0563 26.0953 25.9811 25.9875 25.8308C25.8823 25.6804 25.8297 25.4699 25.8297 25.1993V24.9812C25.8297 24.7181 25.8948 24.5089 26.0251 24.3535C26.158 24.1981 26.3497 24.1204 26.6003 24.1204C26.6729 24.1204 26.7456 24.1279 26.8183 24.143C26.891 24.158 26.9636 24.1793 27.0363 24.2069V23.2371H27.3446V26.0187H27.0514ZM26.1492 25.1993C26.1492 25.3947 26.1793 25.5388 26.2394 25.6316C26.3021 25.7218 26.3948 25.7669 26.5176 25.7669C26.5902 25.7669 26.6654 25.7493 26.7431 25.7143C26.8208 25.6767 26.9185 25.6002 27.0363 25.485V24.4926C26.9636 24.46 26.8935 24.4374 26.8258 24.4249C26.7582 24.4099 26.6917 24.4024 26.6266 24.4024C26.4562 24.4024 26.3334 24.4537 26.2582 24.5565C26.1855 24.6592 26.1492 24.8008 26.1492 24.9812V25.1993ZM28.8103 24.9775V25.1993C28.8103 25.3897 28.8454 25.5338 28.9156 25.6316C28.9858 25.7268 29.0973 25.7744 29.2502 25.7744C29.4005 25.7744 29.5622 25.7356 29.7351 25.6579L29.829 25.9172C29.6236 26.01 29.4243 26.0563 29.2314 26.0563C28.9908 26.0563 28.8078 25.9799 28.6825 25.827C28.5572 25.6742 28.4946 25.4649 28.4946 25.1993V24.9775C28.4946 24.7118 28.5572 24.5026 28.6825 24.3497C28.8078 24.1969 28.9908 24.1204 29.2314 24.1204C29.3216 24.1204 29.4143 24.133 29.5095 24.158C29.6073 24.1806 29.705 24.2131 29.8027 24.2557L29.7088 24.5189C29.6261 24.4838 29.5459 24.4562 29.4682 24.4362C29.393 24.4161 29.3203 24.4061 29.2502 24.4061C29.0973 24.4061 28.9858 24.455 28.9156 24.5527C28.8454 24.6479 28.8103 24.7895 28.8103 24.9775ZM31.6297 24.9737V25.1993C31.6297 25.4649 31.5608 25.6742 31.4229 25.827C31.2876 25.9799 31.0934 26.0563 30.8403 26.0563C30.5897 26.0563 30.3955 25.9799 30.2576 25.827C30.1198 25.6742 30.0509 25.4649 30.0509 25.1993V24.9737C30.0509 24.7131 30.1186 24.5064 30.2539 24.3535C30.3917 24.1981 30.5872 24.1204 30.8403 24.1204C31.0934 24.1204 31.2876 24.1981 31.4229 24.3535C31.5608 24.5064 31.6297 24.7131 31.6297 24.9737ZM31.3102 24.9737C31.3102 24.7958 31.2701 24.6567 31.1899 24.5565C31.1097 24.4537 30.9932 24.4024 30.8403 24.4024C30.6899 24.4024 30.5734 24.4537 30.4907 24.5565C30.4105 24.6567 30.3704 24.7958 30.3704 24.9737V25.1993C30.3704 25.3847 30.4105 25.5276 30.4907 25.6278C30.5734 25.728 30.6899 25.7782 30.8403 25.7782C30.9932 25.7782 31.1097 25.728 31.1899 25.6278C31.2701 25.5276 31.3102 25.3847 31.3102 25.1993V24.9737ZM32.5272 25.7819C32.7778 25.7819 32.9031 25.6967 32.9031 25.5263C32.9031 25.4536 32.8806 25.396 32.8355 25.3534C32.7903 25.3108 32.7076 25.2744 32.5874 25.2444L32.3806 25.1917C32.2277 25.1542 32.1137 25.089 32.0385 24.9963C31.9634 24.9011 31.9258 24.7883 31.9258 24.658C31.9258 24.5627 31.9471 24.475 31.9897 24.3948C32.0323 24.3121 32.0999 24.2457 32.1927 24.1956C32.2854 24.1455 32.4057 24.1204 32.5535 24.1204C32.6488 24.1204 32.7452 24.1317 32.843 24.1543C32.9432 24.1743 33.0447 24.2094 33.1475 24.2595L33.0497 24.5189C32.8668 24.4362 32.7014 24.3948 32.5535 24.3948C32.3355 24.3948 32.2265 24.4763 32.2265 24.6392C32.2265 24.7018 32.2465 24.7557 32.2866 24.8008C32.3267 24.8459 32.4019 24.8823 32.5122 24.9098L32.7189 24.9624C32.8843 25.0025 33.0059 25.0677 33.0836 25.1579C33.1612 25.2481 33.2001 25.3647 33.2001 25.5075C33.2001 25.6103 33.1775 25.7042 33.1324 25.7894C33.0898 25.8721 33.0196 25.9373 32.9219 25.9849C32.8267 26.0325 32.6976 26.0563 32.5347 26.0563C32.427 26.0563 32.3192 26.0451 32.2115 26.0225C32.1062 25.9999 31.9972 25.9636 31.8844 25.9135L31.9671 25.6579C32.0749 25.7005 32.1726 25.7318 32.2603 25.7518C32.348 25.7719 32.437 25.7819 32.5272 25.7819ZM34.5962 25.9511C34.4559 26.0212 34.3068 26.0563 34.1489 26.0563C34.0136 26.0563 33.9071 26.0288 33.8294 25.9736C33.7542 25.9185 33.7003 25.8446 33.6678 25.7518C33.6377 25.6591 33.6226 25.5564 33.6226 25.4436V24.4287H33.2994V24.158H33.6226V23.6393H33.9309V24.158H34.5399V24.4287H33.9309V25.4323C33.9309 25.5626 33.9522 25.6529 33.9948 25.703C34.0399 25.7506 34.1088 25.7744 34.2015 25.7744C34.2466 25.7744 34.293 25.7694 34.3406 25.7594C34.3907 25.7468 34.4446 25.7268 34.5023 25.6992L34.5962 25.9511ZM35.3261 23.8159L35.935 23.4626H36.232V26.0187H35.9125V23.8084L35.4689 24.064L35.3261 23.8159ZM38.5324 24.4587V25.0188C38.5324 25.3597 38.456 25.6178 38.3031 25.7932C38.1502 25.9686 37.9372 26.0563 37.6641 26.0563C37.3909 26.0563 37.1779 25.9686 37.025 25.7932C36.8747 25.6178 36.7995 25.3597 36.7995 25.0188V24.4587C36.7995 24.1204 36.8759 23.8636 37.0288 23.6881C37.1816 23.5127 37.3934 23.425 37.6641 23.425C37.9372 23.425 38.1502 23.5127 38.3031 23.6881C38.456 23.8636 38.5324 24.1204 38.5324 24.4587ZM38.2016 24.4587C38.2016 24.1981 38.154 24.0102 38.0588 23.8949C37.966 23.7796 37.8345 23.722 37.6641 23.722C37.4961 23.722 37.3646 23.7796 37.2694 23.8949C37.1766 24.0102 37.1303 24.1981 37.1303 24.4587V25.0188C37.1303 25.277 37.1766 25.4662 37.2694 25.5864C37.3646 25.7042 37.4961 25.7631 37.6641 25.7631C37.8345 25.7631 37.966 25.7042 38.0588 25.5864C38.154 25.4662 38.2016 25.277 38.2016 25.0188V24.4587ZM40.7203 24.4587V25.0188C40.7203 25.3597 40.6438 25.6178 40.491 25.7932C40.3381 25.9686 40.1251 26.0563 39.8519 26.0563C39.5788 26.0563 39.3658 25.9686 39.2129 25.7932C39.0625 25.6178 38.9874 25.3597 38.9874 25.0188V24.4587C38.9874 24.1204 39.0638 23.8636 39.2167 23.6881C39.3695 23.5127 39.5813 23.425 39.8519 23.425C40.1251 23.425 40.3381 23.5127 40.491 23.6881C40.6438 23.8636 40.7203 24.1204 40.7203 24.4587ZM40.3895 24.4587C40.3895 24.1981 40.3419 24.0102 40.2466 23.8949C40.1539 23.7796 40.0223 23.722 39.8519 23.722C39.684 23.722 39.5525 23.7796 39.4572 23.8949C39.3645 24.0102 39.3181 24.1981 39.3181 24.4587V25.0188C39.3181 25.277 39.3645 25.4662 39.4572 25.5864C39.5525 25.7042 39.684 25.7631 39.8519 25.7631C40.0223 25.7631 40.1539 25.7042 40.2466 25.5864C40.3419 25.4662 40.3895 25.277 40.3895 25.0188V24.4587ZM42.3162 25.0188V26.0187H41.9891V23.4626H42.7898C43.0304 23.4626 43.2158 23.5265 43.3462 23.6543C43.479 23.7796 43.5454 23.9475 43.5454 24.158V24.3197C43.5454 24.47 43.5103 24.6003 43.4401 24.7106C43.3725 24.8209 43.2747 24.9023 43.1469 24.9549C43.2547 25.1278 43.3549 25.3033 43.4477 25.4812C43.5404 25.6591 43.6256 25.8383 43.7033 26.0187H43.3274C43.1845 25.6779 43.0179 25.3446 42.8274 25.0188H42.3162ZM42.7898 23.7633H42.3162V24.7181H42.7898C42.9176 24.7181 43.0191 24.683 43.0943 24.6129C43.1695 24.5402 43.2071 24.4424 43.2071 24.3197V24.158C43.2071 24.0327 43.1695 23.9362 43.0943 23.8686C43.0191 23.7984 42.9176 23.7633 42.7898 23.7633ZM44.5165 25.7819C44.7671 25.7819 44.8924 25.6967 44.8924 25.5263C44.8924 25.4536 44.8698 25.396 44.8247 25.3534C44.7796 25.3108 44.6969 25.2744 44.5766 25.2444L44.3699 25.1917C44.217 25.1542 44.103 25.089 44.0278 24.9963C43.9526 24.9011 43.915 24.7883 43.915 24.658C43.915 24.5627 43.9363 24.475 43.9789 24.3948C44.0215 24.3121 44.0892 24.2457 44.1819 24.1956C44.2746 24.1455 44.3949 24.1204 44.5428 24.1204C44.638 24.1204 44.7345 24.1317 44.8322 24.1543C44.9325 24.1743 45.034 24.2094 45.1367 24.2595L45.039 24.5189C44.856 24.4362 44.6906 24.3948 44.5428 24.3948C44.3248 24.3948 44.2158 24.4763 44.2158 24.6392C44.2158 24.7018 44.2358 24.7557 44.2759 24.8008C44.316 24.8459 44.3912 24.8823 44.5014 24.9098L44.7082 24.9624C44.8736 25.0025 44.9951 25.0677 45.0728 25.1579C45.1505 25.2481 45.1893 25.3647 45.1893 25.5075C45.1893 25.6103 45.1668 25.7042 45.1217 25.7894C45.0791 25.8721 45.0089 25.9373 44.9112 25.9849C44.816 26.0325 44.6869 26.0563 44.524 26.0563C44.4162 26.0563 44.3085 26.0451 44.2007 26.0225C44.0955 25.9999 43.9865 25.9636 43.8737 25.9135L43.9564 25.6579C44.0641 25.7005 44.1619 25.7318 44.2496 25.7518C44.3373 25.7719 44.4263 25.7819 44.5165 25.7819ZM12.9094 30H12.4395V29.5302H12.9094V30ZM15.8925 31.0187V28.4626H16.2346C16.4626 28.7884 16.6719 29.1167 16.8623 29.4475C17.0553 29.7757 17.2357 30.1191 17.4036 30.4774L17.366 29.5001V28.4626H17.6855V31.0187H17.3435C17.168 30.6529 16.9864 30.297 16.7984 29.9512C16.613 29.6028 16.41 29.2633 16.1894 28.9325L16.212 29.9737V31.0187H15.8925ZM19.7762 29.9737V30.1993C19.7762 30.4649 19.7073 30.6742 19.5695 30.827C19.4342 30.9799 19.24 31.0563 18.9868 31.0563C18.7362 31.0563 18.542 30.9799 18.4042 30.827C18.2664 30.6742 18.1974 30.4649 18.1974 30.1993V29.9737C18.1974 29.7131 18.2651 29.5064 18.4004 29.3535C18.5383 29.1981 18.7337 29.1204 18.9868 29.1204C19.24 29.1204 19.4342 29.1981 19.5695 29.3535C19.7073 29.5064 19.7762 29.7131 19.7762 29.9737ZM19.4567 29.9737C19.4567 29.7958 19.4166 29.6567 19.3364 29.5565C19.2562 29.4537 19.1397 29.4024 18.9868 29.4024C18.8365 29.4024 18.72 29.4537 18.6373 29.5565C18.5571 29.6567 18.517 29.7958 18.517 29.9737V30.1993C18.517 30.3847 18.5571 30.5276 18.6373 30.6278C18.72 30.728 18.8365 30.7782 18.9868 30.7782C19.1397 30.7782 19.2562 30.728 19.3364 30.6278C19.4166 30.5276 19.4567 30.3847 19.4567 30.1993V29.9737ZM21.1381 29.9775V30.1993C21.1381 30.3897 21.1732 30.5338 21.2434 30.6316C21.3135 30.7268 21.425 30.7744 21.5779 30.7744C21.7283 30.7744 21.8899 30.7356 22.0628 30.6579L22.1568 30.9172C21.9513 31.01 21.7521 31.0563 21.5591 31.0563C21.3185 31.0563 21.1356 30.9799 21.0103 30.827C20.885 30.6742 20.8223 30.4649 20.8223 30.1993V29.9775C20.8223 29.7118 20.885 29.5026 21.0103 29.3497C21.1356 29.1969 21.3185 29.1204 21.5591 29.1204C21.6493 29.1204 21.742 29.133 21.8373 29.158C21.935 29.1806 22.0327 29.2131 22.1305 29.2557L22.0365 29.5189C21.9538 29.4838 21.8736 29.4562 21.7959 29.4362C21.7207 29.4161 21.6481 29.4061 21.5779 29.4061C21.425 29.4061 21.3135 29.455 21.2434 29.5527C21.1732 29.6479 21.1381 29.7895 21.1381 29.9775ZM23.3859 29.4099C23.3157 29.4099 23.233 29.4274 23.1378 29.4625C23.0451 29.4976 22.9323 29.569 22.7995 29.6768V31.0187H22.4912V28.2371H22.7995V29.4061C22.9298 29.2958 23.0476 29.2207 23.1528 29.1806C23.2581 29.1405 23.3608 29.1204 23.4611 29.1204C23.634 29.1204 23.7655 29.1756 23.8558 29.2858C23.9485 29.3936 23.9948 29.5477 23.9948 29.7482V31.0187H23.6866V29.7933C23.6866 29.5377 23.5864 29.4099 23.3859 29.4099ZM25.882 31.0375C25.7668 31.0375 25.674 31.0112 25.6039 30.9586C25.5362 30.906 25.4886 30.8408 25.461 30.7631C25.3382 30.8709 25.2267 30.9473 25.1265 30.9924C25.0262 31.035 24.926 31.0563 24.8257 31.0563C24.6629 31.0563 24.5426 31.0037 24.4649 30.8984C24.3872 30.7932 24.3483 30.6641 24.3483 30.5113C24.3483 30.4085 24.3671 30.3171 24.4047 30.2369C24.4423 30.1567 24.5062 30.094 24.5964 30.0489C24.6867 30.0013 24.8082 29.9775 24.9611 29.9775C25.0287 29.9775 25.1027 29.9825 25.1829 29.9925C25.263 30 25.3445 30.0101 25.4272 30.0226V29.7707C25.4272 29.6304 25.3959 29.5352 25.3332 29.4851C25.2731 29.4324 25.1841 29.4061 25.0663 29.4061C24.9059 29.4061 24.7268 29.45 24.5288 29.5377L24.431 29.2821C24.5463 29.2294 24.6566 29.1893 24.7618 29.1618C24.8671 29.1342 24.9736 29.1204 25.0814 29.1204C25.2568 29.1204 25.3909 29.1492 25.4836 29.2069C25.5763 29.2645 25.6402 29.341 25.6753 29.4362C25.7104 29.5314 25.7279 29.6354 25.7279 29.7482V30.5526C25.7279 30.6103 25.7392 30.6591 25.7617 30.6992C25.7843 30.7368 25.8294 30.7556 25.8971 30.7556H25.9384V31.0375H25.882ZM24.6528 30.5075C24.6528 30.5927 24.6729 30.6616 24.713 30.7143C24.7531 30.7669 24.8107 30.7932 24.8859 30.7932C24.951 30.7932 25.0262 30.7744 25.1114 30.7368C25.1966 30.6967 25.3019 30.6178 25.4272 30.5V30.2632C25.2568 30.2356 25.1064 30.2218 24.9761 30.2218C24.8608 30.2218 24.7781 30.2456 24.728 30.2932C24.6779 30.3409 24.6528 30.4123 24.6528 30.5075ZM27.235 29.4287C27.1222 29.4287 27.0119 29.4487 26.9042 29.4888C26.7989 29.5289 26.6861 29.6053 26.5659 29.7181V31.0187H26.2576V29.158H26.5508V29.4587C26.6786 29.3334 26.7952 29.2457 26.9004 29.1956C27.0082 29.1455 27.1197 29.1204 27.235 29.1204V29.4287ZM29.009 31.2518C29.009 31.4347 28.9338 31.5813 28.7834 31.6916C28.6356 31.8019 28.4314 31.857 28.1707 31.857C28.0404 31.857 27.9038 31.8395 27.761 31.8044C27.6207 31.7693 27.4878 31.7129 27.3625 31.6352L27.4678 31.3946C27.5931 31.4648 27.7134 31.5137 27.8287 31.5412C27.9464 31.5713 28.0605 31.5864 28.1707 31.5864C28.3411 31.5864 28.4727 31.5588 28.5654 31.5037C28.6581 31.4485 28.7045 31.3746 28.7045 31.2819C28.7045 31.2142 28.682 31.1616 28.6368 31.124C28.5917 31.0889 28.5191 31.0714 28.4188 31.0714H27.9865C27.8236 31.0714 27.7059 31.0325 27.6332 30.9548C27.5605 30.8771 27.5242 30.7919 27.5242 30.6992C27.5242 30.6341 27.5392 30.5702 27.5693 30.5075C27.5994 30.4424 27.642 30.3784 27.6971 30.3158C27.6094 30.2632 27.5392 30.1917 27.4866 30.1015C27.434 30.0088 27.4076 29.8973 27.4076 29.767C27.4076 29.6241 27.4377 29.5051 27.4979 29.4099C27.5605 29.3146 27.6432 29.2432 27.746 29.1956C27.8487 29.1455 27.964 29.1204 28.0918 29.1204H28.1557C28.2434 29.1204 28.3236 29.133 28.3963 29.158H29.0654V29.4324L28.6594 29.376C28.712 29.4211 28.7546 29.4775 28.7872 29.5452C28.8198 29.6104 28.8361 29.6905 28.8361 29.7858C28.8361 29.9211 28.8047 30.0351 28.7421 30.1278C28.682 30.2206 28.6005 30.292 28.4978 30.3421C28.395 30.3897 28.281 30.4135 28.1557 30.4135H28.0918C28.0592 30.4135 28.0279 30.4123 27.9978 30.4098C27.9677 30.4048 27.9377 30.3997 27.9076 30.3947C27.8349 30.4749 27.7986 30.5539 27.7986 30.6316C27.7986 30.7318 27.8687 30.7819 28.0091 30.7819H28.4301C28.6105 30.7819 28.7521 30.822 28.8549 30.9022C28.9576 30.9824 29.009 31.0989 29.009 31.2518ZM28.1557 30.1466C28.2534 30.1466 28.3399 30.1153 28.4151 30.0527C28.4902 29.99 28.5278 29.8948 28.5278 29.767C28.5278 29.6417 28.4902 29.5477 28.4151 29.4851C28.3399 29.4199 28.2534 29.3873 28.1557 29.3873H28.0918C27.9915 29.3873 27.9038 29.4199 27.8287 29.4851C27.7535 29.5477 27.7159 29.6417 27.7159 29.767C27.7159 29.8948 27.7535 29.99 27.8287 30.0527C27.9038 30.1153 27.9915 30.1466 28.0918 30.1466H28.1557ZM30.7054 30.9097C30.5926 30.9649 30.4798 31.0024 30.3671 31.0225C30.2543 31.0451 30.1503 31.0563 30.0551 31.0563C29.7869 31.0563 29.5864 30.9799 29.4536 30.827C29.3233 30.6742 29.2581 30.4649 29.2581 30.1993V29.9737C29.2581 29.7156 29.3233 29.5089 29.4536 29.3535C29.5864 29.1981 29.7731 29.1204 30.0137 29.1204C30.1415 29.1204 30.258 29.1467 30.3633 29.1994C30.4711 29.2495 30.5563 29.3272 30.6189 29.4324C30.6841 29.5352 30.7166 29.668 30.7166 29.8309C30.7166 29.9361 30.7016 30.0564 30.6715 30.1917H29.5626V30.1993C29.5626 30.3897 29.6015 30.5338 29.6792 30.6316C29.7593 30.7293 29.8872 30.7782 30.0626 30.7782C30.1428 30.7782 30.2305 30.7681 30.3257 30.7481C30.4234 30.728 30.5187 30.6967 30.6114 30.6541L30.7054 30.9097ZM30.0137 29.3911C29.8684 29.3911 29.7581 29.4387 29.6829 29.5339C29.6102 29.6266 29.5701 29.7582 29.5626 29.9286H30.4046C30.4122 29.8835 30.4159 29.8409 30.4159 29.8008C30.4159 29.6605 30.3758 29.5577 30.2956 29.4926C30.218 29.4249 30.124 29.3911 30.0137 29.3911ZM33.3073 29.9737V30.1993C33.3073 30.4649 33.2384 30.6742 33.1006 30.827C32.9652 30.9799 32.771 31.0563 32.5179 31.0563C32.2673 31.0563 32.0731 30.9799 31.9353 30.827C31.7974 30.6742 31.7285 30.4649 31.7285 30.1993V29.9737C31.7285 29.7131 31.7962 29.5064 31.9315 29.3535C32.0693 29.1981 32.2648 29.1204 32.5179 29.1204C32.771 29.1204 32.9652 29.1981 33.1006 29.3535C33.2384 29.5064 33.3073 29.7131 33.3073 29.9737ZM32.9878 29.9737C32.9878 29.7958 32.9477 29.6567 32.8675 29.5565C32.7873 29.4537 32.6708 29.4024 32.5179 29.4024C32.3675 29.4024 32.251 29.4537 32.1683 29.5565C32.0881 29.6567 32.048 29.7958 32.048 29.9737V30.1993C32.048 30.3847 32.0881 30.5276 32.1683 30.6278C32.251 30.728 32.3675 30.7782 32.5179 30.7782C32.6708 30.7782 32.7873 30.728 32.8675 30.6278C32.9477 30.5276 32.9878 30.3847 32.9878 30.1993V29.9737ZM34.6446 29.4099C34.5745 29.4099 34.4918 29.4274 34.3965 29.4625C34.3038 29.4976 34.191 29.569 34.0582 29.6768V31.0187H33.75V29.158H34.0432V29.4174C34.176 29.3046 34.2963 29.2269 34.4041 29.1843C34.5143 29.1417 34.6196 29.1204 34.7198 29.1204C34.8927 29.1204 35.0243 29.1756 35.1145 29.2858C35.2072 29.3936 35.2536 29.5477 35.2536 29.7482V31.0187H34.9454V29.7933C34.9454 29.5377 34.8451 29.4099 34.6446 29.4099ZM37.2255 31.0563C37.0851 31.0563 36.9398 31.0275 36.7894 30.9699V31.8194H36.4812V29.158H36.7744V29.4211C36.8896 29.3109 36.9949 29.2332 37.0901 29.1881C37.1854 29.143 37.2831 29.1204 37.3833 29.1204C37.5813 29.1204 37.7329 29.1956 37.8382 29.346C37.9459 29.4963 37.9998 29.7081 37.9998 29.9812V30.1993C37.9998 30.4599 37.9334 30.6679 37.8006 30.8233C37.6703 30.9786 37.4786 31.0563 37.2255 31.0563ZM37.3081 29.4099C37.2355 29.4099 37.1603 29.4287 37.0826 29.4663C37.0049 29.5038 36.9072 29.5803 36.7894 29.6956V30.6879C36.8621 30.7205 36.9322 30.7443 36.9999 30.7594C37.0676 30.7719 37.134 30.7782 37.1991 30.7782C37.3695 30.7782 37.4923 30.7268 37.5675 30.624C37.6427 30.5188 37.6803 30.3772 37.6803 30.1993V29.9812C37.6803 29.7858 37.649 29.6417 37.5863 29.549C37.5262 29.4562 37.4335 29.4099 37.3081 29.4099ZM39.8019 30.9097C39.6892 30.9649 39.5764 31.0024 39.4636 31.0225C39.3509 31.0451 39.2469 31.0563 39.1516 31.0563C38.8835 31.0563 38.683 30.9799 38.5502 30.827C38.4199 30.6742 38.3547 30.4649 38.3547 30.1993V29.9737C38.3547 29.7156 38.4199 29.5089 38.5502 29.3535C38.683 29.1981 38.8697 29.1204 39.1103 29.1204C39.2381 29.1204 39.3546 29.1467 39.4599 29.1994C39.5676 29.2495 39.6528 29.3272 39.7155 29.4324C39.7806 29.5352 39.8132 29.668 39.8132 29.8309C39.8132 29.9361 39.7982 30.0564 39.7681 30.1917H38.6592V30.1993C38.6592 30.3897 38.698 30.5338 38.7757 30.6316C38.8559 30.7293 38.9837 30.7782 39.1592 30.7782C39.2393 30.7782 39.3271 30.7681 39.4223 30.7481C39.52 30.728 39.6152 30.6967 39.708 30.6541L39.8019 30.9097ZM39.1103 29.3911C38.9649 29.3911 38.8547 29.4387 38.7795 29.5339C38.7068 29.6266 38.6667 29.7582 38.6592 29.9286H39.5012C39.5087 29.8835 39.5125 29.8409 39.5125 29.8008C39.5125 29.6605 39.4724 29.5577 39.3922 29.4926C39.3145 29.4249 39.2205 29.3911 39.1103 29.3911ZM41.2065 29.4287C41.0938 29.4287 40.9835 29.4487 40.8757 29.4888C40.7705 29.5289 40.6577 29.6053 40.5374 29.7181V31.0187H40.2292V29.158H40.5224V29.4587C40.6502 29.3334 40.7667 29.2457 40.872 29.1956C40.9797 29.1455 41.0913 29.1204 41.2065 29.1204V29.4287ZM42.5202 28.7032H42.1743V28.3573H42.5202V28.7032ZM41.7872 31.857V31.5638C41.92 31.5638 42.0202 31.5325 42.0879 31.4698C42.158 31.4072 42.1931 31.2856 42.1931 31.1052V29.158H42.5014V31.1052C42.5014 31.2505 42.4801 31.3796 42.4375 31.4924C42.3949 31.6051 42.3209 31.6941 42.2157 31.7593C42.1129 31.8244 41.9701 31.857 41.7872 31.857ZM44.522 29.9737V30.1993C44.522 30.4649 44.4531 30.6742 44.3153 30.827C44.1799 30.9799 43.9857 31.0563 43.7326 31.0563C43.482 31.0563 43.2878 30.9799 43.15 30.827C43.0121 30.6742 42.9432 30.4649 42.9432 30.1993V29.9737C42.9432 29.7131 43.0109 29.5064 43.1462 29.3535C43.284 29.1981 43.4795 29.1204 43.7326 29.1204C43.9857 29.1204 44.1799 29.1981 44.3153 29.3535C44.4531 29.5064 44.522 29.7131 44.522 29.9737ZM44.2025 29.9737C44.2025 29.7958 44.1624 29.6567 44.0822 29.5565C44.002 29.4537 43.8855 29.4024 43.7326 29.4024C43.5822 29.4024 43.4657 29.4537 43.383 29.5565C43.3028 29.6567 43.2627 29.7958 43.2627 29.9737V30.1993C43.2627 30.3847 43.3028 30.5276 43.383 30.6278C43.4657 30.728 43.5822 30.7782 43.7326 30.7782C43.8855 30.7782 44.002 30.728 44.0822 30.6278C44.1624 30.5276 44.2025 30.3847 44.2025 30.1993V29.9737ZM46.4683 30.1993C46.4683 30.4599 46.4031 30.6679 46.2728 30.8233C46.1425 30.9786 45.9508 31.0563 45.6977 31.0563C45.4471 31.0563 45.199 30.9899 44.9534 30.8571V28.2371H45.2617V29.4099C45.3744 29.3046 45.4772 29.2307 45.5699 29.1881C45.6651 29.143 45.7616 29.1204 45.8593 29.1204C46.0548 29.1204 46.2052 29.1956 46.3104 29.346C46.4157 29.4963 46.4683 29.7081 46.4683 29.9812V30.1993ZM45.7842 29.4099C45.714 29.4099 45.6388 29.4287 45.5586 29.4663C45.4809 29.5038 45.3819 29.5815 45.2617 29.6993V30.6842C45.4095 30.7468 45.5486 30.7782 45.6789 30.7782C45.8468 30.7782 45.9671 30.7268 46.0398 30.624C46.1124 30.5188 46.1488 30.3772 46.1488 30.1993V29.9812C46.1488 29.7858 46.1187 29.6417 46.0586 29.549C45.9984 29.4562 45.907 29.4099 45.7842 29.4099ZM12.9094 35H12.4395V34.5302H12.9094V35ZM15.5654 33.8159L16.1744 33.4626H16.4714V36.0187H16.1519V33.8084L15.7083 34.064L15.5654 33.8159ZM18.4204 36.2067C18.3402 36.4322 18.2412 36.5964 18.1234 36.6991C18.0081 36.8044 17.8465 36.857 17.6385 36.857V36.5525C17.7237 36.55 17.7964 36.5387 17.8565 36.5187C17.9192 36.4986 17.9743 36.4573 18.0219 36.3946C18.072 36.3345 18.1197 36.2443 18.1648 36.124L18.2023 36.03L17.5332 34.158H17.849L18.161 35.0639L18.3527 35.6428L18.5369 35.0639L18.8414 34.158H19.1459L18.4204 36.2067ZM20.7535 35.9097C20.6407 35.9649 20.5279 36.0024 20.4152 36.0225C20.3024 36.0451 20.1984 36.0563 20.1032 36.0563C19.835 36.0563 19.6345 35.9799 19.5017 35.827C19.3714 35.6742 19.3062 35.4649 19.3062 35.1993V34.9737C19.3062 34.7156 19.3714 34.5089 19.5017 34.3535C19.6345 34.1981 19.8212 34.1204 20.0618 34.1204C20.1896 34.1204 20.3061 34.1467 20.4114 34.1994C20.5192 34.2495 20.6044 34.3272 20.667 34.4324C20.7322 34.5352 20.7647 34.668 20.7647 34.8309C20.7647 34.9361 20.7497 35.0564 20.7196 35.1917H19.6107V35.1993C19.6107 35.3897 19.6496 35.5338 19.7273 35.6316C19.8074 35.7293 19.9353 35.7782 20.1107 35.7782C20.1909 35.7782 20.2786 35.7681 20.3738 35.7481C20.4715 35.728 20.5668 35.6967 20.6595 35.6541L20.7535 35.9097ZM20.0618 34.3911C19.9165 34.3911 19.8062 34.4387 19.731 34.5339C19.6583 34.6266 19.6182 34.7582 19.6107 34.9286H20.4527C20.4603 34.8835 20.464 34.8409 20.464 34.8008C20.464 34.6605 20.4239 34.5577 20.3437 34.4926C20.2661 34.4249 20.1721 34.3911 20.0618 34.3911ZM22.5415 36.0375C22.4262 36.0375 22.3335 36.0112 22.2633 35.9586C22.1956 35.906 22.148 35.8408 22.1205 35.7631C21.9977 35.8709 21.8862 35.9473 21.7859 35.9924C21.6857 36.035 21.5854 36.0563 21.4852 36.0563C21.3223 36.0563 21.202 36.0037 21.1243 35.8984C21.0466 35.7932 21.0078 35.6641 21.0078 35.5113C21.0078 35.4085 21.0266 35.3171 21.0642 35.2369C21.1018 35.1567 21.1657 35.094 21.2559 35.0489C21.3461 35.0013 21.4676 34.9775 21.6205 34.9775C21.6882 34.9775 21.7621 34.9825 21.8423 34.9925C21.9225 35 22.0039 35.0101 22.0866 35.0226V34.7707C22.0866 34.6304 22.0553 34.5352 21.9927 34.4851C21.9325 34.4324 21.8436 34.4061 21.7258 34.4061C21.5654 34.4061 21.3862 34.45 21.1882 34.5377L21.0905 34.2821C21.2058 34.2294 21.316 34.1893 21.4213 34.1618C21.5265 34.1342 21.633 34.1204 21.7408 34.1204C21.9162 34.1204 22.0503 34.1492 22.143 34.2069C22.2357 34.2645 22.2996 34.341 22.3347 34.4362C22.3698 34.5314 22.3874 34.6354 22.3874 34.7482V35.5526C22.3874 35.6103 22.3986 35.6591 22.4212 35.6992C22.4437 35.7368 22.4889 35.7556 22.5565 35.7556H22.5979V36.0375H22.5415ZM21.3123 35.5075C21.3123 35.5927 21.3323 35.6616 21.3724 35.7143C21.4125 35.7669 21.4702 35.7932 21.5453 35.7932C21.6105 35.7932 21.6857 35.7744 21.7709 35.7368C21.8561 35.6967 21.9613 35.6178 22.0866 35.5V35.2632C21.9162 35.2356 21.7659 35.2218 21.6356 35.2218C21.5203 35.2218 21.4376 35.2456 21.3875 35.2932C21.3373 35.3409 21.3123 35.4123 21.3123 35.5075ZM23.8944 34.4287C23.7816 34.4287 23.6714 34.4487 23.5636 34.4888C23.4584 34.5289 23.3456 34.6053 23.2253 34.7181V36.0187H22.9171V34.158H23.2103V34.4587C23.3381 34.3334 23.4546 34.2457 23.5599 34.1956C23.6676 34.1455 23.7791 34.1204 23.8944 34.1204V34.4287ZM26.2418 34.158L25.584 36.0187H25.2945L24.6292 34.158H24.9487L25.2607 35.0639L25.4486 35.6316L25.6328 35.0639L25.9373 34.158H26.2418ZM27.8974 36.0375C27.7821 36.0375 27.6894 36.0112 27.6192 35.9586C27.5515 35.906 27.5039 35.8408 27.4764 35.7631C27.3536 35.8709 27.242 35.9473 27.1418 35.9924C27.0416 36.035 26.9413 36.0563 26.8411 36.0563C26.6782 36.0563 26.5579 36.0037 26.4802 35.8984C26.4025 35.7932 26.3637 35.6641 26.3637 35.5113C26.3637 35.4085 26.3825 35.3171 26.4201 35.2369C26.4577 35.1567 26.5216 35.094 26.6118 35.0489C26.702 35.0013 26.8235 34.9775 26.9764 34.9775C27.0441 34.9775 27.118 34.9825 27.1982 34.9925C27.2784 35 27.3598 35.0101 27.4425 35.0226V34.7707C27.4425 34.6304 27.4112 34.5352 27.3486 34.4851C27.2884 34.4324 27.1994 34.4061 27.0817 34.4061C26.9213 34.4061 26.7421 34.45 26.5441 34.5377L26.4464 34.2821C26.5617 34.2294 26.6719 34.1893 26.7772 34.1618C26.8824 34.1342 26.9889 34.1204 27.0967 34.1204C27.2721 34.1204 27.4062 34.1492 27.4989 34.2069C27.5916 34.2645 27.6555 34.341 27.6906 34.4362C27.7257 34.5314 27.7433 34.6354 27.7433 34.7482V35.5526C27.7433 35.6103 27.7545 35.6591 27.7771 35.6992C27.7996 35.7368 27.8447 35.7556 27.9124 35.7556H27.9538V36.0375H27.8974ZM26.6682 35.5075C26.6682 35.5927 26.6882 35.6616 26.7283 35.7143C26.7684 35.7669 26.826 35.7932 26.9012 35.7932C26.9664 35.7932 27.0416 35.7744 27.1268 35.7368C27.212 35.6967 27.3172 35.6178 27.4425 35.5V35.2632C27.2721 35.2356 27.1218 35.2218 26.9914 35.2218C26.8762 35.2218 26.7935 35.2456 26.7433 35.2932C26.6932 35.3409 26.6682 35.4123 26.6682 35.5075ZM28.2692 35.5677V33.2371H28.5774V35.5526C28.5774 35.6203 28.5875 35.6717 28.6075 35.7067C28.6301 35.7393 28.6739 35.7556 28.7391 35.7556H28.7992V36.0375H28.7128C28.5474 36.0375 28.4321 35.9937 28.3669 35.906C28.3018 35.8183 28.2692 35.7055 28.2692 35.5677ZM29.4737 33.7032H29.1278V33.3573H29.4737V33.7032ZM29.4549 36.0187H29.1466V34.158H29.4549V36.0187ZM31.1334 36.0187V35.7594C31.0182 35.8696 30.9129 35.9473 30.8177 35.9924C30.725 36.035 30.6285 36.0563 30.5282 36.0563C30.3303 36.0563 30.1774 35.9811 30.0696 35.8308C29.9644 35.6804 29.9117 35.4699 29.9117 35.1993V34.9812C29.9117 34.7181 29.9769 34.5089 30.1072 34.3535C30.24 34.1981 30.4317 34.1204 30.6824 34.1204C30.755 34.1204 30.8277 34.1279 30.9004 34.143C30.973 34.158 31.0457 34.1793 31.1184 34.2069V33.2371H31.4266V36.0187H31.1334ZM30.2313 35.1993C30.2313 35.3947 30.2613 35.5388 30.3215 35.6316C30.3841 35.7218 30.4769 35.7669 30.5997 35.7669C30.6723 35.7669 30.7475 35.7493 30.8252 35.7143C30.9029 35.6767 31.0006 35.6002 31.1184 35.485V34.4926C31.0457 34.46 30.9756 34.4374 30.9079 34.4249C30.8402 34.4099 30.7738 34.4024 30.7087 34.4024C30.5383 34.4024 30.4155 34.4537 30.3403 34.5565C30.2676 34.6592 30.2313 34.8008 30.2313 34.9812V35.1993ZM32.3003 33.7032H31.9545V33.3573H32.3003V33.7032ZM32.2815 36.0187H31.9733V34.158H32.2815V36.0187ZM33.851 35.9511C33.7107 36.0212 33.5616 36.0563 33.4037 36.0563C33.2684 36.0563 33.1619 36.0288 33.0842 35.9736C33.009 35.9185 32.9551 35.8446 32.9226 35.7518C32.8925 35.6591 32.8775 35.5564 32.8775 35.4436V34.4287H32.5542V34.158H32.8775V33.6393H33.1857V34.158H33.7947V34.4287H33.1857V35.4323C33.1857 35.5626 33.207 35.6529 33.2496 35.703C33.2947 35.7506 33.3636 35.7744 33.4563 35.7744C33.5015 35.7744 33.5478 35.7694 33.5954 35.7594C33.6455 35.7468 33.6994 35.7268 33.7571 35.6992L33.851 35.9511ZM34.7744 36.2067C34.6942 36.4322 34.5952 36.5964 34.4774 36.6991C34.3621 36.8044 34.2005 36.857 33.9925 36.857V36.5525C34.0777 36.55 34.1504 36.5387 34.2105 36.5187C34.2732 36.4986 34.3283 36.4573 34.3759 36.3946C34.426 36.3345 34.4737 36.2443 34.5188 36.124L34.5564 36.03L33.8873 34.158H34.203L34.515 35.0639L34.7067 35.6428L34.8909 35.0639L35.1954 34.158H35.4999L34.7744 36.2067Z" fill="#1D1D1D"/>
<path d="M46.806 38.5405C46.7841 38.788 46.687 38.9853 46.5147 39.1325C46.3424 39.2766 46.1075 39.3487 45.8099 39.3487C45.9696 39.4771 46.1153 39.6024 46.2468 39.7246C46.3784 39.8436 46.5053 39.9674 46.6275 40.0958C46.7528 40.2242 46.8812 40.3667 47.0128 40.5234H46.275C46.1403 40.3667 46.0119 40.2258 45.8897 40.1005C45.7707 39.9721 45.6454 39.8483 45.5138 39.7293C45.3854 39.6071 45.2382 39.4802 45.0722 39.3487V38.9399H45.8052C45.943 38.9399 46.0511 38.9054 46.1294 38.8365C46.2108 38.7645 46.2609 38.6658 46.2797 38.5405H45.0722V38.1317H46.275C46.2594 38.0095 46.2108 37.914 46.1294 37.8451C46.0511 37.773 45.943 37.737 45.8052 37.737H45.0722V37.3282H47.196V37.737H46.6087C46.7152 37.8404 46.7809 37.9719 46.806 38.1317H47.196V38.5405H46.806ZM47.4345 37.784L48.2474 37.3282H48.7173V40.5234H48.1628V37.9484L47.6835 38.2116L47.4345 37.784ZM49.4736 38.8741L49.5675 37.3282H51.2027V37.8592H50.0656L50.0233 38.564C50.133 38.5358 50.2504 38.5217 50.3757 38.5217C50.6859 38.5217 50.9286 38.6031 51.104 38.766C51.2795 38.9258 51.3672 39.1623 51.3672 39.4755V39.6024C51.3672 39.7778 51.3312 39.9392 51.2591 40.0864C51.1871 40.2336 51.0712 40.3511 50.9114 40.4388C50.7548 40.5265 50.5465 40.5704 50.2865 40.5704C50.1424 40.5704 49.992 40.5531 49.8354 40.5187C49.6819 40.4842 49.5127 40.4263 49.3279 40.3448L49.5018 39.8608C49.6678 39.9266 49.8072 39.9752 49.9199 40.0065C50.0359 40.0347 50.1518 40.0488 50.2677 40.0488C50.4431 40.0488 50.5746 40.0128 50.6624 39.9407C50.7532 39.8687 50.7986 39.7559 50.7986 39.6024V39.4755C50.7986 39.3377 50.7579 39.2281 50.6765 39.1466C50.5981 39.0652 50.4713 39.0245 50.2959 39.0245C50.2175 39.0245 50.1361 39.0354 50.0515 39.0574C49.9669 39.0761 49.8761 39.1043 49.779 39.1419L49.4736 38.8741ZM54.1562 38.5875V39.2594C54.1562 39.6666 54.0606 39.9877 53.8695 40.2227C53.6785 40.4545 53.3981 40.5704 53.0285 40.5704C52.6588 40.5704 52.3785 40.4545 52.1874 40.2227C51.9963 39.9877 51.9007 39.6666 51.9007 39.2594V38.5875C51.9007 38.1802 51.9963 37.8607 52.1874 37.6289C52.3785 37.3971 52.6588 37.2812 53.0285 37.2812C53.3981 37.2812 53.6785 37.3971 53.8695 37.6289C54.0606 37.8607 54.1562 38.1802 54.1562 38.5875ZM53.5876 38.5875C53.5876 38.0643 53.4012 37.8028 53.0285 37.8028C52.8374 37.8028 52.6964 37.8686 52.6056 38.0001C52.5147 38.1317 52.4693 38.3275 52.4693 38.5875V39.2594C52.4693 39.5194 52.5147 39.7167 52.6056 39.8514C52.6964 39.983 52.8374 40.0488 53.0285 40.0488C53.4012 40.0488 53.5876 39.7857 53.5876 39.2594V38.5875ZM57.0241 38.5875V39.2594C57.0241 39.6666 56.9285 39.9877 56.7375 40.2227C56.5464 40.4545 56.266 40.5704 55.8964 40.5704C55.5267 40.5704 55.2464 40.4545 55.0553 40.2227C54.8642 39.9877 54.7687 39.6666 54.7687 39.2594V38.5875C54.7687 38.1802 54.8642 37.8607 55.0553 37.6289C55.2464 37.3971 55.5267 37.2812 55.8964 37.2812C56.266 37.2812 56.5464 37.3971 56.7375 37.6289C56.9285 37.8607 57.0241 38.1802 57.0241 38.5875ZM56.4555 38.5875C56.4555 38.0643 56.2691 37.8028 55.8964 37.8028C55.7053 37.8028 55.5643 37.8686 55.4735 38.0001C55.3826 38.1317 55.3372 38.3275 55.3372 38.5875V39.2594C55.3372 39.5194 55.3826 39.7167 55.4735 39.8514C55.5643 39.983 55.7053 40.0488 55.8964 40.0488C56.2691 40.0488 56.4555 39.7857 56.4555 39.2594V38.5875ZM58.0653 40.5234H57.4967V39.9642H58.0653V40.5234ZM60.7914 38.5875V39.2594C60.7914 39.6666 60.6958 39.9877 60.5048 40.2227C60.3137 40.4545 60.0333 40.5704 59.6637 40.5704C59.294 40.5704 59.0137 40.4545 58.8226 40.2227C58.6315 39.9877 58.536 39.6666 58.536 39.2594V38.5875C58.536 38.1802 58.6315 37.8607 58.8226 37.6289C59.0137 37.3971 59.294 37.2812 59.6637 37.2812C60.0333 37.2812 60.3137 37.3971 60.5048 37.6289C60.6958 37.8607 60.7914 38.1802 60.7914 38.5875ZM60.2228 38.5875C60.2228 38.0643 60.0364 37.8028 59.6637 37.8028C59.4726 37.8028 59.3316 37.8686 59.2408 38.0001C59.1499 38.1317 59.1045 38.3275 59.1045 38.5875V39.2594C59.1045 39.5194 59.1499 39.7167 59.2408 39.8514C59.3316 39.983 59.4726 40.0488 59.6637 40.0488C60.0364 40.0488 60.2228 39.7857 60.2228 39.2594V38.5875Z" fill="black"/>
<path d="M66.806 38.5405C66.7841 38.788 66.687 38.9853 66.5147 39.1325C66.3424 39.2766 66.1075 39.3487 65.8099 39.3487C65.9696 39.4771 66.1153 39.6024 66.2468 39.7246C66.3784 39.8436 66.5053 39.9674 66.6275 40.0958C66.7528 40.2242 66.8812 40.3667 67.0128 40.5234H66.275C66.1403 40.3667 66.0119 40.2258 65.8897 40.1005C65.7707 39.9721 65.6454 39.8483 65.5138 39.7293C65.3854 39.6071 65.2382 39.4802 65.0722 39.3487V38.9399H65.8052C65.943 38.9399 66.0511 38.9054 66.1294 38.8365C66.2108 38.7645 66.2609 38.6658 66.2797 38.5405H65.0722V38.1317H66.275C66.2594 38.0095 66.2108 37.914 66.1294 37.8451C66.0511 37.773 65.943 37.737 65.8052 37.737H65.0722V37.3282H67.196V37.737H66.6087C66.7152 37.8404 66.7809 37.9719 66.806 38.1317H67.196V38.5405H66.806ZM69.5114 40.5234H67.5755V40.077C67.5755 39.8514 67.6052 39.6635 67.6647 39.5131C67.7243 39.3596 67.8041 39.2343 67.9044 39.1372C68.0046 39.037 68.1143 38.9571 68.2333 38.8976L68.5528 38.7378C68.675 38.6752 68.7737 38.6094 68.8488 38.5405C68.9272 38.4684 68.9663 38.376 68.9663 38.2633V38.1787C68.9663 38.0628 68.9256 37.9719 68.8441 37.9061C68.7658 37.8372 68.639 37.8028 68.4635 37.8028C68.357 37.8028 68.249 37.8184 68.1393 37.8498C68.0328 37.8811 67.9028 37.9249 67.7493 37.9813L67.5755 37.4974C67.7509 37.419 67.9107 37.3642 68.0547 37.3329C68.202 37.2984 68.3445 37.2812 68.4823 37.2812C68.7361 37.2812 68.9381 37.3219 69.0885 37.4034C69.242 37.4848 69.3516 37.5945 69.4174 37.7323C69.4863 37.867 69.5208 38.0158 69.5208 38.1787V38.2633C69.5208 38.4324 69.4863 38.5765 69.4174 38.6955C69.3516 38.8146 69.2639 38.9148 69.1543 38.9963C69.0446 39.0777 68.9256 39.1498 68.7972 39.2124L68.4776 39.3722C68.3617 39.4286 68.2756 39.5069 68.2192 39.6071C68.166 39.7074 68.1362 39.8358 68.1299 39.9924H69.5114V40.5234ZM70.0747 38.8741L70.1687 37.3282H71.8038V37.8592H70.6667L70.6244 38.564C70.7341 38.5358 70.8515 38.5217 70.9768 38.5217C71.287 38.5217 71.5297 38.6031 71.7052 38.766C71.8806 38.9258 71.9683 39.1623 71.9683 39.4755V39.6024C71.9683 39.7778 71.9323 39.9392 71.8602 40.0864C71.7882 40.2336 71.6723 40.3511 71.5125 40.4388C71.3559 40.5265 71.1476 40.5704 70.8876 40.5704C70.7435 40.5704 70.5931 40.5531 70.4365 40.5187C70.283 40.4842 70.1138 40.4263 69.929 40.3448L70.1029 39.8608C70.2689 39.9266 70.4083 39.9752 70.5211 40.0065C70.637 40.0347 70.7529 40.0488 70.8688 40.0488C71.0442 40.0488 71.1758 40.0128 71.2635 39.9407C71.3543 39.8687 71.3997 39.7559 71.3997 39.6024V39.4755C71.3997 39.3377 71.359 39.2281 71.2776 39.1466C71.1993 39.0652 71.0724 39.0245 70.897 39.0245C70.8187 39.0245 70.7372 39.0354 70.6526 39.0574C70.5681 39.0761 70.4772 39.1043 70.3801 39.1419L70.0747 38.8741ZM74.7573 38.5875V39.2594C74.7573 39.6666 74.6617 39.9877 74.4707 40.2227C74.2796 40.4545 73.9992 40.5704 73.6296 40.5704C73.2599 40.5704 72.9796 40.4545 72.7885 40.2227C72.5974 39.9877 72.5019 39.6666 72.5019 39.2594V38.5875C72.5019 38.1802 72.5974 37.8607 72.7885 37.6289C72.9796 37.3971 73.2599 37.2812 73.6296 37.2812C73.9992 37.2812 74.2796 37.3971 74.4707 37.6289C74.6617 37.8607 74.7573 38.1802 74.7573 38.5875ZM74.1887 38.5875C74.1887 38.0643 74.0023 37.8028 73.6296 37.8028C73.4385 37.8028 73.2975 37.8686 73.2067 38.0001C73.1158 38.1317 73.0704 38.3275 73.0704 38.5875V39.2594C73.0704 39.5194 73.1158 39.7167 73.2067 39.8514C73.2975 39.983 73.4385 40.0488 73.6296 40.0488C74.0023 40.0488 74.1887 39.7857 74.1887 39.2594V38.5875ZM77.6252 38.5875V39.2594C77.6252 39.6666 77.5297 39.9877 77.3386 40.2227C77.1475 40.4545 76.8671 40.5704 76.4975 40.5704C76.1279 40.5704 75.8475 40.4545 75.6564 40.2227C75.4653 39.9877 75.3698 39.6666 75.3698 39.2594V38.5875C75.3698 38.1802 75.4653 37.8607 75.6564 37.6289C75.8475 37.3971 76.1279 37.2812 76.4975 37.2812C76.8671 37.2812 77.1475 37.3971 77.3386 37.6289C77.5297 37.8607 77.6252 38.1802 77.6252 38.5875ZM77.0566 38.5875C77.0566 38.0643 76.8703 37.8028 76.4975 37.8028C76.3064 37.8028 76.1654 37.8686 76.0746 38.0001C75.9838 38.1317 75.9383 38.3275 75.9383 38.5875V39.2594C75.9383 39.5194 75.9838 39.7167 76.0746 39.8514C76.1654 39.983 76.3064 40.0488 76.4975 40.0488C76.8703 40.0488 77.0566 39.7857 77.0566 39.2594V38.5875ZM78.6664 40.5234H78.0978V39.9642H78.6664V40.5234ZM81.3925 38.5875V39.2594C81.3925 39.6666 81.297 39.9877 81.1059 40.2227C80.9148 40.4545 80.6344 40.5704 80.2648 40.5704C79.8951 40.5704 79.6148 40.4545 79.4237 40.2227C79.2326 39.9877 79.1371 39.6666 79.1371 39.2594V38.5875C79.1371 38.1802 79.2326 37.8607 79.4237 37.6289C79.6148 37.3971 79.8951 37.2812 80.2648 37.2812C80.6344 37.2812 80.9148 37.3971 81.1059 37.6289C81.297 37.8607 81.3925 38.1802 81.3925 38.5875ZM80.8239 38.5875C80.8239 38.0643 80.6376 37.8028 80.2648 37.8028C80.0737 37.8028 79.9327 37.8686 79.8419 38.0001C79.7511 38.1317 79.7056 38.3275 79.7056 38.5875V39.2594C79.7056 39.5194 79.7511 39.7167 79.8419 39.8514C79.9327 39.983 80.0737 40.0488 80.2648 40.0488C80.6376 40.0488 80.8239 39.7857 80.8239 39.2594V38.5875Z" fill="black"/>
</g>
<defs>
<filter id="filter0_d_2654_2253" x="2" y="3" width="88" height="48" filterUnits="userSpaceOnUse" color-interpolation-filters="sRGB">
<feFlood flood-opacity="0" result="BackgroundImageFix"/>
<feColorMatrix in="SourceAlpha" type="matrix" values="0 0 0 0 0 0 0 0 0 0 0 0 0 0 0 0 0 0 127 0" result="hardAlpha"/>
<feOffset dy="4"/>
<feGaussianBlur stdDeviation="2"/>
<feComposite in2="hardAlpha" operator="out"/>
<feColorMatrix type="matrix" values="0 0 0 0 0 0 0 0 0 0 0 0 0 0 0 0 0 0 0.25 0"/>
<feBlend mode="normal" in2="BackgroundImageFix" result="effect1_dropShadow_2654_2253"/>
<feBlend mode="normal" in="SourceGraphic" in2="effect1_dropShadow_2654_2253" result="shape"/>
</filter>
<filter id="filter1_d_2654_2253" x="0.126506" y="0.650603" width="91.747" height="51.747" filterUnits="userSpaceOnUse" color-interpolation-filters="sRGB">
<feFlood flood-opacity="0" result="BackgroundImageFix"/>
<feColorMatrix in="SourceAlpha" type="matrix" values="0 0 0 0 0 0 0 0 0 0 0 0 0 0 0 0 0 0 127 0" result="hardAlpha"/>
<feOffset dy="3.5241"/>
<feGaussianBlur stdDeviation="2.93675"/>
<feComposite in2="hardAlpha" operator="out"/>
<feColorMatrix type="matrix" values="0 0 0 0 0 0 0 0 0 0 0 0 0 0 0 0 0 0 0.15 0"/>
<feBlend mode="normal" in2="BackgroundImageFix" result="effect1_dropShadow_2654_2253"/>
<feBlend mode="normal" in="SourceGraphic" in2="effect1_dropShadow_2654_2253" result="shape"/>
</filter>
<linearGradient id="paint0_linear_2654_2253" x1="6" y1="43" x2="71.1246" y2="-12.7704" gradientUnits="userSpaceOnUse">
<stop stop-color="#FF7B00"/>
<stop offset="1" stop-color="#FFEA00"/>
</linearGradient>
<linearGradient id="paint1_linear_2654_2253" x1="-1.87149" y1="49.5" x2="68.6425" y2="-14.5186" gradientUnits="userSpaceOnUse">
<stop stop-color="#FF7B00"/>
<stop offset="1" stop-color="#FFEA00"/>
</linearGradient>
<linearGradient id="paint2_linear_2654_2253" x1="84.6544" y1="23.7" x2="47.2989" y2="47.6289" gradientUnits="userSpaceOnUse">
<stop stop-color="white" stop-opacity="0"/>
<stop offset="0.510417" stop-color="white" stop-opacity="0.69"/>
<stop offset="1" stop-color="white" stop-opacity="0"/>
</linearGradient>
<linearGradient id="paint3_linear_2654_2253" x1="32.6666" y1="61.9" x2="17.0846" y2="25.5017" gradientUnits="userSpaceOnUse">
<stop stop-color="white" stop-opacity="0"/>
<stop offset="0.510417" stop-color="white" stop-opacity="0.69"/>
<stop offset="1" stop-color="white" stop-opacity="0"/>
</linearGradient>
<linearGradient id="paint4_linear_2654_2253" x1="56.0306" y1="-18.3" x2="71.6127" y2="18.0983" gradientUnits="userSpaceOnUse">
<stop stop-color="white" stop-opacity="0"/>
<stop offset="0.510417" stop-color="white" stop-opacity="0.69"/>
<stop offset="1" stop-color="white" stop-opacity="0"/>
</linearGradient>
<linearGradient id="paint5_linear_2654_2253" x1="7.22313" y1="20.4" x2="53.4634" y2="-2.78386" gradientUnits="userSpaceOnUse">
<stop stop-color="white" stop-opacity="0"/>
<stop offset="0.575441" stop-color="white" stop-opacity="0.7"/>
<stop offset="1" stop-color="white" stop-opacity="0"/>
</linearGradient>
</defs>
</svg>
