<svg width="33" height="37" viewBox="0 0 33 37" fill="none" xmlns="http://www.w3.org/2000/svg">
<path d="M16.5 37C14.7632 37 16.8178 34.2827 8.25521 30.056C7.7861 29.8241 7.33087 29.5655 6.89179 29.2816C2.63132 26.535 0 21.5116 0 16.1045C0 7.2107 7.38679 0 16.5 0C25.6132 0 33 7.2107 33 16.1027C33 22.0606 29.7973 27.559 24.7587 30.0492C16.1874 34.2809 18.2368 37 16.5 37ZM16.5 22.5614C20.1665 22.5614 23.1 19.684 23.1 16.1853C23.1 12.6867 20.1665 9.8093 16.5 9.8093C12.8335 9.8093 9.9 12.6867 9.9 16.1853C9.9 19.684 12.8335 22.5614 16.5 22.5614Z" fill="#094DB3"/>
</svg>
