<svg width="22" height="20" viewBox="0 0 22 20" fill="none" xmlns="http://www.w3.org/2000/svg">
<path d="M17.647 16.6666C17.647 16.8876 17.5541 17.0996 17.3886 17.2559C17.2231 17.4122 16.9987 17.5 16.7647 17.5H4.41174C4.17772 17.5 3.95329 17.4122 3.78782 17.2559C3.62235 17.0996 3.52938 16.8876 3.52938 16.6666V9.16663H0.882324L9.99438 1.34329C10.1568 1.20369 10.3686 1.12633 10.5882 1.12633C10.8078 1.12633 11.0196 1.20369 11.182 1.34329L20.2941 9.16663H17.647V16.6666ZM9.42232 10.8333C8.84795 10.8333 8.38232 11.2989 8.38232 11.8733V17.5H12.5578V11.8733C12.5578 11.2989 12.0922 10.8333 11.5178 10.8333H9.42232Z" fill="white"/>
</svg>
