<svg width="14" height="14" viewBox="0 0 14 14" fill="none" xmlns="http://www.w3.org/2000/svg">
<path fill-rule="evenodd" clip-rule="evenodd" d="M5 0C4.53587 0 4.09075 0.184374 3.76256 0.512563C3.43437 0.840752 3.25 1.28587 3.25 1.75V3H2C1.46957 3 0.960859 3.21071 0.585786 3.58579C0.210714 3.96086 0 4.46957 0 5V12C0 12.5304 0.210714 13.0391 0.585786 13.4142C0.960859 13.7893 1.46957 14 2 14H12C12.5304 14 13.0391 13.7893 13.4142 13.4142C13.7893 13.0391 14 12.5304 14 12V5C14 4.46957 13.7893 3.96086 13.4142 3.58579C13.0391 3.21071 12.5304 3 12 3H10.75V1.75C10.75 1.28587 10.5656 0.840752 10.2374 0.512563C9.90925 0.184374 9.46413 0 9 0H5ZM9.25 3V1.75C9.25 1.6837 9.22366 1.62011 9.17678 1.57322C9.12989 1.52634 9.0663 1.5 9 1.5H5C4.9337 1.5 4.87011 1.52634 4.82322 1.57322C4.77634 1.62011 4.75 1.6837 4.75 1.75V3H9.25ZM2 4.5H12C12.1326 4.5 12.2598 4.55268 12.3536 4.64645C12.4473 4.74021 12.5 4.86739 12.5 5V6H1.5V5C1.5 4.86739 1.55268 4.74021 1.64645 4.64645C1.74021 4.55268 1.86739 4.5 2 4.5ZM1.5 7.5V12C1.5 12.1326 1.55268 12.2598 1.64645 12.3536C1.74021 12.4473 1.86739 12.5 2 12.5H12C12.1326 12.5 12.2598 12.4473 12.3536 12.3536C12.4473 12.2598 12.5 12.1326 12.5 12V7.5H8V9H6V7.5H1.5Z" fill="black"/>
</svg>
