<svg width="36" height="36" viewBox="0 0 36 36" fill="none" xmlns="http://www.w3.org/2000/svg">
<path d="M14.25 9.75V14.25H9.75V9.75H14.25ZM16.5 7.5H7.5V16.5H16.5V7.5ZM14.25 21.75V26.25H9.75V21.75H14.25ZM16.5 19.5H7.5V28.5H16.5V19.5ZM26.25 9.75V14.25H21.75V9.75H26.25ZM28.5 7.5H19.5V16.5H28.5V7.5ZM19.5 19.5H21.75V21.75H19.5V19.5ZM21.75 21.75H24V24H21.75V21.75ZM24 19.5H26.25V21.75H24V19.5ZM19.5 24H21.75V26.25H19.5V24ZM21.75 26.25H24V28.5H21.75V26.25ZM24 24H26.25V26.25H24V24ZM26.25 21.75H28.5V24H26.25V21.75ZM26.25 26.25H28.5V28.5H26.25V26.25ZM31.5 10.5C30.675 10.5 30 9.825 30 9V6H27C26.175 6 25.5 5.325 25.5 4.5C25.5 3.675 26.175 3 27 3H31.5C32.325 3 33 3.675 33 4.5V9C33 9.825 32.325 10.5 31.5 10.5ZM33 31.5V27C33 26.175 32.325 25.5 31.5 25.5C30.675 25.5 30 26.175 30 27V30H27C26.175 30 25.5 30.675 25.5 31.5C25.5 32.325 26.175 33 27 33H31.5C32.325 33 33 32.325 33 31.5ZM4.5 33H9C9.825 33 10.5 32.325 10.5 31.5C10.5 30.675 9.825 30 9 30H6V27C6 26.175 5.325 25.5 4.5 25.5C3.675 25.5 3 26.175 3 27V31.5C3 32.325 3.675 33 4.5 33ZM3 4.5V9C3 9.825 3.675 10.5 4.5 10.5C5.325 10.5 6 9.825 6 9V6H9C9.825 6 10.5 5.325 10.5 4.5C10.5 3.675 9.825 3 9 3H4.5C3.675 3 3 3.675 3 4.5Z" fill="white"/>
</svg>
