<svg width="16" height="16" viewBox="0 0 16 16" fill="none" xmlns="http://www.w3.org/2000/svg">
<path fill-rule="evenodd" clip-rule="evenodd" d="M12.5677 4.30078C12.6247 4.24384 12.6699 4.17622 12.7008 4.1018C12.7317 4.02737 12.7476 3.9476 12.7477 3.86702C12.7477 3.78644 12.7319 3.70665 12.7011 3.63218C12.6703 3.55772 12.6252 3.49005 12.5682 3.43304C12.5113 3.37603 12.4437 3.33079 12.3692 3.29991C12.2948 3.26903 12.215 3.25311 12.1345 3.25306C12.0539 3.25301 11.9741 3.26883 11.8996 3.29962C11.8252 3.33041 11.7575 3.37557 11.7005 3.43251L8.00022 7.13278L4.30102 3.43251C4.18588 3.31737 4.02972 3.25269 3.86689 3.25269C3.70406 3.25269 3.54789 3.31737 3.43275 3.43251C3.31761 3.54765 3.25293 3.70381 3.25293 3.86664C3.25293 4.02947 3.31761 4.18564 3.43275 4.30078L7.13302 7.99998L3.43275 11.6992C3.37574 11.7562 3.33052 11.8239 3.29966 11.8984C3.26881 11.9728 3.25293 12.0527 3.25293 12.1333C3.25293 12.2139 3.26881 12.2938 3.29966 12.3683C3.33052 12.4427 3.37574 12.5104 3.43275 12.5674C3.54789 12.6826 3.70406 12.7473 3.86689 12.7473C3.94751 12.7473 4.02735 12.7314 4.10184 12.7005C4.17633 12.6697 4.24401 12.6245 4.30102 12.5674L8.00022 8.86718L11.7005 12.5674C11.8156 12.6824 11.9717 12.747 12.1345 12.7469C12.2972 12.7468 12.4532 12.682 12.5682 12.5669C12.6832 12.4518 12.7478 12.2957 12.7477 12.1329C12.7476 11.9702 12.6828 11.8142 12.5677 11.6992L8.86742 7.99998L12.5677 4.30078Z" fill="black"/>
</svg>
