<svg width="24" height="24" viewBox="0 0 24 24" fill="none" xmlns="http://www.w3.org/2000/svg">
<path d="M14.15 21C14.0167 21 13.8873 20.975 13.762 20.925C13.6367 20.875 13.5243 20.8 13.425 20.7L7.4 14.425C7.28334 14.3083 7.18734 14.15 7.112 13.95C7.03667 13.75 6.99934 13.5667 7 13.4C7 13.0167 7.13767 12.6873 7.413 12.412C7.68834 12.1367 8.01734 11.9993 8.4 12H10.5C11.3833 12 12.146 11.7123 12.788 11.137C13.43 10.5617 13.8173 9.84934 13.95 9H7C6.71667 9 6.479 8.904 6.287 8.712C6.095 8.52 5.99934 8.28267 6 8C6 7.71667 6.096 7.479 6.288 7.287C6.48 7.095 6.71734 6.99934 7 7H13.65C13.3667 6.41667 12.9457 5.93734 12.387 5.562C11.8283 5.18667 11.1993 4.99934 10.5 5H7C6.71667 5 6.479 4.904 6.287 4.712C6.095 4.52 5.99934 4.28267 6 4C6 3.71667 6.096 3.479 6.288 3.287C6.48 3.095 6.71734 2.99934 7 3H17C17.2833 3 17.521 3.096 17.713 3.288C17.905 3.48 18.0007 3.71734 18 4C18 4.28334 17.904 4.521 17.712 4.713C17.52 4.905 17.2827 5.00067 17 5H14.75C14.9833 5.28334 15.1917 5.59167 15.375 5.925C15.5583 6.25834 15.7 6.61667 15.8 7H17C17.2833 7 17.521 7.096 17.713 7.288C17.905 7.48 18.0007 7.71734 18 8C18 8.28334 17.904 8.521 17.712 8.713C17.52 8.905 17.2827 9.00067 17 9H15.975C15.8417 10.4167 15.2583 11.6043 14.225 12.563C13.1917 13.5217 11.95 14.0007 10.5 14H9.775L14.875 19.3C15.175 19.6167 15.2377 19.9793 15.063 20.388C14.8883 20.7967 14.584 21.0007 14.15 21Z" fill="#306C00"/>
</svg>
