<svg width="177" height="121" viewBox="0 0 177 121" fill="none" xmlns="http://www.w3.org/2000/svg">
<path fill-rule="evenodd" clip-rule="evenodd" d="M46.6015 0.210119C28.6465 1.81701 17.9738 20.7176 26.0777 36.5564C27.7386 39.8025 30.5819 43.1541 33.6092 45.4346C35.1 46.5576 35.0836 46.2433 33.7978 49.0119C33.3776 49.9161 33.0341 50.7015 33.0341 50.7577C33.0341 50.8139 32.5572 51.8733 31.9742 53.1124C31.3912 54.3515 30.9142 55.3992 30.9142 55.4411C30.9142 55.483 30.6853 56.0209 30.4055 56.6362C30.1256 57.252 29.0853 59.568 28.0937 61.7833C27.1021 63.9986 25.9478 66.551 25.5286 67.4551C25.1094 68.3593 24.7665 69.1394 24.7665 69.1892C24.7665 69.239 24.4904 69.8824 24.1533 70.6191C23.8157 71.3557 23.3483 72.3881 23.114 72.9128C22.8793 73.4375 22.0106 75.3772 21.1833 77.2236C20.3555 79.0701 19.6787 80.668 19.6787 80.7745C19.6787 80.889 23.573 80.9669 29.1653 80.9647L38.6519 80.961L39.1681 79.7458C39.4522 79.0775 40.0961 77.6392 40.599 76.55C41.102 75.4609 41.5138 74.5345 41.5138 74.4911C41.5138 74.4482 41.943 73.4942 42.4677 72.3712C42.9924 71.2487 43.4217 70.2979 43.4217 70.2587C43.4217 70.22 43.7428 69.4892 44.135 68.6354C44.5272 67.7816 45.7801 64.9844 46.919 62.4193C48.0579 59.8542 49.2716 57.1354 49.616 56.3776C49.9605 55.6197 50.3702 54.7134 50.526 54.3636C50.6818 54.0139 51.144 52.9883 51.5536 52.0847L52.2977 50.4418H56.1273H59.9569V65.7051V80.9685H68.6485H77.3402V57.5504V34.1318L62.2358 34.0724L47.1315 34.0126L45.6815 33.2923C38.8766 29.9116 39.4214 20.7382 46.6015 17.799C47.2152 17.5472 49.934 17.482 62.3439 17.4216L77.3449 17.348L77.2893 8.72101L77.2342 0.0940529L62.8188 0.071794C54.8904 0.0590745 47.5926 0.121613 46.6015 0.210119ZM98.4306 0.237149C98.3707 0.391902 98.3474 4.2867 98.3776 8.89219L98.4332 17.2653L113.379 17.3718C125.424 17.4571 128.447 17.5345 128.96 17.7688C129.31 17.9288 129.834 18.1657 130.126 18.2956C136.061 20.9311 136.522 29.7595 130.888 32.9081C128.83 34.0581 129.598 34.0051 113.485 34.1185L98.4332 34.2245L98.3792 57.5986L98.3251 80.9732L107.071 80.9176L115.816 80.8625L115.871 65.6521L115.925 50.4418H119.75H123.576L123.901 51.2368C124.08 51.674 124.6 52.8283 125.056 53.8013C125.512 54.7749 125.886 55.6064 125.886 55.6499C125.886 55.6934 126.116 56.2329 126.397 56.8482C126.679 57.464 127.288 58.826 127.753 59.8754C128.217 60.9247 128.882 62.4034 129.231 63.1613C129.579 63.9191 130.458 65.8747 131.182 67.5071C131.906 69.1394 132.776 71.078 133.114 71.8147C133.452 72.5514 133.73 73.1868 133.73 73.2266C133.73 73.2663 134.055 73.9993 134.452 74.8547C135.17 76.4027 136.049 78.3488 136.806 80.0675L137.203 80.9685H146.702C151.926 80.9685 156.201 80.9324 156.201 80.8884C156.201 80.7777 155.618 79.3791 155.042 78.1066C154.777 77.5236 154.369 76.6173 154.133 76.0927C153.01 73.5885 152.71 72.9245 152.145 71.6886C151.81 70.9567 151.537 70.3239 151.537 70.2815C151.537 70.2396 151.12 69.3116 150.609 68.2199C150.1 67.1281 149.18 65.0904 148.566 63.6912C147.952 62.2921 147.233 60.6704 146.971 60.0874C146.708 59.5044 145.901 57.6919 145.177 56.0596C144.453 54.4272 143.49 52.2951 143.036 51.3221C142.581 50.3485 142.209 49.5165 142.209 49.4725C142.209 49.4285 141.923 48.7676 141.573 48.0039C140.769 46.2481 140.741 46.3928 142.05 45.5205C151.803 39.0229 155.196 24.8482 149.635 13.8385C146.112 6.86556 139.974 2.34486 131.504 0.485175C129.411 0.0256854 98.6002 -0.205382 98.4306 0.237149ZM46.7075 96.8354C37.5305 99.8674 36.4493 115.53 45.1303 119.683C46.8941 120.526 47.2576 120.611 49.1449 120.611C51.1281 120.611 52.4594 120.346 54.7102 119.505L55.2931 119.287V116.557C55.2931 115.055 55.2147 113.827 55.1188 113.827C55.0229 113.827 54.4139 114.114 53.7647 114.466C48.2688 117.442 44.0068 114.952 43.967 108.739C43.9262 102.323 47.7813 99.877 53.4668 102.712C54.2692 103.112 55.0085 103.439 55.1098 103.439C55.2105 103.439 55.2931 102.211 55.2931 100.71V97.9802L54.2862 97.5541C51.5759 96.4072 48.8009 96.1438 46.7075 96.8354ZM0.227009 96.8317C0.0166081 96.9653 -0.0284407 99.4705 0.0150174 108.647L0.0696053 120.293L2.17202 120.354C4.80759 120.431 4.63588 120.762 4.59931 115.676C4.55851 110.047 4.30041 110.033 7.72723 115.841C10.6919 120.865 10.1524 120.391 12.9125 120.396C15.3896 120.399 15.5089 120.362 15.1496 119.695C14.7473 118.947 11.8563 114.061 10.8525 112.431C9.7316 110.612 9.73266 110.632 10.7221 109.888C14.7028 106.898 14.5491 100.015 10.4476 97.5959C9.09722 96.7999 1.20694 96.2095 0.227009 96.8317ZM23.1766 97.8424C22.4521 99.4811 22.5348 99.6135 24.2895 99.621C25.2313 99.6247 25.0628 100.293 22.018 108.633C21.7626 109.333 21.4748 110.144 21.3784 110.435C21.2819 110.727 20.6147 112.635 19.896 114.675C19.1779 116.715 18.4582 118.76 18.2976 119.218C17.8969 120.362 17.9552 120.399 20.1955 120.399C22.5024 120.399 22.3827 120.492 23.1919 118.067C24.0378 115.534 23.617 115.735 28.063 115.735H31.9434L32.6043 117.484C32.9684 118.446 33.368 119.495 33.4936 119.816C33.721 120.397 33.7289 120.399 35.8033 120.399C38.3784 120.399 38.327 120.461 37.47 118.385C37.3741 118.152 37.1542 117.532 36.9819 117.007C36.8097 116.482 36.3216 115.099 35.8965 113.933C35.472 112.767 34.8371 111.002 34.4868 110.011C34.136 109.02 33.4189 107.017 32.8932 105.559C32.3674 104.102 31.6986 102.242 31.4071 101.426C31.1161 100.609 30.8225 99.7985 30.7552 99.6236C30.6879 99.4487 30.4256 98.7333 30.1723 98.0337L29.7112 96.7618L26.7089 96.7029L23.7066 96.6441L23.1766 97.8424ZM76.6337 96.7973C76.5558 96.8746 76.4922 102.22 76.4922 108.676V120.413L78.7711 120.353L81.05 120.293L81.1072 115.788C81.1703 110.818 81.28 110.48 82.2806 112.184C83.0978 113.577 87.0567 119.836 87.3085 120.134C87.5332 120.4 92.6035 120.54 92.6035 120.281C92.6035 120.061 91.6151 118.4 89.3627 114.833C86.5729 110.416 86.6349 110.603 87.7219 109.884C91.8615 107.145 91.6787 100.1 87.4023 97.5944C86.0985 96.8301 77.2554 96.1756 76.6337 96.7973ZM96.5168 96.9207C96.4606 97.0665 96.44 102.385 96.4702 108.739L96.5253 120.293H102.673H108.821L108.881 118.019L108.941 115.745L105.171 115.687L101.401 115.629L101.341 113.244L101.281 110.859L104.839 110.856C109.224 110.852 108.957 111.013 108.882 108.404L108.821 106.301L105.111 106.195L101.401 106.089V103.757V101.426L105.164 101.368L108.927 101.31V99.1117C108.927 97.3023 108.867 96.8905 108.591 96.7845C107.887 96.5143 96.6233 96.6414 96.5168 96.9207ZM113.062 96.8948C113.001 97.0548 112.975 102.385 113.005 108.739L113.061 120.293H115.286H117.512L117.57 115.821L117.627 111.349L119.835 111.139C122.498 110.887 124.402 110.077 125.455 108.749C128.496 104.908 127.305 98.8059 123.202 97.2101C121.836 96.6791 113.247 96.412 113.062 96.8948ZM133.541 97.5567C132.715 99.4858 132.776 99.6135 134.525 99.621C135.4 99.6242 135.397 99.7259 134.453 102.429C134.035 103.626 133.614 104.844 133.517 105.135C133.42 105.427 132.991 106.619 132.563 107.785C132.135 108.951 131.611 110.43 131.397 111.071C131.184 111.712 130.419 113.907 129.698 115.947C127.995 120.765 127.91 120.281 130.468 120.353L132.612 120.413L132.838 119.823C132.963 119.498 133.336 118.47 133.669 117.537L134.272 115.841H138.28H142.287L142.637 116.795C142.83 117.32 143.06 117.94 143.148 118.173C143.237 118.406 143.411 118.883 143.537 119.233C143.938 120.353 144.039 120.399 146.122 120.399C148.322 120.399 148.385 120.373 148.146 119.588C147.901 118.787 146.669 115.289 146.452 114.781C146.259 114.329 145.623 112.576 144.53 109.481C144.159 108.432 143.443 106.429 142.939 105.029C142.435 103.63 141.587 101.259 141.054 99.7593C140.521 98.26 140.033 96.9483 139.969 96.8444C139.905 96.7406 138.519 96.6558 136.889 96.6558H133.927L133.541 97.5567ZM152.224 96.8317C152.014 96.9653 151.969 99.4705 152.012 108.647L152.067 120.293H154.399H156.731L156.785 108.647C156.829 99.4705 156.784 96.9653 156.573 96.8317C156.427 96.7384 155.448 96.6621 154.399 96.6621C153.349 96.6621 152.37 96.7384 152.224 96.8317ZM161.34 96.8169C161.129 96.9621 161.084 99.4768 161.128 108.647L161.182 120.293H163.514H165.846L165.903 115.788C165.946 112.388 166.025 111.286 166.221 111.295C166.365 111.301 167.484 112.937 168.708 114.929C169.932 116.922 171.205 118.968 171.537 119.475L172.14 120.399H174.664C177.819 120.399 177.847 120.813 174.326 115.28C171.093 110.199 171.274 110.602 172.047 110.214C176.853 107.799 176.378 99.1541 171.333 97.2112C170.195 96.7729 161.879 96.4448 161.34 96.8169ZM7.39123 101.373C10.3305 102.854 9.1269 107.043 5.76208 107.043H4.6274V104.111C4.6274 102.498 4.691 101.114 4.76891 101.037C5.06993 100.736 6.48921 100.917 7.39123 101.373ZM84.3454 101.391C87.3578 102.832 85.7848 107.202 82.3267 107L81.262 106.937L81.2021 104.193C81.1698 102.683 81.1947 101.312 81.2588 101.146C81.4125 100.745 83.3093 100.896 84.3454 101.391ZM120.401 101.195C123.617 102.542 122.415 107.186 118.898 106.999L117.724 106.937L117.664 104.193C117.632 102.683 117.653 101.324 117.711 101.172C117.854 100.8 119.491 100.814 120.401 101.195ZM168.783 101.306C171.961 102.668 170.733 107.04 167.171 107.043L165.952 107.043V103.969V100.896H166.889C167.404 100.896 168.256 101.081 168.783 101.306ZM29.4165 108.473C30.601 111.749 30.7091 111.521 27.9994 111.45C26.1248 111.4 25.7258 111.333 25.7517 111.071C25.7909 110.672 27.4614 105.835 27.7868 105.179C28.0656 104.617 27.9029 104.287 29.4165 108.473ZM138.496 105.294C139.073 106.749 140.513 110.965 140.513 111.203C140.513 111.433 140.039 111.495 138.287 111.495H136.062V110.872C136.062 110.529 136.157 110.189 136.274 110.117C136.39 110.045 136.486 109.772 136.486 109.511C136.486 109.25 136.565 108.945 136.662 108.835C136.76 108.724 137.11 107.799 137.442 106.778C138.056 104.888 138.234 104.637 138.496 105.294Z" fill="white"/>
</svg>
