<svg width="32" height="32" viewBox="0 0 32 32" fill="none" xmlns="http://www.w3.org/2000/svg">
<path d="M17.3333 15.4667L20.6667 18.8C20.9111 19.0444 21.0333 19.3556 21.0333 19.7333C21.0333 20.1111 20.9111 20.4222 20.6667 20.6667C20.4222 20.9111 20.1111 21.0333 19.7333 21.0333C19.3556 21.0333 19.0445 20.9111 18.8 20.6667L15.0667 16.9333C14.9333 16.8 14.8333 16.6502 14.7667 16.484C14.7 16.3178 14.6667 16.1453 14.6667 15.9667V10.6667C14.6667 10.2889 14.7947 9.972 15.0507 9.716C15.3067 9.46 15.6231 9.33244 16 9.33333C16.3778 9.33333 16.6947 9.46133 16.9507 9.71733C17.2067 9.97333 17.3342 10.2898 17.3333 10.6667V15.4667ZM16 28C13.3111 28 10.9 27.2053 8.76667 25.616C6.63334 24.0267 5.2 21.9547 4.46667 19.4C4.35556 19 4.39467 18.6222 4.584 18.2667C4.77334 17.9111 5.06756 17.6889 5.46667 17.6C5.84445 17.5111 6.18356 17.5947 6.484 17.8507C6.78445 18.1067 6.98978 18.4231 7.1 18.8C7.67778 20.7556 8.79467 22.3333 10.4507 23.5333C12.1067 24.7333 13.9564 25.3333 16 25.3333C18.6 25.3333 20.8058 24.4276 22.6173 22.616C24.4289 20.8044 25.3342 18.5991 25.3333 16C25.3333 13.4 24.4276 11.1942 22.616 9.38267C20.8044 7.57111 18.5991 6.66578 16 6.66667C14.4667 6.66667 13.0333 7.02222 11.7 7.73333C10.3667 8.44444 9.24445 9.42222 8.33334 10.6667H10.6667C11.0444 10.6667 11.3613 10.7947 11.6173 11.0507C11.8733 11.3067 12.0009 11.6231 12 12C12 12.3778 11.872 12.6947 11.616 12.9507C11.36 13.2067 11.0436 13.3342 10.6667 13.3333H5.33334C4.95556 13.3333 4.63867 13.2053 4.38267 12.9493C4.12667 12.6933 3.99912 12.3769 4 12V6.66667C4 6.28889 4.128 5.972 4.384 5.716C4.64 5.46 4.95645 5.33244 5.33334 5.33333C5.71112 5.33333 6.028 5.46133 6.284 5.71733C6.54 5.97333 6.66756 6.28978 6.66667 6.66667V8.46667C7.8 7.04444 9.18356 5.94444 10.8173 5.16667C12.4511 4.38889 14.1787 4 16 4C17.6667 4 19.228 4.31689 20.684 4.95067C22.14 5.58444 23.4067 6.43956 24.484 7.516C25.5613 8.59422 26.4169 9.86089 27.0507 11.316C27.6845 12.7711 28.0009 14.3324 28 16C28 17.6667 27.6831 19.228 27.0493 20.684C26.4156 22.14 25.5605 23.4067 24.484 24.484C23.4058 25.5613 22.1391 26.4169 20.684 27.0507C19.2289 27.6844 17.6676 28.0009 16 28Z" fill="white"/>
</svg>
