<svg width="17" height="20" viewBox="0 0 17 20" fill="none" xmlns="http://www.w3.org/2000/svg">
<path d="M6.41724 14H1.41724V19M10.4172 6H15.4172V1M1.00024 7.003C1.56104 5.61545 2.49981 4.41302 3.70987 3.53237C4.91993 2.65171 6.35276 2.12815 7.84553 2.02118C9.3383 1.9142 10.8311 2.2281 12.1544 2.92721C13.4777 3.62631 14.5783 4.68259 15.3312 5.976M15.8352 12.997C15.2746 14.3848 14.3358 15.5875 13.1256 16.4683C11.9155 17.3492 10.4825 17.8729 8.98951 17.9798C7.49655 18.0868 6.00352 17.7728 4.68013 17.0735C3.35674 16.3742 2.25607 15.3177 1.50324 14.024" stroke="white" stroke-width="2" stroke-linecap="round" stroke-linejoin="round"/>
</svg>
