<svg width="29" height="15" viewBox="0 0 29 15" fill="none" xmlns="http://www.w3.org/2000/svg">
<path d="M28 8.36395C28.5523 8.36395 29 7.91624 29 7.36395C29 6.81167 28.5523 6.36395 28 6.36395L28 8.36395ZM0.292891 6.65684C-0.0976333 7.04737 -0.0976334 7.68053 0.29289 8.07106L6.65685 14.435C7.04738 14.8255 7.68054 14.8255 8.07107 14.435C8.46159 14.0445 8.46159 13.4113 8.07107 13.0208L2.41421 7.36395L8.07107 1.7071C8.46159 1.31657 8.46159 0.683408 8.07107 0.292883C7.68054 -0.0976413 7.04738 -0.0976414 6.65685 0.292883L0.292891 6.65684ZM28 6.36395L0.999998 6.36395L0.999998 8.36395L28 8.36395L28 6.36395Z" fill="white"/>
</svg>
