<svg width="18" height="18" viewBox="0 0 18 18" fill="none" xmlns="http://www.w3.org/2000/svg">
<g clip-path="url(#clip0_2583_2323)">
<path d="M17.1636 0.0479596C17.2739 0.000453793 17.396 -0.0128572 17.5139 0.00974888C17.6319 0.032355 17.7403 0.0898378 17.8252 0.17476C17.9102 0.259682 17.9676 0.368134 17.9903 0.486085C18.0129 0.604036 17.9995 0.726057 17.952 0.83636L10.752 17.6364C10.7041 17.7482 10.6233 17.8429 10.5203 17.9077C10.4174 17.9726 10.2971 18.0046 10.1755 17.9995C10.0539 17.9945 9.93673 17.9525 9.83952 17.8793C9.74232 17.8061 9.66968 17.705 9.63124 17.5896L7.32604 10.674L0.41044 8.36996C0.294588 8.33175 0.193134 8.25914 0.119604 8.16181C0.0460739 8.06447 0.00395966 7.94703 -0.00112343 7.82515C-0.00620842 7.70327 0.02598 7.58273 0.0911503 7.47961C0.156319 7.37649 0.251373 7.29568 0.36364 7.24796L17.1636 0.0479596Z" fill="white"/>
</g>
<defs>
<clipPath id="clip0_2583_2323">
<rect width="18" height="18" fill="white" transform="matrix(-1 0 0 1 18 0)"/>
</clipPath>
</defs>
</svg>
