<svg width="32" height="32" viewBox="0 0 32 32" fill="none" xmlns="http://www.w3.org/2000/svg">
<path d="M13.3613 1.36133H21.3613V4.02799H13.3613V1.36133ZM26.72 9.88L28.632 7.96799L26.7467 6.08266L24.836 7.99333C22.7426 6.31575 20.1468 5.38901 17.4643 5.36145C14.7817 5.33389 12.1675 6.20711 10.04 7.84133L11.9333 9.76133C13.5152 8.63781 15.4064 8.03224 17.3467 8.028L17.36 8.02933V17.336L23.964 23.9467C22.6603 25.2565 20.9971 26.1499 19.1851 26.5136C17.3732 26.8773 15.494 26.695 13.7858 25.9897C12.0776 25.2845 10.6171 24.088 9.58948 22.552C8.56186 21.0159 8.01331 19.2094 8.01335 17.3613H12.0133L6.68001 12.028L1.34668 17.3613H5.34668C5.34486 19.2789 5.80261 21.1689 6.68156 22.8732C7.56051 24.5774 8.83508 26.0462 10.3985 27.1565C11.9619 28.2668 13.7686 28.9862 15.6673 29.2546C17.566 29.523 19.5013 29.3324 21.3112 28.6989C23.1211 28.0654 24.7528 27.0074 26.0696 25.6135C27.3865 24.2196 28.3501 22.5304 28.8798 20.6875C29.4095 18.8445 29.4898 16.9015 29.114 15.0211C28.7382 13.1408 27.9173 11.3778 26.72 9.88Z" fill="white"/>
</svg>
