<svg width="32" height="32" viewBox="0 0 32 32" fill="none" xmlns="http://www.w3.org/2000/svg">
<path d="M26.6667 8H5.33333V5.33334H26.6667V8ZM17.3333 20.6667C17.3333 22.1867 17.9067 23.8133 18.6667 25.3333V26.6667H5.33333V18.6667H4V16L5.33333 9.33334H26.6667L27.6 14C26.6667 13.5733 25.7067 13.3333 24.6667 13.3333C20.6667 13.3333 17.3333 16.6667 17.3333 20.6667ZM16 18.6667H8V24H16V18.6667ZM29.3333 20.6667C29.3333 24.1333 24.6667 29.3333 24.6667 29.3333C24.6667 29.3333 20 24.1333 20 20.6667C20 18.1333 22.1333 16 24.6667 16C27.2 16 29.3333 18.1333 29.3333 20.6667ZM26.2667 20.8C26.2667 20 25.4667 19.2 24.6667 19.2C23.8667 19.2 23.0667 19.8667 23.0667 20.8C23.0667 21.6 23.7333 22.4 24.6667 22.4C25.6 22.4 26.4 21.6 26.2667 20.8Z" fill="white"/>
</svg>
