<svg width="12" height="7" viewBox="0 0 12 7" fill="none" xmlns="http://www.w3.org/2000/svg">
<path d="M5.95797 6.99995C5.81548 6.99995 5.67726 6.97323 5.54332 6.9198C5.40937 6.86636 5.29823 6.79511 5.20988 6.70606L0.293891 1.79006C0.0979632 1.59414 0 1.34477 0 1.04198C0 0.73918 0.0979632 0.489818 0.293891 0.293891C0.489818 0.0979632 0.73918 0 1.04198 0C1.34477 0 1.59414 0.0979632 1.79006 0.293891L5.95797 4.4618L10.1259 0.293891C10.3218 0.0979632 10.5712 0 10.874 0C11.1768 0 11.4261 0.0979632 11.622 0.293891C11.818 0.489818 11.9159 0.73918 11.9159 1.04198C11.9159 1.34477 11.818 1.59414 11.622 1.79006L6.70606 6.70606C6.59919 6.81293 6.48341 6.8888 6.35873 6.93369C6.23405 6.97857 6.10046 7.00066 5.95797 6.99995Z" fill="#0B0B95"/>
</svg>
