<svg width="37" height="37" viewBox="0 0 37 37" fill="none" xmlns="http://www.w3.org/2000/svg">
<g clip-path="url(#clip0_1896_1533)">
<path opacity="0.978" fill-rule="evenodd" clip-rule="evenodd" d="M36.721 19.2C36.7158 19.6043 36.7105 20.0085 36.7053 20.4128C36.5534 21.0426 36.2139 21.5496 35.6866 21.9337C34.6885 22.1224 33.6874 22.2878 32.6834 22.4299C32.6642 21.2791 32.2005 20.3574 31.2922 19.6647C29.6167 18.7184 28.1273 18.9488 26.8237 20.356C26.2742 21.1273 26.061 21.9807 26.184 22.9164C20.6896 22.9305 15.1952 22.9545 9.70073 22.988C10.0349 20.8806 9.19652 19.5021 7.18567 18.8527C5.23258 18.6455 3.9494 19.4732 3.33613 21.3358C3.22635 21.7849 3.18482 22.2363 3.21154 22.6898C2.32501 22.5859 1.4717 22.3608 0.651612 22.0145C0.432767 21.5997 0.271857 21.1695 0.168883 20.7239C0.173817 20.3434 0.178751 19.9629 0.183685 19.5824C0.369535 19.0373 0.578758 18.4931 0.811356 17.9495C1.08193 17.7297 1.38149 17.5552 1.71005 17.426C3.92479 16.6715 6.1913 16.1301 8.50958 15.8017C10.4874 14.9864 12.4488 14.1319 14.3937 13.238C16.5539 12.3368 18.8071 11.9022 21.1534 11.9342C23.7767 12.0191 26.3274 12.4922 28.8054 13.3535C30.1068 13.8698 31.4083 14.3862 32.7097 14.9025C33.722 15.1664 34.7417 15.3937 35.769 15.5844C35.9228 15.6458 36.0284 15.7542 36.0859 15.9096C36.0997 16.6709 36.1137 17.4321 36.1276 18.1934C36.3832 18.5033 36.5811 18.8388 36.721 19.2ZM20.0347 12.9187C20.2265 12.9095 20.4166 12.9238 20.605 12.9617C20.3363 13.9687 20.0616 14.9759 19.7809 15.9835C19.5699 16.0394 19.3554 16.0723 19.1374 16.0822C17.329 16.1118 15.5209 16.1478 13.7133 16.1903C13.7776 15.7611 13.6635 15.391 13.3709 15.0799C14.2555 14.3445 15.261 13.8343 16.3875 13.5492C17.5975 13.2452 18.8132 13.035 20.0347 12.9187ZM21.6755 12.9399C23.2077 12.9224 24.7032 13.144 26.1621 13.6046C26.4067 14.0002 26.6513 14.3958 26.8959 14.7915C26.8709 15.151 26.8069 15.507 26.7037 15.8592C24.8467 15.9398 22.9912 15.9634 21.1373 15.9298C21.3474 14.9391 21.5268 13.9424 21.6755 12.9399ZM26.9436 13.8645C27.7867 14.2279 28.6139 14.6311 29.4252 15.074C29.7203 15.2678 29.8594 15.5432 29.8426 15.9C29.3171 15.9168 28.7942 15.8861 28.2741 15.8083C27.799 15.1771 27.3555 14.5292 26.9436 13.8645ZM6.23836 20.3745C6.42176 21.2753 6.20635 21.3795 5.59213 20.6872C5.79552 20.5415 6.01093 20.4372 6.23836 20.3745ZM6.80908 20.3819C7.0712 20.4333 7.30761 20.5434 7.51832 20.7121C6.93016 21.3951 6.69375 21.285 6.80908 20.3819ZM29.0673 20.6705C29.1341 20.9184 29.1545 21.1803 29.1284 21.4562C28.8704 21.3738 28.6584 21.2165 28.4924 20.9841C28.6794 20.8585 28.8711 20.7539 29.0673 20.6705ZM29.7093 20.6788C29.9714 20.7303 30.2078 20.8404 30.4186 21.0091C29.8304 21.6921 29.594 21.582 29.7093 20.6788ZM5.159 21.074C5.88467 21.6661 5.78678 21.8789 4.86532 21.7123C4.9448 21.489 5.04269 21.2763 5.159 21.074ZM7.86994 21.1091C8.45327 21.7892 8.31966 22.0015 7.46924 21.7461C7.42258 21.6742 7.4235 21.6028 7.47201 21.5321C7.61928 21.4006 7.75189 21.2596 7.86994 21.1091ZM28.0592 21.371C28.7626 21.9331 28.6647 22.1459 27.7656 22.0093C27.8106 21.7687 27.9085 21.5559 28.0592 21.371ZM30.7702 21.4061C30.9398 21.6109 31.0318 21.85 31.0463 22.1232C30.8085 22.1201 30.5707 22.117 30.3329 22.114C30.323 22.0159 30.3361 21.9209 30.3723 21.8291C30.5195 21.6975 30.6521 21.5566 30.7702 21.4061Z" fill="#000052"/>
<path opacity="0.935" fill-rule="evenodd" clip-rule="evenodd" d="M6.39617 19.2349C8.20419 19.3436 9.16701 20.2956 9.28458 22.0908C9.14699 23.7981 8.2193 24.7256 6.50144 24.8731C4.81987 24.6775 3.89258 23.7379 3.71958 22.0543C3.88753 20.4119 4.77973 19.4721 6.39617 19.2349ZM6.23869 20.3745C6.01126 20.4373 5.79585 20.5415 5.59246 20.6872C6.20668 21.3796 6.42209 21.2754 6.23869 20.3745ZM6.80941 20.3819C6.69408 21.2851 6.93049 21.3952 7.51865 20.7122C7.30794 20.5435 7.07153 20.4334 6.80941 20.3819ZM5.15933 21.0741C5.04302 21.2763 4.94512 21.4891 4.86565 21.7124C5.78711 21.879 5.885 21.6662 5.15933 21.0741ZM7.87027 21.1092C7.75222 21.2597 7.61961 21.4006 7.47234 21.5322C7.42383 21.6029 7.42291 21.6742 7.46957 21.7462C8.31999 22.0016 8.4536 21.7893 7.87027 21.1092ZM4.85825 22.2831C5.76413 22.1913 5.86805 22.4304 5.17003 23.0007C5.00741 22.7868 4.90348 22.5476 4.85825 22.2831ZM7.49784 22.3174C7.73698 22.3087 7.9746 22.3237 8.21078 22.3623C8.14906 22.6094 8.03912 22.8339 7.88096 23.0359C7.74013 22.8913 7.5993 22.7468 7.45847 22.6023C7.41848 22.4999 7.43163 22.4048 7.49784 22.3174ZM5.99136 22.94C6.08584 22.9291 6.16876 22.9539 6.24013 23.0146C6.28461 23.253 6.28152 23.4908 6.23088 23.728C5.98377 23.6663 5.75925 23.5563 5.55731 23.3982C5.71656 23.2549 5.86125 23.1022 5.99136 22.94ZM6.84745 22.9511C7.10547 23.0335 7.31748 23.1908 7.4835 23.4231C7.27753 23.576 7.05022 23.6801 6.8016 23.7354C6.75118 23.4668 6.76647 23.2054 6.84745 22.9511Z" fill="#FDB500"/>
<path opacity="0.931" fill-rule="evenodd" clip-rule="evenodd" d="M29.2965 19.5319C31.0851 19.6326 32.048 20.5727 32.1854 22.3521C32.0346 24.0817 31.0949 25.0209 29.3661 25.1697C27.3187 24.8202 26.4424 23.6196 26.7371 21.5679C27.1625 20.3427 28.0157 19.664 29.2965 19.5319ZM29.0677 20.6706C28.8715 20.754 28.6799 20.8586 28.4928 20.9842C28.6588 21.2166 28.8708 21.3739 29.1288 21.4563C29.1549 21.1804 29.1345 20.9185 29.0677 20.6706ZM29.7097 20.6789C29.5944 21.5821 29.8308 21.6922 30.419 21.0092C30.2082 20.8405 29.9719 20.7304 29.7097 20.6789ZM28.0597 21.371C27.9089 21.556 27.811 21.7688 27.766 22.0094C28.6651 22.146 28.763 21.9332 28.0597 21.371ZM30.7706 21.4062C30.6525 21.5566 30.5199 21.6976 30.3727 21.8292C30.3365 21.9209 30.3234 22.016 30.3333 22.1141C30.5711 22.1171 30.8089 22.1202 31.0467 22.1233C31.0323 21.85 30.9402 21.611 30.7706 21.4062ZM27.7586 22.5801C28.6386 22.5179 28.7425 22.7571 28.0703 23.2977C27.8765 23.0985 27.7726 22.8594 27.7586 22.5801ZM30.3268 22.6134C30.5646 22.6165 30.8024 22.6196 31.0402 22.6227C31.0156 22.8796 30.9293 23.1164 30.7813 23.3328C30.5205 23.1519 30.369 22.9121 30.3268 22.6134ZM28.8917 23.237C28.963 23.2379 29.0344 23.2388 29.1057 23.2398C29.1141 23.5026 29.0988 23.764 29.0599 24.024C28.8441 23.9425 28.6433 23.8329 28.4576 23.6952C28.6169 23.5519 28.7616 23.3992 28.8917 23.237ZM29.7478 23.2481C30.5105 23.5548 30.4953 23.8162 29.7019 24.0324C29.6515 23.7638 29.6668 23.5023 29.7478 23.2481Z" fill="#FDB500"/>
</g>
<defs>
<clipPath id="clip0_1896_1533">
<rect width="36" height="36" fill="white" transform="translate(0.47366) scale(1.0147) rotate(0.742972)"/>
</clipPath>
</defs>
</svg>
