<svg width="108" height="20" viewBox="0 0 108 20" fill="none" xmlns="http://www.w3.org/2000/svg">
<path d="M9.99984 14.3915L15.1498 17.4998L13.7832 11.6415L18.3332 7.69984L12.3415 7.1915L9.99984 1.6665L7.65817 7.1915L1.6665 7.69984L6.2165 11.6415L4.84984 17.4998L9.99984 14.3915Z" fill="#FDB500"/>
<path d="M31.9998 14.3915L37.1498 17.4998L35.7832 11.6415L40.3332 7.69984L34.3415 7.1915L31.9998 1.6665L29.6582 7.1915L23.6665 7.69984L28.2165 11.6415L26.8498 17.4998L31.9998 14.3915Z" fill="#FDB500"/>
<path d="M53.9998 14.3915L59.1498 17.4998L57.7832 11.6415L62.3332 7.69984L56.3415 7.1915L53.9998 1.6665L51.6582 7.1915L45.6665 7.69984L50.2165 11.6415L48.8498 17.4998L53.9998 14.3915Z" fill="#FDB500"/>
<path d="M75.9998 14.3915L81.1498 17.4998L79.7832 11.6415L84.3332 7.69984L78.3415 7.1915L75.9998 1.6665L73.6582 7.1915L67.6665 7.69984L72.2165 11.6415L70.8498 17.4998L75.9998 14.3915Z" fill="#FDB500"/>
<path d="M97.9998 14.3915L103.15 17.4998L101.783 11.6415L106.333 7.69984L100.342 7.1915L97.9998 1.6665L95.6582 7.1915L89.6665 7.69984L94.2165 11.6415L92.8498 17.4998L97.9998 14.3915Z" fill="#FDB500"/>
</svg>
