<svg width="37" height="37" viewBox="0 0 37 37" fill="none" xmlns="http://www.w3.org/2000/svg">
<path d="M18.49 36.9999C28.7017 36.9999 36.98 28.7172 36.98 18.5C36.98 8.28271 28.7017 0 18.49 0C8.27825 0 0 8.28271 0 18.5C0 28.7172 8.27825 36.9999 18.49 36.9999Z" fill="white"/>
<path d="M18.4904 37C15.0539 37.0056 11.6844 36.0484 8.76354 34.2368L21.1486 0.189855C25.7768 0.858301 29.9799 3.25647 32.9117 6.90144C35.8434 10.5464 37.2859 15.1674 36.9488 19.8339C36.6116 24.5004 34.5198 28.8658 31.0946 32.051C27.6694 35.2361 23.1652 37.0045 18.489 37H18.4904Z" fill="#6E7BF2"/>
<path d="M12.2179 18.4187C12.2231 18.1074 12.1912 17.7967 12.1229 17.4929H7.86748V19.1754H10.3659C10.3189 19.4705 10.2126 19.7529 10.0536 20.0058C9.89459 20.2587 9.68604 20.4767 9.44053 20.6468L9.43164 20.7023L10.7765 21.7453L10.8698 21.7542C11.3149 21.3234 11.6649 20.8041 11.8971 20.2298C12.1294 19.6554 12.2388 19.0387 12.2183 18.4195" fill="#4285F4"/>
<path d="M7.86744 22.8528C8.9715 22.8838 10.0455 22.4908 10.869 21.7543L9.43977 20.6451C8.97624 20.9562 8.42715 21.1147 7.86921 21.0984C7.29601 21.0946 6.73852 20.9105 6.27565 20.5722C5.81278 20.2339 5.46798 19.7585 5.29007 19.2133L5.23633 19.2186L3.83767 20.3011L3.81988 20.3513C4.19521 21.1037 4.77287 21.7364 5.4879 22.1783C6.20293 22.6202 7.02699 22.8538 7.86744 22.8528Z" fill="#34A853"/>
<path d="M5.28798 19.2158C5.1888 18.9269 5.13794 18.6236 5.13744 18.3181C5.13966 18.013 5.18924 17.7102 5.28442 17.4204L5.28265 17.3613L3.86584 16.261L3.81922 16.2823C3.50131 16.9137 3.33571 17.6109 3.33571 18.3179C3.33571 19.0249 3.50131 19.7221 3.81922 20.3535L5.28798 19.214" fill="#FD5602"/>
<path d="M7.86731 15.5377C8.51688 15.527 9.14512 15.7696 9.61901 16.2142L10.8984 14.9655C10.0777 14.1956 8.99118 13.7732 7.86624 13.7865C7.02592 13.7861 6.20206 14.0197 5.4869 14.4612C4.77174 14.9026 4.19351 15.5346 3.81691 16.2862L5.28176 17.4256C5.46147 16.8802 5.80771 16.4048 6.27168 16.0667C6.73566 15.7285 7.29399 15.5445 7.86802 15.5405" fill="#EB4335"/>
<path d="M19.3515 18.8227V22.1179H18.2984V13.9771H21.0904C21.4234 13.9699 21.7545 14.0284 22.0649 14.1492C22.3753 14.2701 22.6588 14.4509 22.8994 14.6815C23.1256 14.89 23.3085 15.1412 23.4376 15.4205C23.5668 15.6998 23.6397 16.0019 23.6521 16.3094C23.6646 16.617 23.6164 16.9239 23.5102 17.2128C23.4041 17.5017 23.2421 17.7668 23.0335 17.993C22.9906 18.0405 22.9459 18.0853 22.8994 18.1273C22.6582 18.3561 22.3742 18.5351 22.0638 18.6541C21.7534 18.773 21.4226 18.8296 21.0904 18.8206L19.3515 18.8223V18.8227ZM19.3515 14.9791V17.821H21.1156C21.393 17.8275 21.6662 17.7523 21.9013 17.6047C22.1363 17.4571 22.3229 17.2437 22.4377 16.9909C22.5525 16.7382 22.5906 16.4572 22.5472 16.183C22.5038 15.9088 22.3809 15.6534 22.1936 15.4485L22.1829 15.4378C22.1744 15.4283 22.1653 15.4193 22.1559 15.4107C22.0227 15.2694 21.8611 15.1578 21.6818 15.0834C21.5024 15.0089 21.3093 14.9733 21.1153 14.9788L19.3515 14.9791ZM26.0778 16.3679C26.7489 16.33 27.4088 16.552 27.9206 16.9878C28.1491 17.2055 28.3277 17.47 28.4445 17.7632C28.5612 18.0565 28.6131 18.3715 28.5968 18.6867V22.12H27.5903V21.3459H27.5455C27.3624 21.6419 27.1059 21.8854 26.8009 22.0528C26.4959 22.2201 26.1527 22.3056 25.8048 22.3009C25.2382 22.3195 24.6853 22.1244 24.2556 21.7543C24.0567 21.5879 23.8974 21.3791 23.7896 21.1431C23.6818 20.9071 23.6281 20.65 23.6325 20.3905C23.6236 20.1254 23.6787 19.8621 23.7931 19.6229C23.9076 19.3836 24.0779 19.1754 24.2898 19.0161C24.8016 18.6532 25.4205 18.4733 26.0469 18.5054C26.5821 18.4852 27.1136 18.6024 27.5907 18.8459V18.6059C27.592 18.4288 27.5535 18.2537 27.4782 18.0935C27.4029 17.9332 27.2926 17.7919 27.1555 17.68C26.8765 17.4307 26.5141 17.2952 26.1401 17.3001C25.8639 17.2937 25.5907 17.3582 25.3465 17.4874C25.1023 17.6167 24.8952 17.8063 24.745 18.0383L23.8197 17.4578C24.0719 17.0979 24.412 16.8086 24.8077 16.6175C25.2034 16.4265 25.6414 16.34 26.0799 16.3664L26.0778 16.3679ZM24.7148 20.414C24.7141 20.5473 24.7453 20.6787 24.8057 20.7975C24.8661 20.9162 24.954 21.0188 25.0621 21.0967C25.2955 21.2789 25.5846 21.3751 25.8807 21.3691C26.3244 21.3691 26.75 21.1931 27.0644 20.8798C27.2285 20.7368 27.36 20.5603 27.4502 20.3621C27.5404 20.164 27.5871 19.9488 27.5872 19.7311C27.1867 19.4488 26.7024 19.3107 26.2134 19.3394C25.834 19.3254 25.46 19.4328 25.1457 19.646C25.0163 19.7283 24.9093 19.8415 24.8343 19.9753C24.7592 20.1092 24.7186 20.2595 24.7158 20.413L24.7148 20.414ZM34.3754 16.5505L30.8614 24.5731H29.7741L31.0781 21.765L28.7648 16.547H29.9093L31.5821 20.5483H31.6052L33.2295 16.547L34.3754 16.5505Z" fill="white"/>
</svg>
