<svg width="10" height="10" viewBox="0 0 10 10" fill="none" xmlns="http://www.w3.org/2000/svg">
<path d="M7.29167 5C6.90489 5 6.53396 5.15364 6.26047 5.42713C5.98698 5.70063 5.83333 6.07156 5.83333 6.45833C5.83333 6.84511 5.98698 7.21604 6.26047 7.48953C6.53396 7.76302 6.90489 7.91667 7.29167 7.91667H10V10H0V2.91667H10V5H7.29167ZM7.70833 7.08333H7.29167C7.12591 7.08333 6.96694 7.01748 6.84972 6.90027C6.73251 6.78306 6.66667 6.62409 6.66667 6.45833C6.66667 6.29257 6.73251 6.1336 6.84972 6.01639C6.96694 5.89918 7.12591 5.83333 7.29167 5.83333H7.70833C7.87409 5.83333 8.03306 5.89918 8.15027 6.01639C8.26748 6.1336 8.33333 6.29257 8.33333 6.45833C8.33333 6.62409 8.26748 6.78306 8.15027 6.90027C8.03306 7.01748 7.87409 7.08333 7.70833 7.08333ZM6.66667 0L8.33333 2.08333H3.33333L6.66667 0Z" fill="#1D1D1D"/>
</svg>
