<svg width="32" height="32" viewBox="0 0 32 32" fill="none" xmlns="http://www.w3.org/2000/svg">
<path d="M16 29.3337L15.6667 25.3337H15.3333C12.1778 25.3337 9.5 24.2337 7.3 22.0337C5.1 19.8337 4 17.1559 4 14.0003C4 10.8448 5.1 8.16699 7.3 5.96699C9.5 3.76699 12.1778 2.66699 15.3333 2.66699C16.9111 2.66699 18.3836 2.96121 19.7507 3.54966C21.1178 4.1381 22.3178 4.94921 23.3507 5.98299C24.3836 7.01677 25.1942 8.21677 25.7827 9.58299C26.3711 10.9492 26.6658 12.4217 26.6667 14.0003C26.6667 17.3781 25.6556 20.4061 23.6333 23.0843C21.6111 25.7625 19.0667 27.8457 16 29.3337ZM15.3 21.3003C15.6778 21.3003 16 21.167 16.2667 20.9003C16.5333 20.6337 16.6667 20.3114 16.6667 19.9337C16.6667 19.5559 16.5333 19.2337 16.2667 18.967C16 18.7003 15.6778 18.567 15.3 18.567C14.9222 18.567 14.6 18.7003 14.3333 18.967C14.0667 19.2337 13.9333 19.5559 13.9333 19.9337C13.9333 20.3114 14.0667 20.6337 14.3333 20.9003C14.6 21.167 14.9222 21.3003 15.3 21.3003ZM15.3333 17.067C15.5778 17.067 15.8 16.9781 16 16.8003C16.2 16.6225 16.3333 16.3781 16.4 16.067C16.4444 15.7781 16.5667 15.5168 16.7667 15.283C16.9667 15.0492 17.3111 14.6883 17.8 14.2003C18.2 13.8003 18.5333 13.367 18.8 12.9003C19.0667 12.4337 19.2 11.9337 19.2 11.4003C19.2 10.267 18.8169 9.41677 18.0507 8.84966C17.2844 8.28255 16.3787 7.99944 15.3333 8.00033C14.5556 8.00033 13.8831 8.1781 13.316 8.53366C12.7489 8.88921 12.288 9.33366 11.9333 9.86699C11.7778 10.1114 11.7502 10.367 11.8507 10.6337C11.9511 10.9003 12.1564 11.0892 12.4667 11.2003C12.6889 11.2892 12.9111 11.2892 13.1333 11.2003C13.3556 11.1114 13.5556 10.9448 13.7333 10.7003C13.9111 10.4559 14.128 10.2559 14.384 10.1003C14.64 9.94477 14.9564 9.86699 15.3333 9.86699C15.9333 9.86699 16.3836 10.0337 16.684 10.367C16.9844 10.7003 17.1342 11.067 17.1333 11.467C17.1333 11.8448 17.0222 12.1839 16.8 12.4843C16.5778 12.7848 16.3111 13.0901 16 13.4003C15.3778 13.9337 14.9609 14.367 14.7493 14.7003C14.5378 15.0337 14.4102 15.4892 14.3667 16.067C14.3444 16.3337 14.428 16.567 14.6173 16.767C14.8067 16.967 15.0453 17.067 15.3333 17.067Z" fill="white"/>
</svg>
