<svg width="24" height="24" viewBox="0 0 24 24" fill="none" xmlns="http://www.w3.org/2000/svg">
<path d="M20.2804 5.73552C20.2733 5.72849 18.8483 7.13708 16.0124 9.96833L14.0226 7.97849L18.2624 3.73864C16.0312 2.39567 13.1647 2.74021 11.3062 4.5988C10.5957 5.30885 10.0844 6.19323 9.82362 7.16323C9.56282 8.13323 9.56164 9.15476 9.82022 10.1254L9.8624 10.2824L3.21787 16.9246C3.07256 17.0699 3.07256 17.309 3.21787 17.4543L6.53193 20.7683C6.67725 20.9136 6.91631 20.9136 7.06162 20.7683L13.7015 14.1285L13.8585 14.1707C15.8202 14.6933 17.9272 14.1496 19.3897 12.6871C21.2507 10.8285 21.5952 7.96208 20.2804 5.73552Z" fill="#094DB3"/>
</svg>
