<svg width="48" height="48" viewBox="0 0 48 48" fill="none" xmlns="http://www.w3.org/2000/svg">
<path opacity="0.962" fill-rule="evenodd" clip-rule="evenodd" d="M30.4922 35.9297C26.1563 35.8829 21.8126 35.8672 17.4609 35.8828C17.4609 36.0859 17.4609 36.2891 17.4609 36.4922C17.3696 36.8119 17.1664 36.9135 16.8516 36.7969C16.7969 36.7422 16.7422 36.6875 16.6875 36.6328C16.6641 36.399 16.6563 36.1646 16.6641 35.9297C15.7578 35.9297 14.8516 35.9297 13.9453 35.9297C13.9375 27.7109 13.9453 19.4922 13.9688 11.2734C14.1535 10.5887 14.5988 10.206 15.3047 10.125C21.0859 10.0937 26.8672 10.0937 32.6484 10.125C33.3329 10.2 33.7782 10.5671 33.9844 11.2266C34.0621 19.4439 34.0778 27.6627 34.0312 35.8828C33.1364 35.9294 32.238 35.945 31.3359 35.9297C31.3437 36.1334 31.3359 36.3365 31.3125 36.5391C31.1834 36.8263 30.9725 36.9122 30.6797 36.7969C30.6071 36.74 30.5524 36.6697 30.5156 36.5859C30.4922 36.3677 30.4844 36.149 30.4922 35.9297ZM33.2109 14.2734C27.0703 14.2734 20.9297 14.2734 14.7891 14.2734C14.7891 13.3516 14.7891 12.4297 14.7891 11.5078C14.862 11.2083 15.0495 11.0287 15.3516 10.9688C21.1016 10.9375 26.8516 10.9375 32.6016 10.9688C32.9375 11.0235 33.1328 11.2187 33.1875 11.5547C33.2109 12.4608 33.2188 13.3671 33.2109 14.2734ZM14.7891 15.1172C17.7109 15.1172 20.6328 15.1172 23.5547 15.1172C23.5547 20.4453 23.5547 25.7734 23.5547 31.1016C20.6328 31.1016 17.7109 31.1016 14.7891 31.1016C14.7891 25.7734 14.7891 20.4453 14.7891 15.1172ZM24.3984 15.1172C24.3984 20.4453 24.3984 25.7734 24.3984 31.1016C27.336 31.1016 30.2734 31.1016 33.2109 31.1016C33.2109 25.7734 33.2109 20.4453 33.2109 15.1172C30.2734 15.1172 27.336 15.1172 24.3984 15.1172ZM17.0859 17.4141C17.0859 21.2266 17.0859 25.0391 17.0859 28.8516C18.4722 28.867 19.855 28.8513 21.2344 28.8047C21.2578 25.0079 21.2656 21.211 21.2578 17.4141C19.8672 17.4141 18.4766 17.4141 17.0859 17.4141ZM26.7422 17.4141C26.6877 21.2077 26.6798 25.0045 26.7188 28.8047C28.0981 28.8513 29.4809 28.867 30.8672 28.8516C30.8672 25.0391 30.8672 21.2266 30.8672 17.4141C29.4922 17.4141 28.1172 17.4141 26.7422 17.4141ZM33.2109 31.9922C33.2109 33.0234 33.2109 34.0547 33.2109 35.0859C27.0703 35.0859 20.9297 35.0859 14.7891 35.0859C14.7891 34.0547 14.7891 33.0234 14.7891 31.9922C20.9297 31.9922 27.0703 31.9922 33.2109 31.9922Z" fill="#1F3F80"/>
<path opacity="0.067" fill-rule="evenodd" clip-rule="evenodd" d="M14.789 11.5078C14.789 12.4297 14.789 13.3515 14.789 14.2734C20.9296 14.2734 27.0702 14.2734 33.2108 14.2734C27.0624 14.3203 20.9062 14.3359 14.7421 14.3203C14.7266 13.3747 14.7422 12.4372 14.789 11.5078Z" fill="#31508E"/>
<path opacity="0.067" fill-rule="evenodd" clip-rule="evenodd" d="M14.7891 15.1172C14.7891 20.4453 14.7891 25.7734 14.7891 31.1016C17.7109 31.1016 20.6328 31.1016 23.5547 31.1016C20.6251 31.1484 17.6876 31.164 14.7422 31.1484C14.7266 25.7968 14.7422 20.4531 14.7891 15.1172Z" fill="#31508E"/>
<path opacity="0.967" fill-rule="evenodd" clip-rule="evenodd" d="M17.0388 16.5703C18.4608 16.5625 19.8826 16.5703 21.3044 16.5938C21.7089 16.6545 21.9667 16.8811 22.0779 17.2734C22.1091 21.1797 22.1091 25.086 22.0779 28.9922C21.9993 29.2894 21.8197 29.5004 21.5388 29.625C20.0407 29.7014 18.5407 29.717 17.0388 29.6719C16.7085 29.6385 16.4663 29.4744 16.3122 29.1797C16.2345 25.198 16.2189 21.2136 16.2654 17.2266C16.3988 16.8594 16.6566 16.6406 17.0388 16.5703ZM17.0857 17.4141C17.0857 21.2266 17.0857 25.0391 17.0857 28.8516C18.472 28.867 19.8548 28.8513 21.2341 28.8047C21.2576 25.0079 21.2654 21.211 21.2576 17.4141C19.8669 17.4141 18.4763 17.4141 17.0857 17.4141Z" fill="#FDB500"/>
<path opacity="0.968" fill-rule="evenodd" clip-rule="evenodd" d="M26.6484 16.5703C28.086 16.5625 29.5235 16.5703 30.9609 16.5938C31.4063 16.6641 31.6641 16.9219 31.7344 17.3672C31.7657 21.1953 31.7657 25.0234 31.7344 28.8516C31.6856 29.3222 31.4278 29.5956 30.9609 29.6719C29.5234 29.7031 28.086 29.7031 26.6484 29.6719C26.2031 29.6016 25.9453 29.3438 25.875 28.8984C25.8437 25.0547 25.8437 21.2109 25.875 17.3672C25.9538 16.9213 26.2116 16.6557 26.6484 16.5703ZM26.7422 17.4141C26.6877 21.2077 26.6799 25.0045 26.7188 28.8047C28.0981 28.8513 29.4809 28.867 30.8672 28.8516C30.8672 25.0391 30.8672 21.2266 30.8672 17.4141C29.4922 17.4141 28.1172 17.4141 26.7422 17.4141Z" fill="#FDB500"/>
<path opacity="0.913" fill-rule="evenodd" clip-rule="evenodd" d="M17.5079 18.9609C18.6174 18.9531 19.7268 18.9609 20.836 18.9844C20.9785 19.1627 20.9472 19.3034 20.7423 19.4063C19.6954 19.4375 18.6485 19.4375 17.6016 19.4063C17.3935 19.2953 17.3623 19.1469 17.5079 18.9609Z" fill="#FDB500"/>
<path opacity="0.913" fill-rule="evenodd" clip-rule="evenodd" d="M27.1642 18.9609C28.2581 18.9531 29.3518 18.9609 30.4454 18.9844C30.6385 19.1714 30.6072 19.312 30.3517 19.4063C29.3204 19.4375 28.2892 19.4375 27.2579 19.4063C26.9964 19.302 26.9652 19.1536 27.1642 18.9609Z" fill="#FDB500"/>
<path opacity="0.912" fill-rule="evenodd" clip-rule="evenodd" d="M17.6011 21.5859C18.6481 21.5781 19.695 21.5859 20.7418 21.6094C20.9467 21.7123 20.978 21.8529 20.8355 22.0313C19.7261 22.0625 18.6168 22.0625 17.5074 22.0313C17.3678 21.8462 17.3991 21.6978 17.6011 21.5859Z" fill="#FDB500"/>
<path opacity="0.914" fill-rule="evenodd" clip-rule="evenodd" d="M27.2575 21.5859C28.2888 21.5781 29.3201 21.5859 30.3512 21.6094C30.6067 21.7036 30.638 21.8442 30.445 22.0313C29.3512 22.0625 28.2574 22.0625 27.1637 22.0313C27.0136 21.94 26.9901 21.8228 27.0934 21.6797C27.1544 21.6523 27.2091 21.6211 27.2575 21.5859Z" fill="#FDB500"/>
<path opacity="0.91" fill-rule="evenodd" clip-rule="evenodd" d="M22.8047 21.8672C22.8857 21.8961 22.9561 21.943 23.0156 22.0078C23.0469 22.7891 23.0469 23.5703 23.0156 24.3516C22.8373 24.494 22.6967 24.4628 22.5938 24.2578C22.5625 23.5234 22.5625 22.7891 22.5938 22.0547C22.6363 21.9558 22.7066 21.8933 22.8047 21.8672Z" fill="#214081"/>
<path opacity="0.911" fill-rule="evenodd" clip-rule="evenodd" d="M25.1016 21.8672C25.2225 21.8837 25.3084 21.9462 25.3594 22.0547C25.3907 22.8047 25.3907 23.5547 25.3594 24.3047C25.2363 24.4721 25.0957 24.4877 24.9375 24.3516C24.9062 23.5703 24.9062 22.7891 24.9375 22.0078C24.9912 21.9546 25.0459 21.9077 25.1016 21.8672Z" fill="#214081"/>
<path opacity="0.985" fill-rule="evenodd" clip-rule="evenodd" d="M17.5548 24.2578C18.633 24.25 19.7111 24.2578 20.7892 24.2813C20.9767 24.4219 20.9767 24.5625 20.7892 24.7031C19.711 24.7344 18.6329 24.7344 17.5548 24.7031C17.4198 24.625 17.3808 24.5079 17.4376 24.3516C17.4842 24.325 17.5233 24.2938 17.5548 24.2578Z" fill="#FDB500"/>
<path opacity="0.989" fill-rule="evenodd" clip-rule="evenodd" d="M27.1641 24.2578C28.2579 24.25 29.3517 24.2578 30.4453 24.2813C30.6328 24.4219 30.6328 24.5625 30.4453 24.7031C29.3516 24.7344 28.2578 24.7344 27.1641 24.7031C26.9896 24.5595 26.9896 24.4111 27.1641 24.2578Z" fill="#FDB500"/>
<path opacity="0.912" fill-rule="evenodd" clip-rule="evenodd" d="M17.5079 26.9297C18.6174 26.9219 19.7268 26.9297 20.836 26.9531C20.9785 27.1315 20.9472 27.2721 20.7423 27.375C19.6954 27.4063 18.6485 27.4063 17.6016 27.375C17.3935 27.264 17.3623 27.1156 17.5079 26.9297Z" fill="#FDB500"/>
<path opacity="0.913" fill-rule="evenodd" clip-rule="evenodd" d="M27.1642 26.9297C28.2581 26.9219 29.3518 26.9297 30.4454 26.9531C30.6385 27.1402 30.6072 27.2808 30.3517 27.375C29.3204 27.4063 28.2892 27.4063 27.2579 27.375C26.9964 27.2708 26.9652 27.1224 27.1642 26.9297Z" fill="#FDB500"/>
<path opacity="0.067" fill-rule="evenodd" clip-rule="evenodd" d="M33.2109 31.9922C27.0702 31.9922 20.9296 31.9922 14.789 31.9922C14.789 33.0234 14.789 34.0547 14.789 35.0859C14.7423 34.0472 14.7266 33.0003 14.7421 31.9453C20.9062 31.9297 27.0625 31.9453 33.2109 31.9922Z" fill="#31508E"/>
<path opacity="0.067" fill-rule="evenodd" clip-rule="evenodd" d="M30.4922 35.9297C26.1641 35.9297 21.8359 35.9297 17.5078 35.9297C17.5227 36.1266 17.507 36.3141 17.4609 36.4922C17.4609 36.2891 17.4609 36.0859 17.4609 35.8828C21.8126 35.8672 26.1563 35.8828 30.4922 35.9297Z" fill="#31508E"/>
</svg>
