<svg width="11" height="13" viewBox="0 0 11 13" fill="none" xmlns="http://www.w3.org/2000/svg">
<path opacity="0.5" d="M5.5595 12.0884C8.47824 12.0884 10.8443 11.5015 10.8443 10.7776C10.8443 10.0536 8.47824 9.46674 5.5595 9.46674C2.64076 9.46674 0.274658 10.0536 0.274658 10.7776C0.274658 11.5015 2.64076 12.0884 5.5595 12.0884Z" fill="#B8CBCD"/>
<path d="M10.5643 6.47676C10.0349 9.12334 8.28904 10.1044 5.4845 10.1044C2.67995 10.1044 0.85922 9.13443 0.404729 6.47676C-0.0553043 3.74982 1.60747 0.332825 5.48727 0.332825C9.36707 0.332825 11.1407 3.60017 10.5643 6.47676Z" fill="#F6E89A"/>
<path d="M5.48744 10.4367C3.94106 10.4367 2.76327 10.1512 1.882 9.56371C0.920361 8.92354 0.31345 7.90371 0.080662 6.53192C-0.055131 5.73379 -0.0191043 4.88578 0.185971 4.07933C0.39936 3.23686 0.792882 2.45813 1.32497 1.82905C2.02888 0.994891 3.32307 0 5.48467 0C6.40473 0 7.25275 0.174591 8.00099 0.521002C8.69936 0.842471 9.29796 1.30805 9.78293 1.89833C10.8055 3.14818 11.2185 4.883 10.8887 6.54023C10.6115 7.92865 10.0129 8.91523 9.0624 9.55816C8.18944 10.1484 7.01996 10.4367 5.48744 10.4367ZM5.48744 0.665109C3.97709 0.665109 2.71338 1.21659 1.83489 2.25583C0.906505 3.35326 0.48527 4.94952 0.737457 6.4183C1.13098 8.73509 2.59699 9.76878 5.48744 9.76878C8.30861 9.76878 9.77462 8.73232 10.2402 6.40721C10.5339 4.9412 10.1709 3.41145 9.27302 2.31679C8.65225 1.56578 7.49385 0.665109 5.48744 0.665109Z" fill="#8D4520"/>
<path d="M5.48748 11.3511C8.29296 11.3511 10.5672 9.16364 10.5672 6.46531C10.5672 3.76697 8.29296 1.57953 5.48748 1.57953C2.682 1.57953 0.407715 3.76697 0.407715 6.46531C0.407715 9.16364 2.682 11.3511 5.48748 11.3511Z" fill="#F6E89A"/>
<path d="M5.488 1.78162C5.35775 1.78162 5.25244 1.67631 5.25244 1.54606V0.332239C5.25244 0.201989 5.35775 0.0966797 5.488 0.0966797C5.61825 0.0966797 5.72356 0.201989 5.72356 0.332239V1.54606C5.72356 1.67631 5.61825 1.78162 5.488 1.78162Z" fill="#8D4520"/>
<path d="M4.10177 2.08961C3.97152 2.08961 3.86621 1.9843 3.86621 1.85405V0.701196C3.86621 0.570946 3.97152 0.465637 4.10177 0.465637C4.23202 0.465637 4.33733 0.570946 4.33733 0.701196V1.85128C4.33733 1.9843 4.23202 2.08961 4.10177 2.08961Z" fill="#8D4520"/>
<path d="M2.71603 2.62713C2.58578 2.62713 2.48047 2.52182 2.48047 2.39157V1.14449C2.48047 1.01424 2.58578 0.908936 2.71603 0.908936C2.84628 0.908936 2.95159 1.01424 2.95159 1.14449V2.39157C2.95159 2.52182 2.84628 2.62713 2.71603 2.62713Z" fill="#8D4520"/>
<path d="M6.92623 2.12009C6.79598 2.12009 6.69067 2.01479 6.69067 1.88454V0.701196C6.69067 0.570946 6.79598 0.465637 6.92623 0.465637C7.05648 0.465637 7.16179 0.570946 7.16179 0.701196V1.88454C7.16179 2.01479 7.05648 2.12009 6.92623 2.12009Z" fill="#8D4520"/>
<path d="M8.31149 2.62713C8.18124 2.62713 8.07593 2.52182 8.07593 2.39157V1.14449C8.07593 1.01424 8.18124 0.908936 8.31149 0.908936C8.44174 0.908936 8.54705 1.01424 8.54705 1.14449V2.39157C8.54705 2.52182 8.44174 2.62713 8.31149 2.62713Z" fill="#8D4520"/>
<path d="M5.48734 9.25623C3.5613 9.25623 1.97335 7.85673 1.76273 6.05817C1.74611 6.19119 1.73779 6.32698 1.73779 6.46555C1.73779 8.4581 3.41719 10.071 5.48734 10.071C7.55749 10.071 9.23689 8.45533 9.23689 6.46555C9.23689 6.32698 9.22858 6.19119 9.21195 6.05817C8.99856 7.85673 7.41338 9.25623 5.48734 9.25623Z" fill="#E8C980"/>
<path d="M5.48754 10.2012C3.35088 10.2012 1.61328 8.52457 1.61328 6.4655C1.61328 5.4429 2.03452 4.48957 2.79662 3.77735C2.89084 3.68867 3.04049 3.69422 3.12917 3.78844C3.21786 3.88266 3.21231 4.03231 3.11809 4.12099C2.45298 4.74176 2.0844 5.57315 2.0844 6.46273C2.0844 8.26406 3.61138 9.7273 5.48754 9.7273C7.3637 9.7273 8.89068 8.26406 8.89068 6.46273C8.89068 5.53712 8.47775 4.65031 7.75999 4.03231C7.66023 3.9464 7.64914 3.79952 7.73505 3.69976C7.82096 3.59999 7.96784 3.58891 8.0676 3.67482C8.89068 4.38427 9.36179 5.39856 9.36179 6.46273C9.35902 8.52457 7.62143 10.2012 5.48754 10.2012Z" fill="#8D4520"/>
<path d="M5.62612 8.46625C5.44322 8.46625 5.29357 8.3166 5.29357 8.13369V5.06865L4.65617 5.52314C4.50652 5.63122 4.29867 5.5952 4.19337 5.44555C4.08529 5.2959 4.12131 5.08805 4.27096 4.98274L5.4349 4.15136C5.53744 4.0793 5.67046 4.06822 5.78131 4.12642C5.89216 4.18461 5.96145 4.29824 5.96145 4.42294V8.13647C5.95867 8.3166 5.80903 8.46625 5.62612 8.46625Z" fill="#8D4520"/>
<path d="M6.40171 8.50532H4.70292C4.52001 8.50532 4.37036 8.35567 4.37036 8.17276C4.37036 7.98986 4.52001 7.84021 4.70292 7.84021H6.40171C6.58462 7.84021 6.73427 7.98986 6.73427 8.17276C6.73427 8.35567 6.58739 8.50532 6.40171 8.50532Z" fill="#8D4520"/>
<path d="M5.48748 2.53017C8.12574 2.53017 10.2929 4.46452 10.5423 6.93928C10.5589 6.78132 10.5672 6.62335 10.5672 6.46262C10.5672 3.76339 8.29202 1.57684 5.48748 1.57684C2.68294 1.57684 0.407715 3.76339 0.407715 6.46262C0.407715 6.62335 0.416029 6.78132 0.432656 6.93928C0.682072 4.46729 2.84922 2.53017 5.48748 2.53017Z" fill="white"/>
<path d="M5.48703 11.6841C2.50235 11.6841 0.074707 9.34232 0.074707 6.46573C0.074707 3.58914 2.50235 1.24463 5.48703 1.24463C8.4717 1.24463 10.8993 3.58636 10.8993 6.46296C10.8993 9.33955 8.46893 11.6841 5.48703 11.6841ZM5.48703 1.90974C2.87093 1.90974 0.739815 3.95217 0.739815 6.46296C0.739815 8.97374 2.86816 11.0162 5.48703 11.0162C8.10312 11.0162 10.2342 8.97374 10.2342 6.46296C10.2342 3.95217 8.10312 1.90974 5.48703 1.90974Z" fill="#8D4520"/>
</svg>
