<svg width="15" height="15" viewBox="0 0 15 15" fill="none" xmlns="http://www.w3.org/2000/svg">
<path d="M12.5 6.25C12.5 9.01125 7.5 13.75 7.5 13.75C7.5 13.75 2.5 9.01125 2.5 6.25C2.5 4.92392 3.02678 3.65215 3.96447 2.71447C4.90215 1.77678 6.17392 1.25 7.5 1.25C8.82608 1.25 10.0979 1.77678 11.0355 2.71447C11.9732 3.65215 12.5 4.92392 12.5 6.25Z" fill="#005DAF"/>
<path d="M7.5 6.74994C7.69891 6.74994 7.88968 6.67092 8.03033 6.53027C8.17098 6.38962 8.25 6.19885 8.25 5.99994C8.25 5.80103 8.17098 5.61026 8.03033 5.46961C7.88968 5.32896 7.69891 5.24994 7.5 5.24994C7.30109 5.24994 7.11032 5.32896 6.96967 5.46961C6.82902 5.61026 6.75 5.80103 6.75 5.99994C6.75 6.19885 6.82902 6.38962 6.96967 6.53027C7.11032 6.67092 7.30109 6.74994 7.5 6.74994Z" fill="white" stroke="white" stroke-width="1.25" stroke-linecap="round" stroke-linejoin="round"/>
</svg>
