<svg width="105" height="39" viewBox="0 0 105 39" fill="none" xmlns="http://www.w3.org/2000/svg">
<circle cx="85.5" cy="19.5" r="19.5" fill="#B60B0B"/>
<g clip-path="url(#clip0_2583_2095)">
<path d="M93.6636 10.548C93.7739 10.5005 93.896 10.4871 94.0139 10.5097C94.1319 10.5324 94.2403 10.5898 94.3252 10.6748C94.4102 10.7597 94.4676 10.8681 94.4903 10.9861C94.5129 11.104 94.4995 11.2261 94.452 11.3364L87.252 28.1364C87.2041 28.2482 87.1233 28.3429 87.0203 28.4077C86.9174 28.4726 86.7971 28.5046 86.6755 28.4995C86.5539 28.4945 86.4367 28.4525 86.3395 28.3793C86.2423 28.3061 86.1697 28.205 86.1312 28.0896L83.826 21.174L76.9104 18.87C76.7946 18.8318 76.6931 18.7591 76.6196 18.6618C76.5461 18.5645 76.504 18.447 76.4989 18.3252C76.4938 18.2033 76.526 18.0827 76.5912 17.9796C76.6563 17.8765 76.7514 17.7957 76.8636 17.748L93.6636 10.548Z" fill="white"/>
</g>
<circle cx="19.5" cy="19.5" r="19.5" fill="#306C00"/>
<path d="M25.4625 26.25C23.85 26.25 22.2782 25.8905 20.7473 25.1715C19.2162 24.4525 17.86 23.5025 16.6785 22.3215C15.497 21.1405 14.547 19.7842 13.8285 18.2527C13.11 16.7212 12.7505 15.1495 12.75 13.5375C12.75 13.3125 12.825 13.125 12.975 12.975C13.125 12.825 13.3125 12.75 13.5375 12.75H16.575C16.75 12.75 16.9063 12.8062 17.0438 12.9187C17.1813 13.0312 17.2625 13.175 17.2875 13.35L17.775 15.975C17.8 16.15 17.7968 16.3095 17.7653 16.4535C17.7338 16.5975 17.662 16.7255 17.55 16.8375L15.75 18.675C16.275 19.575 16.9313 20.4187 17.7188 21.2062C18.5062 21.9937 19.375 22.675 20.325 23.25L22.0875 21.4875C22.2 21.375 22.347 21.2907 22.5285 21.2347C22.71 21.1788 22.888 21.163 23.0625 21.1875L25.65 21.7125C25.825 21.75 25.9688 21.8345 26.0812 21.966C26.1937 22.0975 26.25 22.2505 26.25 22.425V25.4625C26.25 25.6875 26.175 25.875 26.025 26.025C25.875 26.175 25.6875 26.25 25.4625 26.25Z" fill="white"/>
<defs>
<clipPath id="clip0_2583_2095">
<rect width="18" height="18" fill="white" transform="matrix(-1 0 0 1 94.5 10.5)"/>
</clipPath>
</defs>
</svg>
