<svg width="29" height="15" viewBox="0 0 29 15" fill="none" xmlns="http://www.w3.org/2000/svg">
<path d="M28 8.36401C28.5523 8.36401 29 7.9163 29 7.36401C29 6.81173 28.5523 6.36401 28 6.36401L28 8.36401ZM0.292891 6.6569C-0.0976333 7.04743 -0.0976334 7.68059 0.29289 8.07112L6.65685 14.4351C7.04738 14.8256 7.68054 14.8256 8.07107 14.4351C8.46159 14.0446 8.46159 13.4114 8.07107 13.0209L2.41421 7.36401L8.07107 1.70716C8.46159 1.31663 8.46159 0.683469 8.07107 0.292944C7.68054 -0.0975803 7.04738 -0.0975804 6.65685 0.292944L0.292891 6.6569ZM28 6.36401L0.999998 6.36401L0.999998 8.36401L28 8.36401L28 6.36401Z" fill="#1D1D1D"/>
</svg>
