<svg width="32" height="32" viewBox="0 0 32 32" fill="none" xmlns="http://www.w3.org/2000/svg">
<path d="M28.0746 16H25.4079C25.0543 16 24.7152 16.1405 24.4651 16.3905C24.2151 16.6406 24.0746 16.9797 24.0746 17.3333C24.0746 17.687 24.2151 18.0261 24.4651 18.2761C24.7152 18.5262 25.0543 18.6667 25.4079 18.6667V21.3333H23.8266C23.985 20.9064 24.0684 20.4553 24.0732 20C24.0732 19.1195 23.7826 18.2636 23.2466 17.5651C22.7106 16.8665 21.959 16.3644 21.1085 16.1365C20.258 15.9086 19.3561 15.9677 18.5426 16.3046C17.7291 16.6416 17.0495 17.2375 16.6092 18C16.5203 18.1517 16.4623 18.3195 16.4384 18.4937C16.4146 18.6679 16.4255 18.8451 16.4704 19.0151C16.5154 19.1851 16.5935 19.3446 16.7003 19.4842C16.8071 19.6239 16.9405 19.7411 17.0928 19.829C17.2451 19.9169 17.4133 19.9739 17.5876 19.9965C17.762 20.0192 17.9391 20.0072 18.1088 19.9611C18.2785 19.915 18.4374 19.8358 18.5764 19.7281C18.7154 19.6204 18.8317 19.4862 18.9186 19.3333C19.0356 19.1307 19.2039 18.9623 19.4066 18.8453C19.6093 18.7283 19.8392 18.6667 20.0732 18.6667C20.4269 18.6667 20.766 18.8071 21.0161 19.0572C21.2661 19.3072 21.4066 19.6464 21.4066 20C21.4066 20.3536 21.2661 20.6928 21.0161 20.9428C20.766 21.1929 20.4269 21.3333 20.0732 21.3333C19.7196 21.3333 19.3805 21.4738 19.1304 21.7239C18.8804 21.9739 18.7399 22.3131 18.7399 22.6667C18.7399 23.0203 18.8804 23.3594 19.1304 23.6095C19.3805 23.8595 19.7196 24 20.0732 24C20.4269 24 20.766 24.1405 21.0161 24.3905C21.2661 24.6406 21.4066 24.9797 21.4066 25.3333C21.4066 25.687 21.2661 26.0261 21.0161 26.2762C20.766 26.5262 20.4269 26.6667 20.0732 26.6667C19.8392 26.6667 19.6093 26.6051 19.4066 26.488C19.2039 26.371 19.0356 26.2027 18.9186 26C18.8317 25.8471 18.7154 25.713 18.5764 25.6053C18.4374 25.4975 18.2785 25.4183 18.1088 25.3723C17.9391 25.3262 17.762 25.3141 17.5876 25.3368C17.4133 25.3595 17.2451 25.4164 17.0928 25.5043C16.9405 25.5922 16.8071 25.7094 16.7003 25.8491C16.5935 25.9888 16.5154 26.1482 16.4704 26.3182C16.4255 26.4882 16.4146 26.6654 16.4384 26.8396C16.4623 27.0139 16.5203 27.1816 16.6092 27.3333C17.0495 28.0959 17.7291 28.6918 18.5426 29.0287C19.3561 29.3657 20.258 29.4248 21.1085 29.1969C21.959 28.969 22.7106 28.4668 23.2466 27.7683C23.7826 27.0697 24.0732 26.2138 24.0732 25.3333C24.0684 24.878 23.985 24.4269 23.8266 24H25.4066V28C25.4066 28.3536 25.5471 28.6928 25.7971 28.9428C26.0472 29.1929 26.3863 29.3333 26.7399 29.3333C27.0935 29.3333 27.4327 29.1929 27.6827 28.9428C27.9328 28.6928 28.0732 28.3536 28.0732 28V18.6667C28.4269 18.6667 28.766 18.5262 29.0161 18.2761C29.2661 18.0261 29.4066 17.687 29.4066 17.3333C29.4066 16.9797 29.2661 16.6406 29.0161 16.3905C28.766 16.1405 28.4282 16 28.0746 16ZM12.1146 14.9907C12.1561 15.1616 12.231 15.3226 12.3351 15.4645C12.4391 15.6063 12.5702 15.7261 12.7207 15.8171C12.8713 15.9081 13.0383 15.9683 13.2123 15.9945C13.3862 16.0206 13.5636 16.012 13.7342 15.9693C13.9049 15.9265 14.0653 15.8505 14.2064 15.7454C14.3475 15.6404 14.4664 15.5085 14.5563 15.3573C14.6462 15.2061 14.7053 15.0386 14.7302 14.8644C14.755 14.6903 14.7452 14.513 14.7012 14.3427L12.3586 4.96934C12.1947 4.31092 11.8153 3.72625 11.2807 3.3084C10.7461 2.89056 10.0871 2.66357 9.40858 2.66357C8.73007 2.66357 8.07106 2.89056 7.53648 3.3084C7.00189 3.72625 6.62246 4.31092 6.45858 4.96934L4.11458 14.3427C4.07062 14.513 4.06079 14.6903 4.08566 14.8644C4.11054 15.0386 4.16962 15.2061 4.2595 15.3573C4.34939 15.5085 4.4683 15.6404 4.60939 15.7454C4.75049 15.8505 4.91097 15.9265 5.08159 15.9693C5.25222 16.012 5.42961 16.0206 5.60356 15.9945C5.77751 15.9683 5.94457 15.9081 6.09512 15.8171C6.24567 15.7261 6.37673 15.6063 6.48076 15.4645C6.58479 15.3226 6.65972 15.1616 6.70125 14.9907L7.44658 12H11.3666L12.1146 14.9907ZM8.11458 9.33334L9.04391 5.61734C9.07194 5.54349 9.12177 5.47991 9.18678 5.43504C9.2518 5.39018 9.32892 5.36615 9.40791 5.36615C9.4869 5.36615 9.56403 5.39018 9.62904 5.43504C9.69405 5.47991 9.74388 5.54349 9.77191 5.61734L10.7012 9.33334H8.11458ZM18.7412 9.33334H20.0746C20.4281 9.33369 20.767 9.47428 21.017 9.72425C21.267 9.97423 21.4076 10.3132 21.4079 10.6667V12C21.4079 12.3536 21.5484 12.6928 21.7984 12.9428C22.0485 13.1929 22.3876 13.3333 22.7412 13.3333C23.0949 13.3333 23.434 13.1929 23.6841 12.9428C23.9341 12.6928 24.0746 12.3536 24.0746 12V10.6667C24.0735 9.60613 23.6518 8.58933 22.9018 7.83942C22.1519 7.0895 21.1351 6.66773 20.0746 6.66667H18.7412C18.3876 6.66667 18.0485 6.80715 17.7984 7.0572C17.5484 7.30725 17.4079 7.64638 17.4079 8.00001C17.4079 8.35363 17.5484 8.69277 17.7984 8.94282C18.0485 9.19286 18.3876 9.33334 18.7412 9.33334ZM13.4079 21.3333H12.0746C11.7211 21.333 11.3821 21.1924 11.1322 20.9424C10.8822 20.6925 10.7416 20.3535 10.7412 20V18.6667C10.7412 18.3131 10.6008 17.9739 10.3507 17.7239C10.1007 17.4738 9.76153 17.3333 9.40791 17.3333C9.05429 17.3333 8.71515 17.4738 8.4651 17.7239C8.21505 17.9739 8.07458 18.3131 8.07458 18.6667V20C8.07564 21.0605 8.49741 22.0773 9.24732 22.8273C9.99724 23.5772 11.014 23.9989 12.0746 24H13.4079C13.7615 24 14.1007 23.8595 14.3507 23.6095C14.6008 23.3594 14.7412 23.0203 14.7412 22.6667C14.7412 22.3131 14.6008 21.9739 14.3507 21.7239C14.1007 21.4738 13.7615 21.3333 13.4079 21.3333Z" fill="white"/>
</svg>
