<svg width="32" height="32" viewBox="0 0 32 32" fill="none" xmlns="http://www.w3.org/2000/svg">
<path fill-rule="evenodd" clip-rule="evenodd" d="M28.1333 10.672C28.06 10.6667 27.9786 10.6667 27.8933 10.6667H24.5266C21.7693 10.6667 19.4106 12.8373 19.4106 15.6667C19.4106 18.496 21.7706 20.6667 24.5266 20.6667H27.8933C27.9786 20.6667 28.06 20.6667 28.136 20.6613C28.7027 20.6272 29.2376 20.3881 29.6412 19.9888C30.0447 19.5894 30.2893 19.057 30.3293 18.4907C30.3346 18.4107 30.3346 18.324 30.3346 18.244V13.0893C30.3346 13.0093 30.3346 12.9227 30.3293 12.8427C30.2893 12.2763 30.0447 11.7439 29.6412 11.3445C29.2376 10.9452 28.7027 10.7062 28.136 10.672H28.1333ZM24.2293 17C24.9386 17 25.5133 16.4027 25.5133 15.6667C25.5133 14.9307 24.9386 14.3333 24.2293 14.3333C23.5186 14.3333 22.944 14.9307 22.944 15.6667C22.944 16.4027 23.5186 17 24.2293 17Z" fill="white"/>
<path fill-rule="evenodd" clip-rule="evenodd" d="M27.8905 22.6667C27.9366 22.6648 27.9825 22.6739 28.0244 22.6931C28.0664 22.7123 28.1032 22.7411 28.1319 22.7772C28.1606 22.8133 28.1804 22.8557 28.1896 22.9009C28.1989 22.9461 28.1974 22.9928 28.1852 23.0373C27.9185 23.9867 27.4932 24.7973 26.8118 25.4773C25.8132 26.4773 24.5478 26.9187 22.9852 27.1293C21.4652 27.3333 19.5252 27.3333 17.0745 27.3333H14.2585C11.8078 27.3333 9.8665 27.3333 8.34784 27.1293C6.78517 26.9187 5.51984 26.476 4.52117 25.4787C3.52384 24.48 3.08117 23.2147 2.8705 21.652C2.6665 20.132 2.6665 18.192 2.6665 15.7413V15.592C2.6665 13.1413 2.6665 11.2 2.8705 9.68C3.08117 8.11733 3.52384 6.852 4.52117 5.85333C5.51984 4.856 6.78517 4.41333 8.34784 4.20267C9.86784 4 11.8078 4 14.2585 4H17.0745C19.5252 4 21.4665 4 22.9852 4.204C24.5478 4.41467 25.8132 4.85733 26.8118 5.85467C27.4932 6.53733 27.9185 7.34667 28.1852 8.296C28.1974 8.34049 28.1989 8.38723 28.1896 8.43243C28.1804 8.47762 28.1606 8.52 28.1319 8.55611C28.1032 8.59222 28.0664 8.62105 28.0244 8.64026C27.9825 8.65947 27.9366 8.66852 27.8905 8.66667H24.5252C20.7425 8.66667 17.4092 11.6533 17.4092 15.6667C17.4092 19.68 20.7425 22.6667 24.5252 22.6667H27.8905ZM7.6665 9.33333C7.40129 9.33333 7.14693 9.43869 6.9594 9.62623C6.77186 9.81376 6.6665 10.0681 6.6665 10.3333C6.6665 10.5985 6.77186 10.8529 6.9594 11.0404C7.14693 11.228 7.40129 11.3333 7.6665 11.3333H12.9998C13.2651 11.3333 13.5194 11.228 13.7069 11.0404C13.8945 10.8529 13.9998 10.5985 13.9998 10.3333C13.9998 10.0681 13.8945 9.81376 13.7069 9.62623C13.5194 9.43869 13.2651 9.33333 12.9998 9.33333H7.6665Z" fill="white"/>
</svg>
