<svg width="32" height="32" viewBox="0 0 32 32" fill="none" xmlns="http://www.w3.org/2000/svg">
<path d="M23.9998 5.33333H7.99984C5.05317 5.33333 2.6665 7.72 2.6665 10.6667V21.3333C2.6665 24.28 5.05317 26.6667 7.99984 26.6667H23.9998C26.9465 26.6667 29.3332 24.28 29.3332 21.3333V10.6667C29.3332 7.72 26.9465 5.33333 23.9998 5.33333ZM21.5198 18.36C21.1998 18.6267 20.7598 18.7333 20.3465 18.6267L5.53317 15C5.93317 14.0267 6.87984 13.3333 7.99984 13.3333H23.9998C24.8932 13.3333 25.6798 13.7867 26.1732 14.4533L21.5198 18.36ZM7.99984 8H23.9998C25.4665 8 26.6665 9.2 26.6665 10.6667V11.4C25.8798 10.9467 24.9732 10.6667 23.9998 10.6667H7.99984C7.0265 10.6667 6.11984 10.9467 5.33317 11.4V10.6667C5.33317 9.2 6.53317 8 7.99984 8Z" fill="white"/>
</svg>
