<svg width="20" height="20" viewBox="0 0 20 20" fill="none" xmlns="http://www.w3.org/2000/svg">
<g clip-path="url(#clip0_2096_2166)">
<path fill-rule="evenodd" clip-rule="evenodd" d="M9.07512 0.383987C7.48968 0.383987 6.20442 1.67341 6.20442 3.26399V4.22435C5.62534 4.22609 5.11464 4.23586 4.68545 4.29025C4.12173 4.36169 3.57982 4.52185 3.1127 4.92828C2.64559 5.33473 2.41091 5.85028 2.26071 6.40004C2.1212 6.91059 2.03006 7.55097 1.92512 8.28815L1.91701 8.34517L1.08714 14.173C0.95016 15.1347 0.833227 15.9556 0.832041 16.6162C0.830778 17.3195 0.956715 18.0112 1.45791 18.591C1.95911 19.1707 2.62383 19.3936 3.31798 19.4918C3.97003 19.5841 4.7966 19.5841 5.76486 19.584H14.2992C15.2675 19.5841 16.0941 19.5841 16.7461 19.4918C17.4402 19.3936 18.105 19.1707 18.6062 18.591C19.1074 18.0112 19.2334 17.3195 19.232 16.6162C19.2309 15.9556 19.1139 15.1347 18.9769 14.1729L18.139 8.28815C18.0341 7.55097 17.9429 6.91059 17.8034 6.40004C17.6532 5.85028 17.4185 5.33473 16.9514 4.92828C16.4843 4.52185 15.9424 4.36169 15.3787 4.29025C14.9494 4.23586 14.4387 4.22609 13.8596 4.22435V3.26399C13.8596 1.67341 12.5744 0.383987 10.9889 0.383987H9.07512ZM11.9458 4.22399V3.26399C11.9458 2.7338 11.5174 2.30399 10.9889 2.30399H9.07512C8.54662 2.30399 8.11822 2.7338 8.11822 3.26399V4.22399H11.9458ZM7.16132 6.14399C7.6898 6.14399 8.11822 6.5738 8.11822 7.10399V9.02398C8.11822 9.55419 7.6898 9.98398 7.16132 9.98398C6.63284 9.98398 6.20442 9.55419 6.20442 9.02398V7.10399C6.20442 6.5738 6.63284 6.14399 7.16132 6.14399ZM13.8596 7.10399C13.8596 6.5738 13.4312 6.14399 12.9027 6.14399C12.3742 6.14399 11.9458 6.5738 11.9458 7.10399V9.02398C11.9458 9.55419 12.3742 9.98398 12.9027 9.98398C13.4312 9.98398 13.8596 9.55419 13.8596 9.02398V7.10399Z" fill="white"/>
</g>
<defs>
<clipPath id="clip0_2096_2166">
<rect width="19.968" height="20" fill="white"/>
</clipPath>
</defs>
</svg>
