<svg width="32" height="32" viewBox="0 0 32 32" fill="none" xmlns="http://www.w3.org/2000/svg">
<path d="M16.0003 23.3333C17.667 23.3333 19.0839 22.7502 20.251 21.584C21.4172 20.4169 22.0003 19 22.0003 17.3333C22.0003 15.6667 21.4172 14.2498 20.251 13.0827C19.0839 11.9164 17.667 11.3333 16.0003 11.3333C14.3337 11.3333 12.9168 11.9164 11.7497 13.0827C10.5834 14.2498 10.0003 15.6667 10.0003 17.3333C10.0003 19 10.5834 20.4169 11.7497 21.584C12.9168 22.7502 14.3337 23.3333 16.0003 23.3333ZM5.33366 28C4.60033 28 3.97277 27.7391 3.45099 27.2173C2.92833 26.6947 2.66699 26.0667 2.66699 25.3333V9.33333C2.66699 8.6 2.92833 7.97244 3.45099 7.45067C3.97277 6.928 4.60033 6.66667 5.33366 6.66667H9.53366L12.0003 4H20.0003L22.467 6.66667H26.667C27.4003 6.66667 28.0283 6.928 28.551 7.45067C29.0728 7.97244 29.3337 8.6 29.3337 9.33333V25.3333C29.3337 26.0667 29.0728 26.6947 28.551 27.2173C28.0283 27.7391 27.4003 28 26.667 28H5.33366Z" fill="#094DB3"/>
</svg>
