<svg width="28" height="28" viewBox="0 0 28 28" fill="none" xmlns="http://www.w3.org/2000/svg">
<path d="M12.8689 9.95222C13.2106 9.61051 13.2106 9.05649 12.8689 8.71478C12.5272 8.37307 11.9731 8.37307 11.6314 8.71478L6.96478 13.3814C6.79393 13.5523 6.7085 13.7762 6.7085 14.0002C6.7085 14.1188 6.73211 14.2319 6.7749 14.3351C6.81759 14.4383 6.88089 14.535 6.96478 14.6189L11.6314 19.2855C11.9731 19.6272 12.5272 19.6272 12.8689 19.2855C13.2106 18.9438 13.2106 18.3898 12.8689 18.0481L9.69593 14.8752H21.0001C21.4834 14.8752 21.8751 14.4834 21.8751 14.0002C21.8751 13.5169 21.4834 13.1252 21.0001 13.1252H9.69593L12.8689 9.95222Z" fill="#202020"/>
</svg>
