<svg width="189" height="29" viewBox="0 0 189 29" fill="none" xmlns="http://www.w3.org/2000/svg">
<path d="M17.435 10.611L17.5526 10.888L17.8523 10.9138L25.3633 11.5615L19.67 16.5026L19.4427 16.6999L19.5107 16.9932L21.2131 24.3356L14.7582 20.4397L14.4998 20.2837L14.2415 20.4397L7.78847 24.3344L9.50093 16.9938L9.5695 16.6999L9.34139 16.5023L3.63959 11.5629L11.1467 10.926L11.4471 10.9005L11.5648 10.6229L14.5002 3.69698L17.435 10.611ZM9.46962 21.2373L9.19985 22.3919L10.2149 21.7791L14.4996 19.1924L18.7965 21.791L19.8122 22.4053L19.5421 21.2494L18.4025 16.3715L22.1862 13.0892L23.0782 12.3154L21.9018 12.2134L16.9092 11.7802L14.9603 7.17577L14.4991 6.08608L14.0392 7.17633L12.1021 11.7682L7.10996 12.2013L5.93356 12.3034L6.82553 13.0771L10.6093 16.3594L9.46962 21.2373Z" stroke="#FDB500"/>
<path d="M66.5832 11.1648L57.8953 10.4157L54.4998 2.4165L51.1044 10.4278L42.4165 11.1648L49.014 16.8802L47.0323 25.3748L54.4998 20.8677L61.9673 25.3748L59.9978 16.8802L66.5832 11.1648ZM54.4998 18.6082L49.9565 21.3511L51.1648 16.1794L47.1532 12.6994L52.4457 12.2403L54.4998 7.37067L56.5661 12.2523L61.8586 12.7115L57.8469 16.1915L59.0553 21.3632L54.4998 18.6082Z" fill="#FDB500"/>
<path d="M106.583 11.1648L97.8953 10.4157L94.4998 2.4165L91.1044 10.4278L82.4165 11.1648L89.014 16.8802L87.0323 25.3748L94.4998 20.8677L101.967 25.3748L99.9978 16.8802L106.583 11.1648ZM94.4998 18.6082L89.9565 21.3511L91.1648 16.1794L87.1532 12.6994L92.4457 12.2403L94.4998 7.37067L96.5661 12.2523L101.859 12.7115L97.8469 16.1915L99.0553 21.3632L94.4998 18.6082Z" fill="#FDB500"/>
<path d="M146.583 11.1648L137.895 10.4157L134.5 2.4165L131.104 10.4278L122.417 11.1648L129.014 16.8802L127.032 25.3748L134.5 20.8677L141.967 25.3748L139.998 16.8802L146.583 11.1648ZM134.5 18.6082L129.957 21.3511L131.165 16.1794L127.153 12.6994L132.446 12.2403L134.5 7.37067L136.566 12.2523L141.859 12.7115L137.847 16.1915L139.055 21.3632L134.5 18.6082Z" fill="#FDB500"/>
<path d="M186.583 11.1648L177.895 10.4157L174.5 2.4165L171.104 10.4278L162.417 11.1648L169.014 16.8802L167.032 25.3748L174.5 20.8677L181.967 25.3748L179.998 16.8802L186.583 11.1648ZM174.5 18.6082L169.957 21.3511L171.165 16.1794L167.153 12.6994L172.446 12.2403L174.5 7.37067L176.566 12.2523L181.859 12.7115L177.847 16.1915L179.055 21.3632L174.5 18.6082Z" fill="#FDB500"/>
</svg>
