<svg width="32" height="32" viewBox="0 0 32 32" fill="none" xmlns="http://www.w3.org/2000/svg">
<path d="M11.9998 7.33333C11.9998 6.27246 12.4213 5.25505 13.1714 4.5049C13.9216 3.75476 14.939 3.33333 15.9998 3.33333C17.0607 3.33333 18.0781 3.75476 18.8283 4.5049C19.5784 5.25505 19.9998 6.27246 19.9998 7.33333C19.9998 8.39419 19.5784 9.41161 18.8283 10.1618C18.0781 10.9119 17.0607 11.3333 15.9998 11.3333C14.939 11.3333 13.9216 10.9119 13.1714 10.1618C12.4213 9.41161 11.9998 8.39419 11.9998 7.33333ZM24.6665 4.66666C23.7824 4.66666 22.9346 5.01785 22.3095 5.64297C21.6844 6.26809 21.3332 7.11594 21.3332 8C21.3332 8.88405 21.6844 9.7319 22.3095 10.357C22.9346 10.9821 23.7824 11.3333 24.6665 11.3333C25.5506 11.3333 26.3984 10.9821 27.0235 10.357C27.6486 9.7319 27.9998 8.88405 27.9998 8C27.9998 7.11594 27.6486 6.26809 27.0235 5.64297C26.3984 5.01785 25.5506 4.66666 24.6665 4.66666ZM7.33317 4.66666C6.44912 4.66666 5.60127 5.01785 4.97615 5.64297C4.35103 6.26809 3.99984 7.11594 3.99984 8C3.99984 8.88405 4.35103 9.7319 4.97615 10.357C5.60127 10.9821 6.44912 11.3333 7.33317 11.3333C8.21723 11.3333 9.06507 10.9821 9.69019 10.357C10.3153 9.7319 10.6665 8.88405 10.6665 8C10.6665 7.11594 10.3153 6.26809 9.69019 5.64297C9.06507 5.01785 8.21723 4.66666 7.33317 4.66666ZM12.8332 12.6667C12.0817 12.6667 11.3611 12.9652 10.8297 13.4965C10.2983 14.0279 9.99984 14.7485 9.99984 15.5V22.6667C9.99984 24.258 10.632 25.7841 11.7572 26.9093C12.8824 28.0345 14.4085 28.6667 15.9998 28.6667C17.5911 28.6667 19.1173 28.0345 20.2425 26.9093C21.3677 25.7841 21.9998 24.258 21.9998 22.6667V15.5C21.9998 14.7485 21.7013 14.0279 21.17 13.4965C20.6386 12.9652 19.9179 12.6667 19.1665 12.6667H12.8332ZM8.6665 15.5C8.6665 14.4333 9.06784 13.4593 9.72717 12.722C9.54257 12.6851 9.35476 12.6665 9.1665 12.6667H5.49984C4.74839 12.6667 4.02772 12.9652 3.49637 13.4965C2.96502 14.0279 2.6665 14.7485 2.6665 15.5V22C2.66628 22.8059 2.87477 23.5981 3.27166 24.2995C3.66855 25.0009 4.24031 25.5876 4.93128 26.0024C5.62224 26.4172 6.40884 26.6459 7.21448 26.6664C8.02012 26.6869 8.81734 26.4984 9.5285 26.1193C8.96078 25.0572 8.66465 23.871 8.6665 22.6667V15.5ZM23.3332 22.6667C23.3332 23.9147 23.0212 25.09 22.4712 26.1193C23.1823 26.4984 23.9795 26.6869 24.7852 26.6664C25.5908 26.6459 26.3774 26.4172 27.0684 26.0024C27.7594 25.5876 28.3311 25.0009 28.728 24.2995C29.1249 23.5981 29.3334 22.8059 29.3332 22V15.5C29.3332 14.7485 29.0347 14.0279 28.5033 13.4965C27.972 12.9652 27.2513 12.6667 26.4998 12.6667H22.8332C22.6412 12.6667 22.4532 12.686 22.2718 12.722C22.9565 13.4852 23.3346 14.4747 23.3332 15.5V22.6667Z" fill="white"/>
</svg>
