<svg width="44" height="22" viewBox="0 0 44 22" fill="none" xmlns="http://www.w3.org/2000/svg">
<rect width="44" height="21.3905" fill="white"/>
<path d="M43.173 0H0.826968C0.370375 0.000344924 0.000344306 0.370375 0 0.826968C0 0.845935 4.64009 20.5945 4.64009 20.5945C4.65733 21.0387 5.02219 21.3901 5.46671 21.3905H38.5333C38.9778 21.3901 39.3427 21.0387 39.3599 20.5945C39.3599 20.5945 44 0.845508 44 0.826968C43.9997 0.370375 43.6296 0.000344306 43.173 0ZM38.8661 20.5639C38.8658 20.7477 38.7171 20.8963 38.5333 20.8967H5.46675C5.28294 20.8963 5.13431 20.7477 5.13397 20.5639C5.13397 20.5449 0.495288 0.802497 0.495288 0.802497C0.508737 0.629037 0.653235 0.494882 0.827039 0.494538H43.1731C43.3469 0.494882 43.4914 0.629028 43.5048 0.802497C43.5048 0.802497 38.8661 20.5453 38.8661 20.5639Z" fill="#000052"/>
<path d="M35.1785 5.43567H8.8206C8.65335 5.43843 8.49437 5.50947 8.37987 5.6319C8.26572 5.75432 8.20606 5.91779 8.21469 6.08504L9.94036 18.5825V18.5821C9.93899 18.9201 10.2107 19.1953 10.5487 19.1977H33.4503C33.7765 19.1997 34.0448 18.9418 34.0562 18.6159L35.7868 6.0514C35.7885 5.71344 35.516 5.43825 35.1784 5.43583L35.1785 5.43567ZM33.5643 18.582C33.5663 18.6468 33.5153 18.7013 33.4505 18.7034H10.5488C10.4861 18.7034 10.435 18.6492 10.4326 18.5485L8.70694 6.0511C8.70487 5.98627 8.75591 5.93212 8.82075 5.92971H35.1787C35.2325 5.9304 35.2797 5.96558 35.2949 6.01731L33.5643 18.582Z" fill="#000052"/>
<path d="M32.9459 6.27051H11.0586C10.9052 6.27154 10.759 6.33465 10.6527 6.44501C10.5462 6.55571 10.4889 6.70434 10.4934 6.85746L11.4262 17.7975C11.4248 18.1086 11.6755 18.3617 11.9866 18.3635H32.0128C32.3184 18.3659 32.5694 18.1234 32.578 17.8182C32.578 17.8182 33.507 6.84284 33.507 6.83666C33.5081 6.5256 33.2569 6.27224 32.9459 6.27051ZM18.6325 13.2304L18.6121 12.5648H25.3865L25.3661 13.2304H18.6325ZM25.3513 13.725L25.3309 14.3905H18.6676L18.6472 13.725H25.3513ZM18.5969 12.0703L18.5765 11.4048L25.422 11.4051L25.4016 12.0707L18.5969 12.0703ZM18.5614 10.9106L18.541 10.245H25.4572L25.4368 10.9106H18.5614ZM18.5262 9.75078L18.5059 9.08521H25.4927L25.4723 9.75078H18.5262ZM18.0313 9.75078H11.2349L11.178 9.08521H18.0113L18.0313 9.75078ZM18.0465 10.2453L18.0668 10.9109L11.3338 10.9105L11.2769 10.245L18.0465 10.2453ZM18.082 11.4051L18.1024 12.0707L11.4328 12.0703L11.3759 11.4047L18.082 11.4051ZM18.1175 12.5649L18.1379 13.2304H11.5318L11.4749 12.5649H18.1175ZM18.1531 13.7247L18.1734 14.3902H11.6308L11.5739 13.725L18.1531 13.7247ZM11.6729 14.8848H18.1879L18.2083 15.55H11.7294L11.6729 14.8848ZM18.6828 14.8848H25.3158L25.2954 15.55H18.7031L18.6828 14.8848ZM25.8106 14.8848H32.3305L32.2743 15.55H25.7903L25.8106 14.8848ZM25.8258 14.3903L25.8461 13.7247H32.4287L32.3725 14.3903H25.8258ZM25.8609 13.2305L25.8813 12.5649H32.5266L32.4701 13.2305H25.8609ZM25.8965 12.0707L25.9168 11.4051H32.6246L32.5684 12.0707H25.8965ZM25.932 10.9109L25.9523 10.2453L32.7229 10.245L32.6667 10.9106L25.932 10.9109ZM25.9675 9.75114L25.9878 9.08556L32.8208 9.08521L32.7646 9.75079L25.9675 9.75114ZM26.003 8.59136L26.0234 7.92578L32.9191 7.92509L32.8629 8.59067L26.003 8.59136ZM25.5081 8.59136L18.491 8.59067L18.4707 7.92509H25.5279L25.5081 8.59136ZM17.9965 8.59136L11.1362 8.59067L11.0793 7.92509H17.9758L17.9965 8.59136ZM11.7714 16.0444H18.2233L18.2437 16.71H11.8283L11.7714 16.0444ZM18.7179 16.0444H25.2806L25.2602 16.71H18.7383L18.7179 16.0444ZM25.7751 16.0444H32.2323L32.176 16.71H25.7548L25.7751 16.0444ZM33.0116 6.82939L32.9609 7.43048H26.0379L26.0583 6.76456L32.9458 6.76421C32.981 6.76594 33.0096 6.79387 33.0116 6.82939ZM25.5634 6.76422L25.5431 7.43048H18.4556L18.4352 6.76422H25.5634ZM11.0584 6.76422H17.9404L17.9607 7.43014L11.0374 7.43048L10.9867 6.83629C10.9881 6.79732 11.0195 6.76594 11.0584 6.76422ZM11.9195 17.7758L11.8706 17.2033H18.2587L18.279 17.8682L11.9864 17.8686C11.9506 17.8686 11.9206 17.8358 11.9195 17.7758ZM18.774 17.8686L18.7536 17.2037L25.2452 17.2034L25.2248 17.8682L18.774 17.8686ZM32.0129 17.8686H25.72L25.7404 17.2037H32.1347L32.0844 17.7972C32.083 17.8362 32.0519 17.8672 32.0129 17.8686Z" fill="#FDB500"/>
<path d="M10.3958 3.82618C10.6527 4.24449 11.1076 4.49968 11.5979 4.5014H32.4011C32.8918 4.49968 33.3467 4.24414 33.6032 3.82583L34.424 2.47748C34.4702 2.40126 34.4719 2.30574 34.4281 2.2278C34.3843 2.15021 34.3019 2.10193 34.2126 2.10193H9.78632C9.697 2.10193 9.61458 2.15021 9.57078 2.2278C9.52699 2.30574 9.52871 2.40126 9.57492 2.47748L10.3958 3.82618ZM33.7733 2.59639L33.1811 3.56892C33.0146 3.84032 32.7197 4.00619 32.4014 4.00688H11.5983C11.2803 4.00619 10.9851 3.84032 10.8186 3.56926L10.2265 2.59638L33.7733 2.59639Z" fill="#000052"/>
<path d="M6.15107 6.41996L4.76547 6.15477C4.68546 6.13925 4.60269 6.16442 4.54476 6.22201C4.48682 6.2796 4.46096 6.36202 4.47579 6.44238L6.42667 17.0302C6.4484 17.1475 6.55047 17.2323 6.66945 17.2326C6.67911 17.2326 6.68842 17.232 6.69808 17.2309L7.91197 17.0916H7.91163C7.94611 17.0875 7.97957 17.0764 8.00957 17.0588C8.37408 16.8926 8.59445 16.515 8.55997 16.1156L6.98843 7.12042C6.88256 6.73521 6.54904 6.45618 6.15107 6.41996ZM8.07265 16.2009C8.09472 16.3268 7.98851 16.483 7.80022 16.6068L6.87121 16.7133L5.02759 6.70818L6.05839 6.90578C6.30392 6.95268 6.47808 7.07028 6.50152 7.20546L8.07265 16.2009Z" fill="#000052"/>
<path d="M39.2345 6.15396L37.8492 6.41916H37.8489C37.4509 6.45502 37.1171 6.73436 37.0112 7.11956L35.4401 16.1148C35.4056 16.5141 35.6259 16.8917 35.9905 17.058C36.0205 17.0756 36.0539 17.0866 36.0884 17.0907L37.3023 17.2301H37.3019C37.3116 17.2311 37.3209 17.2318 37.3306 17.2318C37.4496 17.2314 37.5516 17.1466 37.5734 17.0294L39.5242 6.44152C39.5391 6.36117 39.5132 6.27875 39.4553 6.22116C39.3973 6.16357 39.3145 6.13845 39.2345 6.15396ZM37.1288 16.7127L36.1998 16.6061C36.0111 16.4823 35.9049 16.3261 35.9273 16.2002V16.1999L37.4985 7.20466C37.5223 7.06913 37.6961 6.95153 37.942 6.90464L38.9724 6.70703L37.1288 16.7127Z" fill="#000052"/>
<path d="M32.5328 19.8109L31.8314 19.5219C31.5282 19.4212 31.2096 19.3743 30.8903 19.3839H13.1091C12.7897 19.3743 12.4711 19.4212 12.168 19.5219L11.4665 19.8109C11.3576 19.8557 11.2952 19.9716 11.3183 20.0874C11.341 20.2033 11.4428 20.2868 11.5607 20.2868H32.4388C32.5568 20.2868 32.6585 20.2033 32.6813 20.0874C32.7044 19.9716 32.642 19.8557 32.533 19.8109H32.5328Z" fill="#000052"/>
</svg>
