<svg width="60" height="28" viewBox="0 0 60 28" fill="none" xmlns="http://www.w3.org/2000/svg">
<path d="M5.74804 20.0097H6.11719L5.77148 21.4486C5.71875 21.66 5.73047 21.8245 5.80078 21.9302C5.87109 22.0359 6 22.0887 6.19336 22.0887C6.38086 22.0887 6.53906 22.0359 6.66211 21.9302C6.78516 21.8245 6.86719 21.66 6.91993 21.4486L7.26563 20.0097H7.64063L7.28907 21.4838C7.2129 21.801 7.07813 22.0418 6.87891 22.2003C6.68555 22.3589 6.42774 22.4411 6.11133 22.4411C5.79492 22.4411 5.57812 22.3648 5.46093 22.2062C5.34375 22.0476 5.32031 21.8068 5.39648 21.4897L5.74804 20.0097ZM7.5879 22.3765L8.17384 19.9157L9.28713 21.3605C9.31643 21.4016 9.34572 21.4427 9.37502 21.4897C9.40432 21.5367 9.43361 21.5895 9.46877 21.6483L9.86135 20.0097H10.2071L9.62111 22.4646L8.48439 20.9905C8.45509 20.9494 8.4258 20.9083 8.3965 20.8671C8.3672 20.8202 8.34376 20.779 8.32619 20.7262L7.9336 22.3707H7.5879V22.3765ZM10.1778 22.3765L10.7403 20.0097H11.1153L10.5528 22.3765H10.1778ZM11.086 22.3765L11.6485 20.0097H12.9317L12.8555 20.3386H11.9473L11.8067 20.9259H12.7149L12.6329 21.2606H11.7246L11.461 22.3707H11.086V22.3765ZM12.7852 22.3765L13.3477 20.0097H13.7227L13.1602 22.3765H12.7852ZM13.6934 22.3765L14.2559 20.0097H15.5391L15.4629 20.3386H14.5547L14.4141 20.9317H15.3223L15.2403 21.2665H14.3321L14.1504 22.03H15.0586L14.9766 22.3765H13.6934ZM15.4102 22.3765L15.9727 20.0097H16.4766C16.8048 20.0097 17.0333 20.0273 17.1563 20.0625C17.2794 20.0978 17.3848 20.1506 17.4669 20.2329C17.5723 20.3386 17.6426 20.4736 17.6719 20.6322C17.7012 20.7967 17.6895 20.9846 17.6426 21.1902C17.5899 21.4016 17.5137 21.5837 17.4083 21.7481C17.3028 21.9126 17.168 22.0418 17.0098 22.1475C16.8926 22.2297 16.7637 22.2826 16.6231 22.3178C16.4883 22.353 16.2833 22.3707 16.0137 22.3707H15.9141H15.4102V22.3765ZM15.8672 22.0241H16.1837C16.3536 22.0241 16.4883 22.0124 16.5821 21.9889C16.6758 21.9654 16.7579 21.9243 16.834 21.8714C16.9395 21.7951 17.0274 21.7011 17.0977 21.5837C17.168 21.4721 17.2208 21.337 17.2559 21.1843C17.2911 21.0316 17.3028 20.9024 17.2852 20.7908C17.2676 20.6792 17.2266 20.5794 17.1563 20.503C17.1036 20.4443 17.0391 20.409 16.9512 20.3856C16.8633 20.3621 16.7286 20.3503 16.5352 20.3503H16.4005H16.2657L15.8672 22.0241ZM19.3653 21.3135L19.1134 22.3765H18.7618L19.3243 20.0097H19.8927C20.0626 20.0097 20.1798 20.0214 20.2559 20.039C20.3321 20.0567 20.3907 20.086 20.4376 20.133C20.4962 20.1859 20.5372 20.2622 20.5548 20.3562C20.5724 20.4502 20.5665 20.55 20.5431 20.6616C20.5138 20.7732 20.4727 20.8789 20.4083 20.9729C20.3438 21.0668 20.2677 21.1432 20.1856 21.196C20.1153 21.2371 20.0391 21.2724 19.9571 21.29C19.8751 21.3076 19.7462 21.3194 19.5821 21.3194H19.5059H19.3653V21.3135ZM19.4649 20.9964H19.5587C19.7638 20.9964 19.9102 20.9729 19.9923 20.9259C20.0743 20.8789 20.127 20.7967 20.1563 20.6792C20.1856 20.5559 20.1681 20.4619 20.1095 20.4149C20.045 20.3621 19.9161 20.3386 19.7227 20.3386H19.629L19.4649 20.9964ZM21.8145 22.3765L21.6974 21.7657H20.7833L20.3731 22.3765H19.9806L21.6798 19.9157L22.2071 22.3765H21.8145ZM21.0059 21.4427H21.6446L21.5392 20.9024C21.5333 20.8671 21.5274 20.826 21.5274 20.7849C21.5216 20.7379 21.5216 20.691 21.5216 20.6381C21.4981 20.691 21.4747 20.7379 21.4454 20.7849C21.422 20.8319 21.3985 20.873 21.3751 20.9083L21.0059 21.4427ZM22.7462 22.3765L23.004 21.2959L22.5353 20.0155H22.9278L23.2208 20.8202C23.2267 20.8437 23.2325 20.8671 23.2442 20.9024C23.256 20.9376 23.2618 20.9729 23.2735 21.0081C23.297 20.9729 23.3204 20.9376 23.3439 20.9024C23.3673 20.8671 23.3907 20.8378 23.4142 20.8084L24.0997 20.0155H24.4747L23.379 21.29L23.1212 22.3707H22.7462V22.3765ZM26.3146 21.2078C26.3146 21.1902 26.3204 21.1373 26.3322 21.0551C26.338 20.9846 26.3439 20.9317 26.3497 20.8848C26.3263 20.9376 26.3029 20.9905 26.2736 21.0492C26.2443 21.1021 26.2091 21.1608 26.1681 21.2137L25.2657 22.4764L24.9728 21.1902C24.9611 21.1373 24.9493 21.0845 24.9435 21.0375C24.9376 20.9905 24.9318 20.9376 24.9318 20.8906C24.92 20.9376 24.9025 20.9905 24.8849 21.0492C24.8673 21.1021 24.8439 21.1608 24.8146 21.2195L24.2872 22.3824H23.9415L25.0724 19.9157L25.3946 21.4075C25.4005 21.431 25.4064 21.4721 25.4122 21.5249C25.4181 21.5778 25.4298 21.6483 25.4415 21.7305C25.4825 21.66 25.5353 21.5778 25.6056 21.4721C25.6232 21.4427 25.6407 21.4251 25.6466 21.4075L26.6661 19.9157L26.631 22.3824H26.2853L26.3146 21.2078ZM26.9357 22.3765L27.4982 20.0097H28.7814L28.7052 20.3386H27.797L27.6564 20.9317H28.5646L28.4826 21.2665H27.5743L27.3927 22.03H28.3009L28.2189 22.3765H26.9357ZM28.6466 22.3765L29.2326 19.9157L30.3459 21.3605C30.3751 21.4016 30.4044 21.4427 30.4337 21.4897C30.463 21.5367 30.4923 21.5895 30.5275 21.6483L30.9201 20.0097H31.2658L30.6798 22.4646L29.5431 20.9905C29.5138 20.9494 29.4845 20.9083 29.4552 20.8671C29.4259 20.8202 29.4025 20.779 29.3849 20.7262L28.9923 22.3707H28.6466V22.3765ZM32.4611 20.3327L31.9748 22.3707H31.5998L32.0861 20.3327H31.4767L31.5529 20.0038H33.1466L33.0705 20.3327H32.4611ZM32.8537 21.9008L33.1877 21.7599C33.1935 21.8656 33.2228 21.9478 33.2873 22.0007C33.3517 22.0535 33.4396 22.0829 33.5568 22.0829C33.6681 22.0829 33.7619 22.0535 33.8439 21.9889C33.9259 21.9243 33.9787 21.8421 34.0021 21.7364C34.0373 21.5954 33.9552 21.4721 33.756 21.3664C33.7267 21.3487 33.7092 21.337 33.6916 21.3311C33.4689 21.2019 33.3283 21.0903 33.2697 20.9846C33.2111 20.8789 33.1994 20.7556 33.2345 20.6087C33.2814 20.4149 33.381 20.2622 33.5392 20.1389C33.6974 20.0214 33.8732 19.9568 34.0842 19.9568C34.2541 19.9568 34.3888 19.9921 34.4885 20.0567C34.5881 20.1213 34.6408 20.2211 34.6584 20.3444L34.3302 20.4971C34.301 20.4208 34.2658 20.3679 34.2189 20.3327C34.172 20.2975 34.1135 20.2798 34.0431 20.2798C33.9435 20.2798 33.8556 20.3092 33.7853 20.3621C33.715 20.4149 33.6681 20.4854 33.6447 20.5794C33.6095 20.7203 33.7092 20.8554 33.9377 20.9787C33.9552 20.9905 33.967 20.9964 33.9787 21.0022C34.1779 21.1079 34.3127 21.2137 34.3713 21.3194C34.4299 21.4251 34.4416 21.5484 34.4064 21.707C34.3537 21.9302 34.2424 22.1064 34.0724 22.2414C33.9025 22.3707 33.7033 22.4411 33.4689 22.4411C33.2756 22.4411 33.1232 22.3941 33.0177 22.3002C32.9006 22.2062 32.8478 22.0711 32.8537 21.9008ZM35.6135 22.3765L36.176 20.0097H36.551L35.9885 22.3765H35.6135ZM36.5275 22.3765L37.1135 19.9157L38.2268 21.3605C38.2561 21.4016 38.2854 21.4427 38.3147 21.4897C38.3439 21.5367 38.3732 21.5895 38.4084 21.6483L38.801 20.0097H39.1467L38.5607 22.4646L37.424 20.9905C37.3947 20.9494 37.3654 20.9083 37.3361 20.8671C37.3068 20.8202 37.2834 20.779 37.2658 20.7262L36.8732 22.3707H36.5275V22.3765ZM40.342 20.3327L39.8557 22.3707H39.4807L39.967 20.3327H39.3576L39.4338 20.0038H41.0276L40.9514 20.3327H40.342ZM40.7463 22.3765L41.3088 20.0097H42.5979L42.5217 20.3386H41.6135L41.4729 20.9317H42.3811L42.299 21.2665H41.3908L41.2092 22.03H42.1174L42.0354 22.3765H40.7463ZM43.0608 21.3135L42.8088 22.3707H42.4573L43.0198 20.0038H43.5412C43.6936 20.0038 43.8108 20.0155 43.8869 20.0332C43.969 20.0508 44.0334 20.086 44.0803 20.133C44.1389 20.1917 44.1741 20.2622 44.1916 20.3562C44.2092 20.4443 44.2034 20.5441 44.1799 20.6557C44.133 20.8437 44.0569 20.9964 43.9397 21.1021C43.8225 21.2078 43.676 21.2724 43.5002 21.2959L44.0334 22.3707H43.6116L43.1018 21.3135H43.0608ZM43.1545 21.014H43.2248C43.4241 21.014 43.5588 20.9905 43.635 20.9435C43.7112 20.8965 43.7639 20.8143 43.7932 20.691C43.8225 20.5617 43.8108 20.4678 43.7522 20.4149C43.6936 20.3621 43.5705 20.3327 43.383 20.3327H43.3127L43.1545 21.014ZM44.262 22.3765L44.8245 20.0097H46.1077L46.0315 20.3386H45.1233L44.9827 20.9259H45.8909L45.8088 21.2606H44.9006L44.637 22.3707H44.262V22.3765ZM47.3557 22.3765L47.2385 21.7657H46.3245L45.9143 22.3765H45.5217L47.221 19.9157L47.7483 22.3765H47.3557ZM46.5413 21.4427H47.1799L47.0745 20.9024C47.0686 20.8671 47.0627 20.826 47.0627 20.7849C47.0569 20.7379 47.0569 20.691 47.0569 20.6381C47.0334 20.691 47.01 20.7379 46.9807 20.7849C46.9573 20.8319 46.9338 20.873 46.9104 20.9083L46.5413 21.4427ZM50.1858 20.5852C50.1038 20.4913 50.0042 20.4208 49.8987 20.3797C49.7932 20.3327 49.676 20.3092 49.5413 20.3092C49.2893 20.3092 49.0667 20.3914 48.8674 20.5559C48.6682 20.7203 48.5393 20.9376 48.4749 21.2019C48.4163 21.4545 48.4397 21.6659 48.5569 21.8362C48.6682 22.0007 48.844 22.0829 49.0784 22.0829C49.2132 22.0829 49.3479 22.0594 49.4827 22.0065C49.6175 21.9595 49.7522 21.8832 49.8928 21.7833L49.7874 22.218C49.6702 22.2943 49.5471 22.3472 49.4182 22.3824C49.2893 22.4176 49.1604 22.4353 49.0198 22.4353C48.844 22.4353 48.6858 22.4059 48.551 22.3472C48.4163 22.2884 48.3049 22.2003 48.2171 22.0829C48.1292 21.9713 48.0764 21.8362 48.053 21.6835C48.0295 21.5308 48.0354 21.3664 48.0823 21.1902C48.1233 21.014 48.1936 20.8554 48.2874 20.7027C48.3811 20.55 48.5042 20.4149 48.6448 20.3033C48.7854 20.1859 48.9378 20.0978 49.1018 20.039C49.2659 19.9803 49.43 19.9509 49.5999 19.9509C49.7346 19.9509 49.8577 19.9686 49.9749 20.0097C50.0862 20.0508 50.1917 20.1095 50.2854 20.1917L50.1858 20.5852ZM50.221 22.3765L50.7835 20.0097H52.0667L51.9905 20.3386H51.0823L50.9417 20.9317H51.8499L51.7679 21.2665H50.8596L50.678 22.03H51.5862L51.5042 22.3765H50.221Z" fill="#3D3D3C"/>
<path d="M43.4 17.9483H40.8277L44.402 5.00986H46.9743L43.4 17.9483ZM42.0641 5.4151C41.8883 5.16843 41.6129 5.0451 41.2379 5.0451H27.105L26.4077 7.58227H28.98H39.2633L38.5133 10.2898H28.23V10.2839H25.6577L23.5249 18.007H26.0972L27.5269 12.8269H39.0875C39.4508 12.8269 39.7906 12.7036 40.107 12.4569C40.4235 12.2103 40.6344 11.9049 40.734 11.5407L42.1637 6.36067C42.275 5.97305 42.2399 5.66177 42.0641 5.4151ZM22.0249 17.1378C21.8843 17.6487 21.4155 18.007 20.8882 18.007H7.62833C7.26505 18.007 6.99552 17.8837 6.81973 17.637C6.64395 17.3903 6.60294 17.0849 6.7084 16.7208L9.9428 5.0451H12.5151L9.62639 15.4757H19.9155L22.8042 5.0451H25.3765L22.0249 17.1378Z" fill="#70706E"/>
<path d="M51.416 5.03327L54.668 11.5172L47.83 18.0011L51.416 5.03327Z" fill="#098041"/>
<path d="M49.1306 5.03327L52.3826 11.5172L45.5388 18.0011L49.1306 5.03327Z" fill="#FD5602"/>
</svg>
