<svg width="34" height="34" viewBox="0 0 34 34" fill="none" xmlns="http://www.w3.org/2000/svg">
<g clip-path="url(#clip0_2073_2971)">
<path d="M25.8286 3.96987H3.71188V6.96358H25.8286V3.96987Z" fill="#D6FBE9"/>
<path d="M27.5945 6.17785L27.5979 3.23781e-05H6.18126C5.18555 -0.00403325 4.22641 0.374923 3.50237 1.05845C2.77833 1.74199 2.34485 2.67775 2.29164 3.67204L2.28824 18.7647V20.6109H2.28484V24.7113C2.28527 25.8041 2.71956 26.852 3.49227 27.6247C4.26498 28.3974 5.31288 28.8317 6.40566 28.8321H8.08186C7.94333 28.2853 7.87365 27.7234 7.87446 27.1593C7.87446 25.345 8.59519 23.605 9.87809 22.3221C11.161 21.0392 12.901 20.3185 14.7153 20.3185C16.5296 20.3185 18.2696 21.0392 19.5525 22.3221C20.8354 23.605 21.5561 25.345 21.5561 27.1593C21.5569 27.7234 21.4872 28.2853 21.3487 28.8321H27.5945C28.6873 28.8317 29.7352 28.3974 30.5079 27.6247C31.2806 26.852 31.7149 25.8041 31.7153 24.7113V10.2987C31.7154 9.75749 31.6089 9.2216 31.4018 8.72161C31.1947 8.22161 30.8912 7.76731 30.5085 7.38464C30.1259 7.00197 29.6716 6.69844 29.1716 6.49138C28.6716 6.28431 28.1357 6.17778 27.5945 6.17785ZM6.49066 1.76464H25.8299V6.17785H6.49066C5.90543 6.17785 5.34417 5.94537 4.93035 5.53155C4.51653 5.11773 4.28405 4.55647 4.28405 3.97124C4.28405 3.38602 4.51653 2.82476 4.93035 2.41094C5.34417 1.99712 5.90543 1.76464 6.49066 1.76464ZM26.6221 18.4791C26.4093 18.4794 26.2011 18.4166 26.024 18.2987C25.8468 18.1807 25.7086 18.0129 25.6269 17.8164C25.5451 17.6199 25.5235 17.4035 25.5647 17.1947C25.6059 16.9859 25.708 16.794 25.8583 16.6433C26.0086 16.4925 26.2001 16.3897 26.4088 16.3479C26.6175 16.306 26.8339 16.327 27.0307 16.4081C27.2274 16.4893 27.3957 16.6269 27.5142 16.8037C27.6327 16.9805 27.6962 17.1885 27.6965 17.4013C27.6964 17.6865 27.5833 17.9601 27.3819 18.1621C27.1806 18.3641 26.9074 18.4781 26.6221 18.4791Z" fill="#7A4DE8"/>
<path d="M21.5562 27.1594C21.557 27.7234 21.4873 28.2854 21.3488 28.8322H8.08196C7.94343 28.2854 7.87375 27.7234 7.87456 27.1594C7.87456 25.3451 8.59529 23.6051 9.87819 22.3222C11.1611 21.0393 12.9011 20.3185 14.7154 20.3185C16.5297 20.3185 18.2697 21.0393 19.5526 22.3222C20.8355 23.6051 21.5562 25.3451 21.5562 27.1594Z" fill="#DCB262"/>
<path d="M21.3484 28.832C20.9758 30.3089 20.121 31.6193 18.9194 32.5555C17.7178 33.4916 16.2382 34 14.715 34C13.1917 34 11.7121 33.4916 10.5105 32.5555C9.30889 31.6193 8.45409 30.3089 8.08154 28.832H21.3484Z" fill="#FD5602"/>
</g>
<defs>
<clipPath id="clip0_2073_2971">
<rect width="33.3653" height="33.3653" fill="white" transform="scale(1.01902)"/>
</clipPath>
</defs>
</svg>
