<svg width="13" height="17" viewBox="0 0 13 17" fill="none" xmlns="http://www.w3.org/2000/svg">
<path d="M6.5 8.12499C6.94688 8.12499 7.32956 7.96574 7.64806 7.64724C7.96656 7.32874 8.12554 6.94633 8.125 6.5C8.125 6.05312 7.96575 5.67043 7.64725 5.35193C7.32875 5.03343 6.94633 4.87445 6.5 4.875C6.05312 4.875 5.67044 5.03425 5.35194 5.35275C5.03344 5.67125 4.87446 6.05366 4.875 6.5C4.875 6.94687 5.03425 7.32956 5.35275 7.64806C5.67125 7.96656 6.05367 8.12554 6.5 8.12499ZM6.5 16.25C4.31979 14.3948 2.69154 12.6717 1.61525 11.0809C0.538958 9.48999 0.000541667 8.0172 0 6.6625C0 4.63125 0.653521 3.01302 1.96056 1.80781C3.2676 0.602604 4.78075 0 6.5 0C8.21979 0 9.73321 0.602604 11.0402 1.80781C12.3473 3.01302 13.0005 4.63125 13 6.6625C13 8.01666 12.4616 9.48945 11.3847 11.0809C10.3079 12.6723 8.67967 14.3953 6.5 16.25Z" fill="#B60B0B"/>
</svg>
