<svg width="20" height="20" viewBox="0 0 20 20" fill="none" xmlns="http://www.w3.org/2000/svg">
<g clip-path="url(#clip0_2096_2173)">
<path fill-rule="evenodd" clip-rule="evenodd" d="M8.94804 1.20521C8.94804 1.21585 8.89368 1.22454 8.82715 1.22454C8.73014 1.22454 8.70087 1.23218 8.6788 1.26321C8.65756 1.29307 8.62746 1.30187 8.54657 1.30187C8.4565 1.30187 8.44181 1.30728 8.44181 1.34053C8.44181 1.37233 8.42711 1.37919 8.35905 1.37919C8.30017 1.37919 8.26842 1.39031 8.24883 1.41786C8.23128 1.4425 8.19749 1.45652 8.15551 1.45652C8.11897 1.45652 8.07 1.47377 8.04562 1.49518C8.02141 1.51644 7.98295 1.53384 7.96017 1.53384C7.93722 1.53384 7.91356 1.55109 7.90718 1.5725C7.89876 1.60077 7.87713 1.61117 7.82689 1.61117C7.78607 1.61117 7.75294 1.62296 7.74546 1.64016C7.73847 1.65611 7.71932 1.66916 7.70287 1.66916C7.68647 1.66916 7.66308 1.6854 7.65098 1.70526C7.63887 1.72512 7.59892 1.74668 7.56217 1.7531C7.52282 1.76001 7.49536 1.77698 7.49536 1.79433C7.49536 1.8109 7.4761 1.82381 7.45134 1.82381C7.42201 1.82381 7.40732 1.83671 7.40732 1.86247C7.40732 1.88823 7.39263 1.90113 7.3633 1.90113C7.33397 1.90113 7.31928 1.91403 7.31928 1.93979C7.31928 1.96372 7.30459 1.97846 7.28076 1.97846C7.25958 1.9785 7.21347 2.00025 7.17831 2.02678C7.14315 2.05336 7.106 2.07511 7.09577 2.07511C7.08553 2.07511 7.07717 2.08758 7.07717 2.1028C7.07717 2.11803 7.05736 2.136 7.03315 2.14277C7.00894 2.14953 6.98913 2.16432 6.98913 2.17568C6.98913 2.18704 6.96437 2.21647 6.9341 2.24112C6.90384 2.26576 6.87908 2.3037 6.87908 2.3255C6.87908 2.35217 6.86477 2.36508 6.83506 2.36508C6.81085 2.36508 6.79104 2.37493 6.79104 2.38697C6.79104 2.399 6.75637 2.43757 6.714 2.47265C6.67163 2.50774 6.63696 2.548 6.63696 2.56211C6.63696 2.57622 6.61716 2.59859 6.59294 2.61188C6.56807 2.62556 6.54892 2.65697 6.54892 2.68418C6.54892 2.71946 6.53715 2.73237 6.5049 2.73237C6.47557 2.73237 6.46088 2.74527 6.46088 2.77103C6.46088 2.79229 6.44107 2.82709 6.41686 2.84835C6.39265 2.86962 6.37284 2.90233 6.37284 2.92104C6.37284 2.93974 6.35303 2.96588 6.32882 2.97917C6.30395 2.99285 6.2848 3.02426 6.2848 3.05147C6.2848 3.078 6.26499 3.11705 6.24078 3.13832C6.21371 3.16209 6.19676 3.20274 6.19676 3.24396C6.19676 3.29113 6.18377 3.31703 6.15274 3.33163C6.12011 3.347 6.10872 3.37213 6.10872 3.42896C6.10872 3.48135 6.09909 3.50561 6.07829 3.50561C6.0417 3.50561 6.02139 3.56447 6.02095 3.67176C6.02079 3.72613 6.00687 3.76189 5.97666 3.78591C5.93781 3.81679 5.93264 3.84545 5.93264 4.02957C5.93264 4.20824 5.92708 4.24101 5.89412 4.2572C5.83744 4.28508 5.83546 4.92634 5.89197 4.96259C5.92097 4.98124 5.92988 5.02822 5.93599 5.19461C5.94227 5.36593 5.95052 5.40764 5.98216 5.42793C6.01033 5.44601 6.02068 5.47974 6.02068 5.55383C6.02068 5.63869 6.02778 5.65662 6.0647 5.66508C6.10112 5.67344 6.10872 5.69146 6.10872 5.76942C6.10872 5.84273 6.11851 5.86902 6.15274 5.88782C6.18256 5.90415 6.19676 5.93291 6.19676 5.97679C6.19676 6.02531 6.20782 6.04411 6.24078 6.0517C6.27412 6.05938 6.2848 6.07808 6.2848 6.12902C6.2848 6.17996 6.29548 6.19866 6.32882 6.20635C6.36189 6.21393 6.37284 6.23273 6.37284 6.28188C6.37284 6.33437 6.38154 6.34727 6.41686 6.34727C6.44437 6.34727 6.46088 6.36017 6.46088 6.38168C6.46088 6.40057 6.48069 6.4286 6.5049 6.44392C6.53076 6.46031 6.54892 6.49394 6.54892 6.5255C6.54892 6.56634 6.55949 6.57924 6.59294 6.57924C6.62227 6.57924 6.63696 6.59214 6.63696 6.6179C6.63696 6.63917 6.65105 6.65657 6.66822 6.65657C6.68544 6.65657 6.70602 6.68271 6.71406 6.7147C6.72203 6.7467 6.74757 6.78178 6.77084 6.7927C6.79406 6.80363 6.81305 6.82557 6.81305 6.84152C6.81305 6.85742 6.82691 6.8751 6.84392 6.88081C6.86086 6.88656 6.87974 6.90801 6.88585 6.92855C6.89195 6.94904 6.9116 6.96586 6.92948 6.96586C6.94736 6.96586 6.96717 6.98326 6.9735 7.00452C6.97983 7.02579 7.00079 7.04319 7.02011 7.04319C7.03937 7.04319 7.05516 7.05566 7.05516 7.07088C7.05516 7.0861 7.07497 7.10408 7.09918 7.11085C7.12339 7.11761 7.1432 7.13559 7.1432 7.15081C7.1432 7.16604 7.16301 7.1785 7.18722 7.1785C7.21655 7.1785 7.23124 7.19141 7.23124 7.21717C7.23124 7.24118 7.24593 7.25583 7.26998 7.25583C7.29127 7.25583 7.32104 7.27323 7.33618 7.29449C7.35373 7.31914 7.38751 7.33315 7.4295 7.33315C7.48067 7.33315 7.49536 7.34175 7.49536 7.37181C7.49536 7.39757 7.51006 7.41048 7.53939 7.41048C7.56871 7.41048 7.58341 7.42338 7.58341 7.44914C7.58341 7.47383 7.5981 7.4878 7.62401 7.4878C7.64635 7.4878 7.68256 7.5052 7.70446 7.52646C7.72636 7.54773 7.76141 7.56512 7.78232 7.56512C7.80329 7.56512 7.82557 7.58252 7.8319 7.60379C7.84065 7.63307 7.86195 7.64245 7.91994 7.64245C7.97794 7.64245 7.99923 7.65182 8.00798 7.68111C8.01673 7.7104 8.03803 7.71977 8.09602 7.71977C8.15402 7.71977 8.17532 7.72915 8.18407 7.75843C8.19287 7.78806 8.21411 7.7971 8.27469 7.7971C8.32763 7.7971 8.35377 7.80599 8.35377 7.82402C8.35377 7.85726 8.40147 7.87442 8.49375 7.87442C8.53683 7.87442 8.57865 7.8894 8.60177 7.91308C8.62994 7.94198 8.6667 7.95175 8.74736 7.95175C8.81769 7.95175 8.85929 7.96083 8.86671 7.97784C8.87447 7.99567 8.94287 8.00824 9.08346 8.01757C9.22702 8.02709 9.29415 8.03956 9.30659 8.05913C9.33223 8.09939 10.4007 8.10103 10.4007 8.06082C10.4007 8.03492 10.5707 8.00974 10.7458 8.00974C10.7917 8.00974 10.8251 7.99862 10.8329 7.98074C10.8419 7.96044 10.8779 7.95175 10.9536 7.95175C11.0342 7.95175 11.071 7.94198 11.0992 7.91308C11.1223 7.8894 11.1641 7.87442 11.2072 7.87442C11.2995 7.87442 11.3472 7.85726 11.3472 7.82402C11.3472 7.80599 11.3733 7.7971 11.4262 7.7971C11.4868 7.7971 11.5081 7.78806 11.5169 7.75843C11.5256 7.72915 11.5469 7.71977 11.6049 7.71977C11.6629 7.71977 11.6842 7.7104 11.6929 7.68111C11.7017 7.65182 11.723 7.64245 11.781 7.64245C11.839 7.64245 11.8603 7.63307 11.869 7.60379C11.8754 7.58252 11.8976 7.56512 11.9186 7.56512C11.9395 7.56512 11.9746 7.54773 11.9965 7.52646C12.0184 7.5052 12.0546 7.4878 12.0769 7.4878C12.1028 7.4878 12.1175 7.47383 12.1175 7.44914C12.1175 7.42338 12.1322 7.41048 12.1615 7.41048C12.1909 7.41048 12.2056 7.39757 12.2056 7.37181C12.2056 7.34175 12.2203 7.33315 12.2714 7.33315C12.3134 7.33315 12.3472 7.31914 12.3647 7.29449C12.3799 7.27323 12.4097 7.25583 12.4309 7.25583C12.455 7.25583 12.4697 7.24118 12.4697 7.21717C12.4697 7.19141 12.4844 7.1785 12.5137 7.1785C12.5379 7.1785 12.5577 7.16604 12.5577 7.15081C12.5577 7.13559 12.5775 7.11761 12.6017 7.11085C12.626 7.10408 12.6458 7.0861 12.6458 7.07088C12.6458 7.05566 12.6616 7.04319 12.6808 7.04319C12.7001 7.04319 12.7211 7.02579 12.7274 7.00452C12.7338 6.98326 12.753 6.96586 12.7701 6.96586C12.7872 6.96586 12.8076 6.95064 12.8154 6.93203C12.8232 6.91343 12.8426 6.89124 12.8587 6.88274C12.8747 6.87423 12.8879 6.855 12.8879 6.83992C12.8879 6.82489 12.9069 6.80363 12.9301 6.7927C12.9534 6.78178 12.9789 6.7467 12.9869 6.7147C12.9949 6.68271 13.0155 6.65657 13.0327 6.65657C13.0499 6.65657 13.064 6.63917 13.064 6.6179C13.064 6.59214 13.0787 6.57924 13.108 6.57924C13.1414 6.57924 13.152 6.56634 13.152 6.5255C13.152 6.49394 13.1702 6.46031 13.196 6.44392C13.2202 6.4286 13.24 6.40057 13.24 6.38168C13.24 6.36017 13.2566 6.34727 13.2841 6.34727C13.3194 6.34727 13.3281 6.33437 13.3281 6.28188C13.3281 6.23273 13.339 6.21393 13.3721 6.20635C13.4055 6.19866 13.4161 6.17996 13.4161 6.12902C13.4161 6.07808 13.4268 6.05938 13.4601 6.0517C13.4931 6.04411 13.5042 6.02531 13.5042 5.97679C13.5042 5.93291 13.5184 5.90415 13.5482 5.88782C13.5824 5.86902 13.5922 5.84273 13.5922 5.76942C13.5922 5.69146 13.5998 5.67344 13.6362 5.66508C13.6731 5.65662 13.6802 5.63869 13.6802 5.55383C13.6802 5.47974 13.6906 5.44601 13.7188 5.42793C13.7504 5.40764 13.7587 5.36593 13.7649 5.19461C13.771 5.02822 13.78 4.98124 13.809 4.96259C13.8655 4.92634 13.8635 4.28508 13.8068 4.2572C13.7738 4.24101 13.7683 4.20824 13.7683 4.02957C13.7683 3.84545 13.7631 3.81679 13.7243 3.78591C13.6941 3.76189 13.6801 3.72613 13.68 3.67176C13.6795 3.56447 13.6592 3.50561 13.6226 3.50561C13.6018 3.50561 13.5922 3.48135 13.5922 3.42896C13.5922 3.37213 13.5808 3.347 13.5482 3.33163C13.5172 3.31703 13.5042 3.29113 13.5042 3.24396C13.5042 3.20274 13.4872 3.16209 13.4601 3.13832C13.4359 3.11705 13.4161 3.078 13.4161 3.05147C13.4161 3.02426 13.397 2.99285 13.3721 2.97917C13.3479 2.96588 13.3281 2.93974 13.3281 2.92104C13.3281 2.90233 13.3083 2.86962 13.2841 2.84835C13.2599 2.82709 13.24 2.79229 13.24 2.77103C13.24 2.74527 13.2253 2.73237 13.196 2.73237C13.1638 2.73237 13.152 2.71946 13.152 2.68418C13.152 2.65697 13.1329 2.62556 13.108 2.61188C13.0838 2.59859 13.064 2.57622 13.064 2.56211C13.064 2.548 13.0293 2.50774 12.9869 2.47265C12.9446 2.43757 12.9099 2.399 12.9099 2.38697C12.9099 2.37493 12.8901 2.36508 12.8659 2.36508C12.8362 2.36508 12.8218 2.35217 12.8218 2.3255C12.8218 2.3037 12.7971 2.26576 12.7668 2.24112C12.7366 2.21647 12.7118 2.18704 12.7118 2.17568C12.7118 2.16432 12.692 2.14953 12.6678 2.14277C12.6436 2.136 12.6238 2.11803 12.6238 2.1028C12.6238 2.08758 12.6154 2.07511 12.6052 2.07511C12.5949 2.07511 12.5578 2.05336 12.5226 2.02678C12.4875 2.00025 12.4413 1.9785 12.4202 1.97846C12.3963 1.97846 12.3816 1.96372 12.3816 1.93979C12.3816 1.91403 12.3669 1.90113 12.3376 1.90113C12.3083 1.90113 12.2936 1.88823 12.2936 1.86247C12.2936 1.83671 12.2789 1.82381 12.2496 1.82381C12.2248 1.82381 12.2056 1.8109 12.2056 1.79433C12.2056 1.77698 12.1781 1.76001 12.1388 1.7531C12.102 1.74668 12.0621 1.72512 12.0499 1.70526C12.0378 1.6854 12.0145 1.66916 11.9981 1.66916C11.9816 1.66916 11.9625 1.65611 11.9555 1.64016C11.948 1.62296 11.9149 1.61117 11.874 1.61117C11.8238 1.61117 11.8022 1.60077 11.7937 1.5725C11.7874 1.55109 11.7637 1.53384 11.7408 1.53384C11.718 1.53384 11.6795 1.51644 11.6553 1.49518C11.6309 1.47377 11.582 1.45652 11.5454 1.45652C11.5034 1.45652 11.4696 1.4425 11.4521 1.41786C11.4325 1.39031 11.4008 1.37919 11.3419 1.37919C11.2738 1.37919 11.2591 1.37233 11.2591 1.34053C11.2591 1.30728 11.2444 1.30187 11.1543 1.30187C11.0735 1.30187 11.0434 1.29307 11.0221 1.26321C11.0001 1.23218 10.9708 1.22454 10.8738 1.22454C10.8072 1.22454 10.7529 1.21585 10.7529 1.20521C10.7529 1.19265 10.4374 1.18588 9.85046 1.18588C9.2635 1.18588 8.94804 1.19265 8.94804 1.20521Z" fill="white"/>
<path fill-rule="evenodd" clip-rule="evenodd" d="M8.94793 1.20521C8.94793 1.21585 8.89357 1.22454 8.82704 1.22454C8.73003 1.22454 8.70076 1.23218 8.67869 1.26321C8.65745 1.29307 8.62735 1.30187 8.54647 1.30187C8.45639 1.30187 8.4417 1.30728 8.4417 1.34053C8.4417 1.37233 8.42701 1.37919 8.35894 1.37919C8.30006 1.37919 8.26831 1.39031 8.24872 1.41786C8.23117 1.4425 8.19738 1.45652 8.1554 1.45652C8.11886 1.45652 8.06989 1.47377 8.04551 1.49518C8.0213 1.51644 7.98284 1.53384 7.96006 1.53384C7.93711 1.53384 7.91345 1.55109 7.90707 1.5725C7.89865 1.60077 7.87703 1.61117 7.82679 1.61117C7.78596 1.61117 7.75283 1.62296 7.74535 1.64016C7.73836 1.65611 7.71921 1.66916 7.70276 1.66916C7.68636 1.66916 7.66297 1.6854 7.65087 1.70526C7.63876 1.72512 7.59881 1.74668 7.56206 1.7531C7.52271 1.76001 7.49526 1.77698 7.49526 1.79433C7.49526 1.8109 7.476 1.82381 7.45124 1.82381C7.42191 1.82381 7.40722 1.83671 7.40722 1.86247C7.40722 1.88823 7.39252 1.90113 7.3632 1.90113C7.33387 1.90113 7.31917 1.91403 7.31917 1.93979C7.31917 1.96372 7.30448 1.97846 7.28066 1.97846C7.25947 1.9785 7.21336 2.00025 7.1782 2.02678C7.14304 2.05336 7.1059 2.07511 7.09566 2.07511C7.08543 2.07511 7.07706 2.08758 7.07706 2.1028C7.07706 2.11803 7.05725 2.136 7.03304 2.14277C7.00883 2.14953 6.98902 2.16432 6.98902 2.17568C6.98902 2.18704 6.96426 2.21647 6.934 2.24112C6.90373 2.26576 6.87897 2.3037 6.87897 2.3255C6.87897 2.35217 6.86466 2.36508 6.83495 2.36508C6.81074 2.36508 6.79093 2.37493 6.79093 2.38697C6.79093 2.399 6.75626 2.43757 6.71389 2.47265C6.67152 2.50774 6.63686 2.548 6.63686 2.56211C6.63686 2.57622 6.61705 2.59859 6.59284 2.61188C6.56796 2.62556 6.54882 2.65697 6.54882 2.68418C6.54882 2.71946 6.53704 2.73237 6.5048 2.73237C6.47547 2.73237 6.46077 2.74527 6.46077 2.77103C6.46077 2.79229 6.44097 2.82709 6.41675 2.84835C6.39254 2.86962 6.37273 2.90233 6.37273 2.92104C6.37273 2.93974 6.35292 2.96588 6.32871 2.97917C6.30384 2.99285 6.28469 3.02426 6.28469 3.05147C6.28469 3.078 6.26488 3.11705 6.24067 3.13832C6.2136 3.16209 6.19665 3.20274 6.19665 3.24396C6.19665 3.29113 6.18367 3.31703 6.15263 3.33163C6.12 3.347 6.10861 3.37213 6.10861 3.42896C6.10861 3.48135 6.09898 3.50561 6.07818 3.50561C6.04159 3.50561 6.02128 3.56447 6.02084 3.67176C6.02068 3.72613 6.00676 3.76189 5.97655 3.78591C5.9377 3.81679 5.93253 3.84545 5.93253 4.02957C5.93253 4.20824 5.92697 4.24101 5.89401 4.2572C5.83733 4.28508 5.83535 4.92634 5.89186 4.96259C5.92086 4.98124 5.92978 5.02822 5.93588 5.19461C5.94216 5.36593 5.95041 5.40764 5.98205 5.42793C6.01022 5.44601 6.02057 5.47974 6.02057 5.55383C6.02057 5.63869 6.02767 5.65662 6.06459 5.66508C6.10102 5.67344 6.10861 5.69146 6.10861 5.76942C6.10861 5.84273 6.11841 5.86902 6.15263 5.88782C6.18246 5.90415 6.19665 5.93291 6.19665 5.97679C6.19665 6.02531 6.20771 6.04411 6.24067 6.0517C6.27402 6.05938 6.28469 6.07808 6.28469 6.12902C6.28469 6.17996 6.29537 6.19866 6.32871 6.20635C6.36178 6.21393 6.37273 6.23273 6.37273 6.28188C6.37273 6.33437 6.38143 6.34727 6.41675 6.34727C6.44427 6.34727 6.46077 6.36017 6.46077 6.38168C6.46077 6.40057 6.48058 6.4286 6.5048 6.44392C6.53066 6.46031 6.54882 6.49394 6.54882 6.5255C6.54882 6.56634 6.55938 6.57924 6.59284 6.57924C6.62216 6.57924 6.63686 6.59214 6.63686 6.6179C6.63686 6.63917 6.65094 6.65657 6.66811 6.65657C6.68533 6.65657 6.70591 6.68271 6.71395 6.7147C6.72193 6.7467 6.74746 6.78178 6.77073 6.7927C6.79396 6.80363 6.81294 6.82557 6.81294 6.84152C6.81294 6.85742 6.8268 6.8751 6.84381 6.88081C6.86076 6.88656 6.87963 6.90801 6.88574 6.92855C6.89185 6.94904 6.91149 6.96586 6.92937 6.96586C6.94726 6.96586 6.96707 6.98326 6.97339 7.00452C6.97972 7.02579 7.00069 7.04319 7.02 7.04319C7.03926 7.04319 7.05505 7.05566 7.05505 7.07088C7.05505 7.0861 7.07486 7.10408 7.09907 7.11085C7.12328 7.11761 7.14309 7.13559 7.14309 7.15081C7.14309 7.16604 7.1629 7.1785 7.18711 7.1785C7.21644 7.1785 7.23113 7.19141 7.23113 7.21717C7.23113 7.24118 7.24583 7.25583 7.26987 7.25583C7.29117 7.25583 7.32094 7.27323 7.33607 7.29449C7.35362 7.31914 7.38741 7.33315 7.42939 7.33315C7.48057 7.33315 7.49526 7.34175 7.49526 7.37181C7.49526 7.39757 7.50995 7.41048 7.53928 7.41048C7.56861 7.41048 7.5833 7.42338 7.5833 7.44914C7.5833 7.47383 7.59799 7.4878 7.62391 7.4878C7.64625 7.4878 7.68245 7.5052 7.70435 7.52646C7.72625 7.54773 7.76131 7.56512 7.78222 7.56512C7.80318 7.56512 7.82547 7.58252 7.83179 7.60379C7.84054 7.63307 7.86184 7.64245 7.91983 7.64245C7.97783 7.64245 7.99913 7.65182 8.00788 7.68111C8.01662 7.7104 8.03792 7.71977 8.09592 7.71977C8.15391 7.71977 8.17521 7.72915 8.18396 7.75843C8.19276 7.78806 8.214 7.7971 8.27459 7.7971C8.32752 7.7971 8.35366 7.80599 8.35366 7.82402C8.35366 7.85726 8.40136 7.87442 8.49364 7.87442C8.53673 7.87442 8.57855 7.8894 8.60166 7.91308C8.62983 7.94198 8.66659 7.95175 8.74726 7.95175C8.81758 7.95175 8.85918 7.96083 8.86661 7.97784C8.87436 7.99567 8.94276 8.00824 9.08335 8.01757C9.22691 8.02709 9.29404 8.03956 9.30648 8.05913C9.33212 8.09939 10.4006 8.10103 10.4006 8.06082C10.4006 8.03492 10.5706 8.00974 10.7457 8.00974C10.7916 8.00974 10.825 7.99862 10.8328 7.98074C10.8418 7.96044 10.8778 7.95175 10.9535 7.95175C11.0341 7.95175 11.0709 7.94198 11.0991 7.91308C11.1222 7.8894 11.164 7.87442 11.2071 7.87442C11.2993 7.87442 11.3471 7.85726 11.3471 7.82402C11.3471 7.80599 11.3732 7.7971 11.4261 7.7971C11.4867 7.7971 11.5079 7.78806 11.5168 7.75843C11.5255 7.72915 11.5468 7.71977 11.6048 7.71977C11.6628 7.71977 11.6841 7.7104 11.6928 7.68111C11.7016 7.65182 11.7229 7.64245 11.7809 7.64245C11.8389 7.64245 11.8602 7.63307 11.8689 7.60379C11.8752 7.58252 11.8975 7.56512 11.9185 7.56512C11.9394 7.56512 11.9745 7.54773 11.9964 7.52646C12.0183 7.5052 12.0545 7.4878 12.0768 7.4878C12.1027 7.4878 12.1174 7.47383 12.1174 7.44914C12.1174 7.42338 12.1321 7.41048 12.1614 7.41048C12.1908 7.41048 12.2055 7.39757 12.2055 7.37181C12.2055 7.34175 12.2201 7.33315 12.2713 7.33315C12.3133 7.33315 12.3471 7.31914 12.3646 7.29449C12.3798 7.27323 12.4095 7.25583 12.4308 7.25583C12.4549 7.25583 12.4696 7.24118 12.4696 7.21717C12.4696 7.19141 12.4843 7.1785 12.5136 7.1785C12.5378 7.1785 12.5576 7.16604 12.5576 7.15081C12.5576 7.13559 12.5774 7.11761 12.6016 7.11085C12.6258 7.10408 12.6457 7.0861 12.6457 7.07088C12.6457 7.05566 12.6614 7.04319 12.6807 7.04319C12.7 7.04319 12.721 7.02579 12.7273 7.00452C12.7336 6.98326 12.7528 6.96586 12.77 6.96586C12.7871 6.96586 12.8075 6.95064 12.8152 6.93203C12.8231 6.91343 12.8425 6.89124 12.8586 6.88274C12.8746 6.87423 12.8878 6.855 12.8878 6.83992C12.8878 6.82489 12.9068 6.80363 12.93 6.7927C12.9532 6.78178 12.9788 6.7467 12.9868 6.7147C12.9948 6.68271 13.0154 6.65657 13.0326 6.65657C13.0498 6.65657 13.0639 6.63917 13.0639 6.6179C13.0639 6.59214 13.0785 6.57924 13.1079 6.57924C13.1413 6.57924 13.1519 6.56634 13.1519 6.5255C13.1519 6.49394 13.1701 6.46031 13.1959 6.44392C13.2201 6.4286 13.2399 6.40057 13.2399 6.38168C13.2399 6.36017 13.2564 6.34727 13.284 6.34727C13.3193 6.34727 13.328 6.33437 13.328 6.28188C13.328 6.23273 13.3389 6.21393 13.372 6.20635C13.4053 6.19866 13.416 6.17996 13.416 6.12902C13.416 6.07808 13.4267 6.05938 13.46 6.0517C13.493 6.04411 13.5041 6.02531 13.5041 5.97679C13.5041 5.93291 13.5183 5.90415 13.5481 5.88782C13.5823 5.86902 13.5921 5.84273 13.5921 5.76942C13.5921 5.69146 13.5997 5.67344 13.6361 5.66508C13.673 5.65662 13.6801 5.63869 13.6801 5.55383C13.6801 5.47974 13.6905 5.44601 13.7187 5.42793C13.7503 5.40764 13.7586 5.36593 13.7648 5.19461C13.7709 5.02822 13.7798 4.98124 13.8088 4.96259C13.8654 4.92634 13.8634 4.28508 13.8067 4.2572C13.7737 4.24101 13.7682 4.20824 13.7682 4.02957C13.7682 3.84545 13.763 3.81679 13.7242 3.78591C13.694 3.76189 13.68 3.72613 13.6799 3.67176C13.6794 3.56447 13.6591 3.50561 13.6225 3.50561C13.6017 3.50561 13.5921 3.48135 13.5921 3.42896C13.5921 3.37213 13.5807 3.347 13.5481 3.33163C13.517 3.31703 13.5041 3.29113 13.5041 3.24396C13.5041 3.20274 13.4871 3.16209 13.46 3.13832C13.4358 3.11705 13.416 3.078 13.416 3.05147C13.416 3.02426 13.3969 2.99285 13.372 2.97917C13.3478 2.96588 13.328 2.93974 13.328 2.92104C13.328 2.90233 13.3082 2.86962 13.284 2.84835C13.2597 2.82709 13.2399 2.79229 13.2399 2.77103C13.2399 2.74527 13.2252 2.73237 13.1959 2.73237C13.1637 2.73237 13.1519 2.71946 13.1519 2.68418C13.1519 2.65697 13.1327 2.62556 13.1079 2.61188C13.0837 2.59859 13.0639 2.57622 13.0639 2.56211C13.0639 2.548 13.0292 2.50774 12.9868 2.47265C12.9444 2.43757 12.9098 2.399 12.9098 2.38697C12.9098 2.37493 12.89 2.36508 12.8658 2.36508C12.836 2.36508 12.8217 2.35217 12.8217 2.3255C12.8217 2.3037 12.797 2.26576 12.7667 2.24112C12.7365 2.21647 12.7117 2.18704 12.7117 2.17568C12.7117 2.16432 12.6919 2.14953 12.6677 2.14277C12.6435 2.136 12.6236 2.11803 12.6236 2.1028C12.6236 2.08758 12.6153 2.07511 12.605 2.07511C12.5948 2.07511 12.5577 2.05336 12.5225 2.02678C12.4873 2.00025 12.4412 1.9785 12.4201 1.97846C12.3962 1.97846 12.3815 1.96372 12.3815 1.93979C12.3815 1.91403 12.3668 1.90113 12.3375 1.90113C12.3082 1.90113 12.2935 1.88823 12.2935 1.86247C12.2935 1.83671 12.2788 1.82381 12.2495 1.82381C12.2247 1.82381 12.2055 1.8109 12.2055 1.79433C12.2055 1.77698 12.178 1.76001 12.1387 1.7531C12.1019 1.74668 12.0619 1.72512 12.0498 1.70526C12.0377 1.6854 12.0143 1.66916 11.998 1.66916C11.9815 1.66916 11.9623 1.65611 11.9554 1.64016C11.9479 1.62296 11.9148 1.61117 11.8739 1.61117C11.8237 1.61117 11.8021 1.60077 11.7936 1.5725C11.7873 1.55109 11.7636 1.53384 11.7407 1.53384C11.7179 1.53384 11.6794 1.51644 11.6552 1.49518C11.6308 1.47377 11.5818 1.45652 11.5453 1.45652C11.5033 1.45652 11.4695 1.4425 11.452 1.41786C11.4324 1.39031 11.4006 1.37919 11.3418 1.37919C11.2737 1.37919 11.259 1.37233 11.259 1.34053C11.259 1.30728 11.2443 1.30187 11.1542 1.30187C11.0734 1.30187 11.0433 1.29307 11.022 1.26321C11 1.23218 10.9707 1.22454 10.8737 1.22454C10.8071 1.22454 10.7528 1.21585 10.7528 1.20521C10.7528 1.19265 10.4373 1.18588 9.85035 1.18588C9.2634 1.18588 8.94793 1.19265 8.94793 1.20521ZM9.10201 9.08657C9.08385 9.09286 9.06107 9.10972 9.05138 9.12412C9.03922 9.1422 8.98497 9.15037 8.8753 9.15051C8.6875 9.15085 8.61778 9.16448 8.61778 9.20087C8.61778 9.22054 8.58427 9.22759 8.491 9.22759C8.3881 9.22759 8.35905 9.23484 8.33676 9.26626C8.31552 9.29612 8.28543 9.30492 8.2047 9.30492C8.12398 9.30492 8.09388 9.31371 8.07264 9.34358C8.0519 9.37277 8.0213 9.38224 7.94779 9.38224C7.86971 9.38224 7.84764 9.38993 7.83642 9.4209C7.82607 9.44947 7.80313 9.45957 7.74837 9.45957C7.69362 9.45957 7.67068 9.46967 7.66033 9.49823C7.64993 9.52698 7.62704 9.53689 7.57081 9.53689C7.50995 9.53689 7.49526 9.54438 7.49526 9.57555C7.49526 9.60779 7.48057 9.61421 7.40722 9.61421C7.34394 9.61421 7.31917 9.62228 7.31917 9.64297C7.31917 9.66158 7.28808 9.67612 7.23113 9.6841C7.17803 9.69159 7.14309 9.707 7.14309 9.723C7.14309 9.73759 7.12857 9.74953 7.11085 9.74953C7.09313 9.74953 7.06798 9.76693 7.05505 9.78819C7.03937 9.8139 7.00894 9.82686 6.96415 9.82686C6.9154 9.82686 6.89372 9.83749 6.88535 9.86552C6.87897 9.88702 6.85531 9.90418 6.83214 9.90418C6.80925 9.90418 6.77354 9.92158 6.7528 9.94284C6.73205 9.96411 6.6975 9.9815 6.67598 9.9815C6.65155 9.9815 6.63686 9.996 6.63686 10.0202C6.63686 10.0459 6.62216 10.0588 6.59284 10.0588C6.56351 10.0588 6.54882 10.0717 6.54882 10.0975C6.54882 10.1257 6.53412 10.1362 6.49467 10.1362C6.46485 10.1362 6.42275 10.1521 6.40113 10.1717C6.37945 10.1913 6.3444 10.2128 6.32321 10.2194C6.30203 10.2261 6.28469 10.2449 6.28469 10.2612C6.28469 10.2779 6.26554 10.2908 6.24067 10.2908C6.21134 10.2908 6.19665 10.3037 6.19665 10.3295C6.19665 10.3552 6.18196 10.3681 6.15263 10.3681C6.1233 10.3681 6.10861 10.381 6.10861 10.4068C6.10861 10.4325 6.09392 10.4454 6.06459 10.4454C6.04038 10.4454 6.02057 10.4575 6.02057 10.4722C6.02057 10.4869 6.00076 10.5035 5.97655 10.509C5.95234 10.5146 5.93253 10.532 5.93253 10.5477C5.93253 10.5634 5.91272 10.5808 5.88851 10.5864C5.8643 10.5919 5.84449 10.6103 5.84449 10.6273C5.84449 10.6442 5.83029 10.6581 5.81296 10.6581C5.79562 10.6581 5.77516 10.6755 5.76745 10.6968C5.75975 10.718 5.73928 10.7354 5.72195 10.7354C5.70461 10.7354 5.69042 10.7528 5.69042 10.7741C5.69042 10.7998 5.67572 10.8127 5.64639 10.8127C5.61707 10.8127 5.60237 10.8256 5.60237 10.8514C5.60237 10.8772 5.58768 10.8901 5.55835 10.8901C5.52903 10.8901 5.51433 10.903 5.51433 10.9287C5.51433 10.9545 5.49964 10.9674 5.47031 10.9674C5.44098 10.9674 5.42629 10.9803 5.42629 11.006C5.42629 11.0318 5.4116 11.0447 5.38227 11.0447C5.35294 11.0447 5.33825 11.0576 5.33825 11.0834C5.33825 11.1051 5.32356 11.122 5.30469 11.122C5.28482 11.122 5.26562 11.1463 5.25758 11.1816C5.2501 11.2143 5.22561 11.2512 5.20311 11.2635C5.1806 11.2759 5.16217 11.2964 5.16217 11.309C5.16217 11.3217 5.14236 11.3376 5.11815 11.3443C5.09394 11.3511 5.07413 11.3672 5.07413 11.38C5.07413 11.3929 5.05432 11.4183 5.03011 11.4365C5.0059 11.4547 4.98609 11.4915 4.98609 11.5181C4.98609 11.5496 4.97376 11.5666 4.95104 11.5666C4.93172 11.5666 4.91076 11.584 4.90443 11.6053C4.8981 11.6266 4.87923 11.644 4.86244 11.644C4.84467 11.644 4.83202 11.664 4.83202 11.6923C4.83202 11.7189 4.81221 11.758 4.78799 11.7793C4.76378 11.8006 4.74397 11.831 4.74397 11.8469C4.74397 11.863 4.72439 11.8759 4.69995 11.8759C4.66325 11.8759 4.65593 11.8888 4.65593 11.9533C4.65593 12.0177 4.64862 12.0306 4.61191 12.0306C4.58379 12.0306 4.56789 12.0435 4.56789 12.0663C4.56789 12.0859 4.54808 12.1177 4.52387 12.1369C4.49966 12.1561 4.47985 12.1877 4.47985 12.2069C4.47985 12.2261 4.46004 12.2512 4.43583 12.2626C4.4076 12.2758 4.39181 12.3031 4.39181 12.3383C4.39181 12.3771 4.37882 12.3963 4.34779 12.4035C4.31444 12.4112 4.30377 12.4299 4.30377 12.4808C4.30377 12.5318 4.29309 12.5505 4.25975 12.5581C4.22602 12.5659 4.21573 12.5845 4.21573 12.6377C4.21573 12.6856 4.20577 12.7072 4.1837 12.7072C4.16411 12.7072 4.14568 12.7354 4.13627 12.7797C4.12774 12.8195 4.1065 12.8614 4.089 12.8727C4.07151 12.884 4.05197 12.934 4.04553 12.9838C4.0386 13.0381 4.02286 13.0745 4.00636 13.0745C3.9773 13.0745 3.95243 13.1332 3.95188 13.2029C3.95172 13.2257 3.93675 13.2493 3.91859 13.2555C3.89531 13.2633 3.88557 13.2952 3.88557 13.3638C3.88557 13.4482 3.87974 13.4611 3.84155 13.4611C3.80243 13.4611 3.79753 13.474 3.79753 13.5771C3.79753 13.6802 3.79264 13.6931 3.75351 13.6931C3.7145 13.6931 3.70949 13.706 3.70949 13.8068C3.70949 13.9043 3.70322 13.922 3.66547 13.9306C3.62673 13.9395 3.62145 13.957 3.62145 14.0756C3.62145 14.1942 3.61617 14.2117 3.57743 14.2206C3.53787 14.2297 3.53341 14.247 3.53341 14.3922C3.53341 14.5327 3.52769 14.5568 3.48939 14.5778C3.45038 14.5992 3.44537 14.6229 3.44537 14.7854C3.44537 14.9294 3.43877 14.9689 3.41472 14.9689C3.36509 14.9689 3.35733 15.0149 3.35733 15.3088C3.35733 15.5324 3.35133 15.5875 3.32706 15.5875C3.27804 15.5875 3.26929 15.681 3.26929 16.2069C3.26929 16.7194 3.27413 16.7667 3.32668 16.7667C3.35017 16.7667 3.35733 16.8009 3.35733 16.9135C3.35733 17.044 3.36223 17.0614 3.40135 17.0704C3.43585 17.0783 3.44537 17.0968 3.44537 17.1556C3.44537 17.2177 3.45291 17.2306 3.48939 17.2306C3.5256 17.2306 3.53341 17.2435 3.53341 17.3033C3.53341 17.355 3.54607 17.3829 3.57743 17.4001C3.60302 17.4141 3.62145 17.4452 3.62145 17.4743C3.62145 17.5079 3.63576 17.5275 3.66547 17.5343C3.68968 17.5399 3.70949 17.5595 3.70949 17.5779C3.70949 17.5962 3.7293 17.627 3.75351 17.6463C3.77772 17.6655 3.79753 17.6973 3.79753 17.7169C3.79753 17.7397 3.81344 17.7526 3.84155 17.7526C3.87088 17.7526 3.88557 17.7655 3.88557 17.7912C3.88557 17.8125 3.89977 17.8299 3.9171 17.8299C3.93444 17.8299 3.95491 17.8473 3.96261 17.8686C3.97031 17.8898 3.99078 17.9072 4.00812 17.9072C4.02545 17.9072 4.03965 17.9211 4.03965 17.938C4.03965 17.955 4.05946 17.9734 4.08367 17.9789C4.10788 17.9845 4.12769 18.0019 4.12769 18.0176C4.12769 18.0333 4.1475 18.0507 4.17171 18.0563C4.19592 18.0618 4.21573 18.0787 4.21573 18.0937C4.21573 18.1088 4.23229 18.1267 4.25254 18.1335C4.27284 18.1403 4.30751 18.1618 4.32958 18.1812C4.3517 18.2006 4.39456 18.2165 4.42483 18.2165C4.46516 18.2165 4.47985 18.2268 4.47985 18.2552C4.47985 18.2809 4.49454 18.2938 4.52387 18.2938C4.54808 18.2938 4.56789 18.3054 4.56789 18.3194C4.56789 18.343 4.61554 18.3694 4.77149 18.4325C4.80478 18.4459 4.83202 18.4681 4.83202 18.4817C4.83202 18.497 4.86063 18.5065 4.90647 18.5065C4.96243 18.5065 4.98383 18.5161 4.99247 18.5452C5.00127 18.5748 5.02251 18.5838 5.0831 18.5838C5.14748 18.5838 5.16217 18.591 5.16217 18.6225C5.16217 18.6547 5.17686 18.6611 5.25021 18.6611C5.32356 18.6611 5.33825 18.6676 5.33825 18.6998C5.33825 18.732 5.35294 18.7385 5.42629 18.7385C5.49964 18.7385 5.51433 18.7449 5.51433 18.7771C5.51433 18.8094 5.52903 18.8158 5.60237 18.8158C5.66109 18.8158 5.70511 18.8287 5.73444 18.8545C5.76151 18.8782 5.80779 18.8931 5.85472 18.8931C5.90843 18.8931 5.93792 18.9045 5.95454 18.9318C5.97297 18.9621 6.00065 18.9704 6.08209 18.9704C6.16221 18.9704 6.19236 18.9793 6.21354 19.0091C6.23456 19.0386 6.26488 19.0478 6.34192 19.0478C6.40949 19.0478 6.46133 19.0605 6.4988 19.0864C6.54029 19.1151 6.5881 19.1251 6.68385 19.1251C6.77871 19.1251 6.81294 19.1321 6.81294 19.1517C6.81294 19.1821 6.9067 19.2024 7.04757 19.2024C7.10094 19.2024 7.16895 19.2164 7.19872 19.2335C7.23273 19.2531 7.32237 19.2685 7.43996 19.2749C7.55832 19.2814 7.63618 19.2948 7.65191 19.3114C7.67035 19.331 7.74584 19.3377 7.94575 19.3377C8.18682 19.3377 8.2189 19.3417 8.25461 19.3764C8.29373 19.4144 8.3224 19.4151 9.85035 19.4151C11.3783 19.4151 11.407 19.4144 11.4461 19.3764C11.4818 19.3417 11.5139 19.3377 11.755 19.3377C11.9539 19.3377 12.0304 19.3309 12.0486 19.3116C12.0645 19.2949 12.1497 19.2812 12.2879 19.2732C12.4415 19.2644 12.5095 19.2526 12.527 19.2316C12.5426 19.213 12.5876 19.2024 12.6508 19.2024C12.7905 19.2024 12.8878 19.1825 12.8878 19.1538C12.8878 19.1372 12.9375 19.127 13.0439 19.1217C13.162 19.1159 13.205 19.1059 13.221 19.0809C13.2359 19.0575 13.2704 19.0478 13.3383 19.0478C13.4554 19.0478 13.5041 19.033 13.5041 18.9974C13.5041 18.978 13.5346 18.9704 13.6133 18.9704C13.7001 18.9704 13.7275 18.9625 13.7462 18.9318C13.7628 18.9045 13.7923 18.8931 13.846 18.8931C13.8929 18.8931 13.9392 18.8782 13.9663 18.8545C13.9956 18.8287 14.0396 18.8158 14.0983 18.8158C14.1717 18.8158 14.1864 18.8094 14.1864 18.7771C14.1864 18.7449 14.2011 18.7385 14.2744 18.7385C14.3478 18.7385 14.3625 18.732 14.3625 18.6998C14.3625 18.6676 14.3772 18.6611 14.4505 18.6611C14.5238 18.6611 14.5385 18.6547 14.5385 18.6225C14.5385 18.591 14.5532 18.5838 14.6176 18.5838C14.6782 18.5838 14.6994 18.5748 14.7082 18.5452C14.7169 18.5161 14.7383 18.5065 14.7942 18.5065C14.8457 18.5065 14.8687 18.4975 14.8687 18.4775C14.8687 18.4615 14.8822 18.4485 14.8987 18.4485C14.9152 18.4485 14.954 18.4311 14.9847 18.4098C15.0156 18.3886 15.0574 18.3712 15.0778 18.3712C15.0982 18.3712 15.1201 18.3538 15.1264 18.3325C15.1328 18.3111 15.1565 18.2938 15.1794 18.2938C15.2062 18.2938 15.2209 18.2802 15.2209 18.2552C15.2209 18.2268 15.2356 18.2165 15.2759 18.2165C15.3061 18.2165 15.349 18.2006 15.3711 18.1812C15.3932 18.1618 15.4279 18.1403 15.4482 18.1335C15.4684 18.1267 15.485 18.1088 15.485 18.0937C15.485 18.0787 15.5048 18.0618 15.529 18.0563C15.5532 18.0507 15.573 18.0333 15.573 18.0176C15.573 18.0019 15.5928 17.9845 15.617 17.9789C15.6413 17.9734 15.6611 17.955 15.6611 17.938C15.6611 17.9211 15.6753 17.9072 15.6926 17.9072C15.7099 17.9072 15.7304 17.8898 15.7381 17.8686C15.7458 17.8473 15.7663 17.8299 15.7836 17.8299C15.8009 17.8299 15.8151 17.8125 15.8151 17.7912C15.8151 17.7655 15.8298 17.7526 15.8592 17.7526C15.8873 17.7526 15.9032 17.7397 15.9032 17.7169C15.9032 17.6973 15.923 17.6655 15.9472 17.6463C15.9714 17.627 15.9912 17.5962 15.9912 17.5779C15.9912 17.5595 16.011 17.5399 16.0352 17.5343C16.065 17.5275 16.0793 17.5079 16.0793 17.4743C16.0793 17.4452 16.0977 17.4141 16.1233 17.4001C16.1546 17.3829 16.1673 17.355 16.1673 17.3033C16.1673 17.2435 16.1751 17.2306 16.2113 17.2306C16.2478 17.2306 16.2553 17.2177 16.2553 17.1556C16.2553 17.0968 16.2649 17.0783 16.2994 17.0704C16.3385 17.0614 16.3434 17.044 16.3434 16.9135C16.3434 16.7968 16.35 16.7667 16.376 16.7667C16.4502 16.7667 16.4559 15.6458 16.3819 15.5983C16.3483 15.5767 16.3434 15.5378 16.3434 15.2907C16.3434 15.0288 16.3401 15.0061 16.2994 14.9837C16.2605 14.9624 16.2553 14.9387 16.2553 14.7819C16.2553 14.6212 16.2512 14.6031 16.2113 14.592C16.1716 14.5809 16.1673 14.5627 16.1673 14.4052C16.1673 14.247 16.1632 14.2298 16.1233 14.2206C16.0845 14.2117 16.0793 14.1942 16.0793 14.0756C16.0793 13.957 16.074 13.9395 16.0352 13.9306C15.9975 13.922 15.9912 13.9043 15.9912 13.8068C15.9912 13.706 15.9862 13.6931 15.9472 13.6931C15.9081 13.6931 15.9032 13.6802 15.9032 13.5771C15.9032 13.474 15.8983 13.4611 15.8592 13.4611C15.821 13.4611 15.8151 13.4482 15.8151 13.3638C15.8151 13.2952 15.8054 13.2633 15.7821 13.2555C15.764 13.2493 15.749 13.2257 15.7488 13.2029C15.7483 13.1332 15.7234 13.0745 15.6944 13.0745C15.6778 13.0745 15.6621 13.0381 15.6552 12.9838C15.6487 12.934 15.6292 12.884 15.6117 12.8727C15.5942 12.8614 15.573 12.8195 15.5644 12.7797C15.555 12.7354 15.5366 12.7072 15.517 12.7072C15.4949 12.7072 15.485 12.6856 15.485 12.6377C15.485 12.5845 15.4747 12.5659 15.441 12.5581C15.4076 12.5505 15.3969 12.5318 15.3969 12.4808C15.3969 12.4299 15.3863 12.4112 15.3529 12.4035C15.3219 12.3963 15.3089 12.3771 15.3089 12.3383C15.3089 12.3031 15.2931 12.2758 15.2649 12.2626C15.2407 12.2512 15.2209 12.2261 15.2209 12.2069C15.2209 12.1877 15.201 12.1561 15.1768 12.1369C15.1526 12.1177 15.1328 12.0859 15.1328 12.0663C15.1328 12.0435 15.1169 12.0306 15.0888 12.0306C15.0521 12.0306 15.0448 12.0177 15.0448 11.9533C15.0448 11.8888 15.0375 11.8759 15.0008 11.8759C14.9763 11.8759 14.9567 11.863 14.9567 11.8469C14.9567 11.831 14.9369 11.8006 14.9127 11.7793C14.8885 11.758 14.8687 11.7189 14.8687 11.6923C14.8687 11.6622 14.8562 11.644 14.8357 11.644C14.8175 11.644 14.8027 11.6312 14.8027 11.6157C14.8027 11.6001 14.7829 11.578 14.7586 11.5666C14.7344 11.5553 14.7146 11.5288 14.7146 11.5078C14.7146 11.4868 14.6948 11.4547 14.6706 11.4365C14.6464 11.4183 14.6266 11.3929 14.6266 11.38C14.6266 11.3672 14.6068 11.3511 14.5826 11.3443C14.5583 11.3376 14.5385 11.3217 14.5385 11.309C14.5385 11.2964 14.5201 11.2759 14.4976 11.2635C14.4751 11.2512 14.4506 11.2143 14.4431 11.1816C14.4351 11.1463 14.4159 11.122 14.396 11.122C14.3771 11.122 14.3625 11.1051 14.3625 11.0834C14.3625 11.0576 14.3478 11.0447 14.3184 11.0447C14.2891 11.0447 14.2744 11.0318 14.2744 11.006C14.2744 10.9803 14.2597 10.9674 14.2304 10.9674C14.2011 10.9674 14.1864 10.9545 14.1864 10.9287C14.1864 10.903 14.1717 10.8901 14.1424 10.8901C14.113 10.8901 14.0983 10.8772 14.0983 10.8514C14.0983 10.8256 14.0836 10.8127 14.0543 10.8127C14.025 10.8127 14.0103 10.7998 14.0103 10.7741C14.0103 10.7528 13.9961 10.7354 13.9788 10.7354C13.9614 10.7354 13.941 10.718 13.9333 10.6968C13.9256 10.6755 13.9062 10.6581 13.8903 10.6581C13.8744 10.6581 13.8562 10.6407 13.8498 10.6194C13.8435 10.5982 13.8237 10.5808 13.8058 10.5808C13.7879 10.5808 13.7681 10.5634 13.7618 10.5421C13.7555 10.5208 13.7345 10.5034 13.7152 10.5034C13.6959 10.5034 13.6801 10.4904 13.6801 10.4744C13.6801 10.4584 13.6606 10.4454 13.6361 10.4454C13.6068 10.4454 13.5921 10.4325 13.5921 10.4068C13.5921 10.381 13.5774 10.3681 13.5481 10.3681C13.5188 10.3681 13.5041 10.3552 13.5041 10.3295C13.5041 10.3037 13.4894 10.2908 13.46 10.2908C13.4352 10.2908 13.416 10.2779 13.416 10.2612C13.416 10.2449 13.3987 10.2261 13.3775 10.2194C13.3563 10.2128 13.3213 10.1913 13.2996 10.1717C13.278 10.1521 13.2359 10.1362 13.206 10.1362C13.1666 10.1362 13.1519 10.1257 13.1519 10.0975C13.1519 10.0717 13.1372 10.0588 13.1079 10.0588C13.0785 10.0588 13.0639 10.0459 13.0639 10.0202C13.0639 9.996 13.0492 9.9815 13.0247 9.9815C13.0032 9.9815 12.9687 9.96411 12.9479 9.94284C12.9272 9.92158 12.8915 9.90418 12.8686 9.90418C12.8454 9.90418 12.8217 9.88702 12.8154 9.86552C12.809 9.84425 12.7871 9.82686 12.7668 9.82686C12.7464 9.82686 12.7045 9.80946 12.6737 9.78819C12.6429 9.76693 12.6042 9.74953 12.5877 9.74953C12.5712 9.74953 12.5576 9.73759 12.5576 9.723C12.5576 9.707 12.5227 9.69159 12.4696 9.6841C12.4126 9.67612 12.3815 9.66158 12.3815 9.64297C12.3815 9.62228 12.3568 9.61421 12.2935 9.61421C12.2201 9.61421 12.2055 9.60779 12.2055 9.57555C12.2055 9.54438 12.1908 9.53689 12.1299 9.53689C12.0737 9.53689 12.0508 9.52698 12.0404 9.49823C12.03 9.46967 12.0071 9.45957 11.9523 9.45957C11.8976 9.45957 11.8746 9.44947 11.8643 9.4209C11.8531 9.38993 11.831 9.38224 11.7529 9.38224C11.6794 9.38224 11.6488 9.37277 11.6281 9.34358C11.6068 9.31371 11.5767 9.30492 11.496 9.30492C11.4153 9.30492 11.3852 9.29612 11.3639 9.26626C11.3421 9.23557 11.3126 9.22759 11.2207 9.22759C11.1343 9.22759 11.0938 9.21778 11.0609 9.18893C11.0243 9.15675 10.9876 9.15027 10.8419 9.15027C10.6981 9.15027 10.6631 9.14423 10.6454 9.11644C10.6237 9.08232 9.19478 9.05473 9.10201 9.08657Z" fill="white" fill-opacity="0.4"/>
</g>
<defs>
<clipPath id="clip0_2096_2173">
<rect width="20" height="20" fill="white"/>
</clipPath>
</defs>
</svg>
