<svg width="25" height="15" viewBox="0 0 25 15" fill="none" xmlns="http://www.w3.org/2000/svg">
<path d="M12.5 14.6861C12.201 14.6861 11.9111 14.63 11.63 14.5179C11.349 14.4058 11.1158 14.2564 10.9305 14.0695L0.616591 3.75561C0.20553 3.34454 0 2.82137 0 2.1861C0 1.55082 0.20553 1.02765 0.616591 0.616591C1.02765 0.20553 1.55082 0 2.1861 0C2.82137 0 3.34454 0.20553 3.75561 0.616591L12.5 9.36099L21.2444 0.616591C21.6555 0.20553 22.1786 0 22.8139 0C23.4492 0 23.9723 0.20553 24.3834 0.616591C24.7945 1.02765 25 1.55082 25 2.1861C25 2.82137 24.7945 3.34454 24.3834 3.75561L14.0695 14.0695C13.8453 14.2937 13.6024 14.4529 13.3408 14.5471C13.0792 14.6413 12.799 14.6876 12.5 14.6861Z" fill="#094DB3"/>
</svg>
