<svg width="24" height="24" viewBox="0 0 24 24" fill="none" xmlns="http://www.w3.org/2000/svg">
<path d="M14.3253 18.5C14.2751 18.7039 14.2497 18.9137 14.25 19.125L14.3253 18.5ZM14.3253 18.5H14.5041V18L14.0529 17.7845C14.0191 17.8553 13.988 17.9271 13.9598 18H10.7899C10.7618 17.9275 10.731 17.8559 10.6975 17.7853L10.2459 18V18.5H10.4242C10.4968 18.7952 10.518 19.102 10.4853 19.407C10.4336 19.889 10.2494 20.3474 9.9531 20.7312C9.65682 21.115 9.26003 21.4092 8.80673 21.5813C8.35344 21.7533 7.86134 21.7965 7.38502 21.7059C6.9087 21.6154 6.46676 21.3947 6.10821 21.0683C5.74966 20.7419 5.48851 20.3226 5.35371 19.8569C5.21892 19.3912 5.21575 18.8972 5.34455 18.4298C5.47336 17.9623 5.72911 17.5397 6.08344 17.2087C5.82671 16.9067 5.65434 16.5422 5.58375 16.1522L14.3253 18.5ZM20.442 5.83969L20.4434 5.84137C20.467 5.86942 20.4842 5.90232 20.4937 5.93774C20.5032 5.97302 20.5048 6.00994 20.4985 6.0459C20.4984 6.04606 20.4984 6.04621 20.4984 6.04637L19.3587 12.3127L19.3587 12.3128C19.2854 12.716 19.073 13.0808 18.7584 13.3434C18.4438 13.606 18.047 13.7499 17.6372 13.75C17.6372 13.75 17.6371 13.75 17.6371 13.75H6.76219H6.16305L6.27026 14.3395L6.56743 15.9734C6.56743 15.9735 6.56744 15.9735 6.56744 15.9735C6.61979 16.2615 6.77153 16.522 6.99623 16.7096C7.22095 16.8972 7.50438 17 7.79711 17H7.79719H16.875C17.2953 17 17.7061 17.1246 18.0556 17.3581C18.405 17.5916 18.6774 17.9235 18.8382 18.3118C18.9991 18.7001 19.0412 19.1274 18.9592 19.5396C18.8772 19.9518 18.6748 20.3304 18.3776 20.6276C18.0804 20.9248 17.7018 21.1272 17.2896 21.2092C16.8774 21.2912 16.4501 21.2491 16.0618 21.0882L15.8705 21.5502L16.0618 21.0882C15.6735 20.9274 15.3416 20.655 15.1081 20.3056C14.8746 19.9561 14.75 19.5453 14.75 19.125L14.75 19.1243C14.7496 18.8098 14.8197 18.4993 14.9552 18.2155L15.297 17.5H14.5041H10.2459H9.45459L9.79437 18.2147C9.9629 18.5692 10.03 18.9634 9.98812 19.3537C9.94628 19.7439 9.79716 20.115 9.55732 20.4256C9.31747 20.7363 8.99626 20.9745 8.6293 21.1138C8.26235 21.2531 7.86399 21.288 7.4784 21.2147C7.0928 21.1414 6.73504 20.9628 6.44479 20.6986C6.15453 20.4344 5.94312 20.0949 5.834 19.7179C5.72488 19.3409 5.72232 18.941 5.82659 18.5626C5.93086 18.1842 6.13789 17.8421 6.42473 17.5742L6.77342 17.2485L6.4644 16.8849C6.26473 16.65 6.13066 16.3665 6.07576 16.0632L6.07565 16.0626L3.6794 2.91038L3.60463 2.5H3.1875H1.5C1.4337 2.5 1.37011 2.47366 1.32322 2.42678C1.27634 2.37989 1.25 2.3163 1.25 2.25C1.25 2.1837 1.27634 2.12011 1.32322 2.07322C1.37011 2.02634 1.4337 2 1.5 2H3.19212C3.19214 2 3.19216 2 3.19219 2C3.42635 2.00005 3.65307 2.08227 3.83283 2.23234C4.0126 2.38242 4.134 2.59083 4.17587 2.82125L4.1759 2.82143L4.63434 5.33956L4.70906 5.75H5.12625H20.25H20.2501C20.2867 5.74999 20.3228 5.75802 20.356 5.77352C20.3891 5.78902 20.4185 5.8116 20.442 5.83969ZM17.7778 17.7739C17.5106 17.5953 17.1964 17.5 16.875 17.5C16.444 17.5 16.0307 17.6712 15.726 17.976C15.4212 18.2807 15.25 18.694 15.25 19.125C15.25 19.4464 15.3453 19.7606 15.5239 20.0278C15.7024 20.295 15.9562 20.5033 16.2531 20.6263C16.5501 20.7493 16.8768 20.7815 17.192 20.7188C17.5072 20.6561 17.7968 20.5013 18.024 20.274C18.2513 20.0468 18.4061 19.7572 18.4688 19.442C18.5315 19.1268 18.4993 18.8001 18.3763 18.5031C18.2533 18.2062 18.045 17.9524 17.7778 17.7739ZM8.7778 17.7739C8.51057 17.5953 8.1964 17.5 7.875 17.5C7.44402 17.5 7.0307 17.6712 6.72595 17.976C6.42121 18.2807 6.25 18.694 6.25 19.125C6.25 19.4464 6.3453 19.7606 6.52386 20.0278C6.70242 20.295 6.95621 20.5033 7.25314 20.6263C7.55007 20.7493 7.8768 20.7815 8.19202 20.7188C8.50724 20.6561 8.79679 20.5013 9.02405 20.274C9.25131 20.0468 9.40608 19.7572 9.46878 19.442C9.53148 19.1268 9.4993 18.8001 9.3763 18.5031C9.25331 18.2062 9.04503 17.9524 8.7778 17.7739Z" fill="#FDE18B" stroke="#094DB3"/>
</svg>
