<svg width="32" height="32" viewBox="0 0 32 32" fill="none" xmlns="http://www.w3.org/2000/svg">
<path fill-rule="evenodd" clip-rule="evenodd" d="M21.3337 12C21.3337 13.4145 20.7718 14.7711 19.7716 15.7713C18.7714 16.7715 17.4148 17.3334 16.0003 17.3334C14.5858 17.3334 13.2293 16.7715 12.2291 15.7713C11.2289 14.7711 10.667 13.4145 10.667 12C10.667 10.5855 11.2289 9.22898 12.2291 8.22878C13.2293 7.22859 14.5858 6.66669 16.0003 6.66669C17.4148 6.66669 18.7714 7.22859 19.7716 8.22878C20.7718 9.22898 21.3337 10.5855 21.3337 12ZM18.667 12C18.667 12.7073 18.386 13.3855 17.8859 13.8856C17.3858 14.3857 16.7076 14.6667 16.0003 14.6667C15.2931 14.6667 14.6148 14.3857 14.1147 13.8856C13.6146 13.3855 13.3337 12.7073 13.3337 12C13.3337 11.2928 13.6146 10.6145 14.1147 10.1144C14.6148 9.61431 15.2931 9.33335 16.0003 9.33335C16.7076 9.33335 17.3858 9.61431 17.8859 10.1144C18.386 10.6145 18.667 11.2928 18.667 12Z" fill="white"/>
<path fill-rule="evenodd" clip-rule="evenodd" d="M16.0002 1.33334C7.90016 1.33334 1.3335 7.90001 1.3335 16C1.3335 24.1 7.90016 30.6667 16.0002 30.6667C24.1002 30.6667 30.6668 24.1 30.6668 16C30.6668 7.90001 24.1002 1.33334 16.0002 1.33334ZM4.00016 16C4.00016 18.7867 4.95083 21.352 6.54416 23.3893C7.66314 21.9199 9.1067 20.729 10.7621 19.9098C12.4175 19.0905 14.2398 18.6651 16.0868 18.6667C17.9099 18.6649 19.7094 19.0794 21.3481 19.8784C22.9868 20.6774 24.4214 21.8399 25.5428 23.2773C26.6981 21.7621 27.4759 19.9936 27.812 18.1181C28.1481 16.2426 28.0327 14.3141 27.4755 12.492C26.9182 10.6699 25.9351 9.00674 24.6075 7.64006C23.2798 6.27338 21.6458 5.24249 19.8407 4.63269C18.0355 4.02289 16.1111 3.85171 14.2266 4.13331C12.3422 4.41491 10.5519 5.1412 9.00385 6.25208C7.45583 7.36296 6.19458 8.8265 5.32447 10.5216C4.45436 12.2167 4.0004 14.0946 4.00016 16ZM16.0002 28C13.2454 28.0041 10.5739 27.0565 8.4375 25.3173C9.2974 24.0863 10.4419 23.0812 11.7738 22.3876C13.1056 21.6939 14.5852 21.3323 16.0868 21.3333C17.5697 21.3322 19.0315 21.6848 20.3507 22.3619C21.67 23.039 22.8087 24.0212 23.6722 25.2267C21.5192 27.0223 18.8036 28.0039 16.0002 28Z" fill="white"/>
</svg>
