<svg width="24" height="24" viewBox="0 0 24 24" fill="none" xmlns="http://www.w3.org/2000/svg">
<g opacity="0.5">
<path d="M4 21C3.45 21 2.979 20.804 2.587 20.412C2.195 20.02 1.99934 19.5493 2 19V7C2 6.45 2.196 5.979 2.588 5.587C2.98 5.195 3.45067 4.99933 4 5H7.15L9 3H15V6C15.55 6 16.021 6.196 16.413 6.588C16.805 6.98 17.0007 7.45067 17 8H22V19C22 19.55 21.804 20.021 21.412 20.413C21.02 20.805 20.5493 21.0007 20 21H4ZM12 17.5C13.25 17.5 14.3127 17.0623 15.188 16.187C16.0633 15.3117 16.5007 14.2493 16.5 13C16.5 11.75 16.0623 10.6873 15.187 9.812C14.3117 8.93667 13.2493 8.49933 12 8.5C10.75 8.5 9.68734 8.93767 8.812 9.813C7.93667 10.6883 7.49934 11.7507 7.5 13C7.5 14.25 7.93767 15.3127 8.813 16.188C9.68833 17.0633 10.7507 17.5007 12 17.5ZM12 15.5C11.3 15.5 10.7083 15.2583 10.225 14.775C9.74167 14.2917 9.5 13.7 9.5 13C9.5 12.3 9.74167 11.7083 10.225 11.225C10.7083 10.7417 11.3 10.5 12 10.5C12.7 10.5 13.2917 10.7417 13.775 11.225C14.2583 11.7083 14.5 12.3 14.5 13C14.5 13.7 14.2583 14.2917 13.775 14.775C13.2917 15.2583 12.7 15.5 12 15.5ZM20.65 7C20.65 5.7 20.2 4.6 19.3 3.7C18.4 2.8 17.3 2.35 16 2.35V1C17.6667 1 19.0833 1.58333 20.25 2.75C21.4167 3.91667 22 5.33333 22 7H20.65ZM18 7C18 6.45 17.804 5.979 17.412 5.587C17.02 5.195 16.5493 4.99933 16 5V3.65C16.9167 3.65 17.6957 3.975 18.337 4.625C18.9783 5.275 19.316 6.06667 19.35 7H18Z" fill="black"/>
</g>
</svg>
