<svg width="21" height="22" viewBox="0 0 21 22" fill="none" xmlns="http://www.w3.org/2000/svg">
<path opacity="0.2" d="M4.55822 6.2285L2.7358 15.021C2.45153 16.3925 3.57424 17.6662 5.06728 17.6662H6.93737H14.0622H15.9323C17.4253 17.6662 18.5481 16.3924 18.2638 15.021L16.4413 6.2285C16.4385 6.21495 16.4359 6.20293 16.4326 6.18948C16.3496 5.84988 15.0834 0.999977 10.4998 0.999977C5.91621 0.999977 4.64996 5.84987 4.5669 6.18948C4.56361 6.20293 4.56104 6.21495 4.55822 6.2285Z" fill="#FDE18B"/>
<path d="M6.93758 17.6662C6.93758 17.6662 6.93758 20.9995 10.5551 20.9995C14.1727 20.9995 14.1727 17.6662 14.1727 17.6662" fill="#FDE18B"/>
<path d="M6.93758 17.6662C6.93758 17.6662 6.93758 20.9995 10.5551 20.9995C14.1727 20.9995 14.1727 17.6662 14.1727 17.6662" stroke="#094DB3" stroke-width="2" stroke-linejoin="round"/>
<path d="M4.55822 6.2285L2.7358 15.021C2.45153 16.3925 3.57424 17.6662 5.06728 17.6662H6.93737H14.0622H15.9323C17.4253 17.6662 18.5481 16.3924 18.2638 15.021L16.4413 6.2285C16.4385 6.21495 16.4359 6.20293 16.4326 6.18948C16.3496 5.84988 15.0834 0.999977 10.4998 0.999977C5.91621 0.999977 4.64996 5.84987 4.5669 6.18948C4.56361 6.20293 4.56104 6.21495 4.55822 6.2285Z" fill="#FDE18B" stroke="#094DB3" stroke-width="2" stroke-linejoin="round"/>
<path d="M19.9998 5.44432C19.406 3.22215 18.8123 2.11106 17.6248 0.999977L19.9998 5.44432Z" fill="#FDE18B"/>
<path d="M19.9998 5.44432C19.406 3.22215 18.8123 2.11106 17.6248 0.999977" stroke="#094DB3" stroke-width="2" stroke-linecap="round" stroke-linejoin="round"/>
<path d="M1.00022 5.44432C1.59395 3.22215 2.18769 2.11106 3.37515 0.999977L1.00022 5.44432Z" fill="#FDE18B"/>
<path d="M1.00022 5.44432C1.59395 3.22215 2.18769 2.11106 3.37515 0.999977" stroke="#094DB3" stroke-width="2" stroke-linecap="round" stroke-linejoin="round"/>
</svg>
