<svg width="48" height="33" viewBox="0 0 48 33" fill="none" xmlns="http://www.w3.org/2000/svg">
<path fill-rule="evenodd" clip-rule="evenodd" d="M12.6377 0.0569813C7.76853 0.492748 4.87425 5.61832 7.07191 9.9136C7.52234 10.7939 8.29341 11.7028 9.11435 12.3212C9.51864 12.6258 9.51418 12.5406 9.16551 13.2914C9.05154 13.5366 8.95841 13.7496 8.95841 13.7648C8.95841 13.78 8.82906 14.0673 8.67097 14.4033C8.51287 14.7394 8.38352 15.0235 8.38352 15.0349C8.38352 15.0462 8.32143 15.1921 8.24555 15.359C8.16966 15.526 7.88753 16.154 7.61863 16.7548C7.34972 17.3555 7.0367 18.0477 6.92301 18.2929C6.80933 18.5381 6.71634 18.7497 6.71634 18.7632C6.71634 18.7767 6.64146 18.9512 6.55005 19.1509C6.4585 19.3507 6.33174 19.6307 6.26821 19.773C6.20455 19.9152 5.96898 20.4413 5.74463 20.942C5.52014 21.4427 5.33661 21.876 5.33661 21.9049C5.33661 21.936 6.39268 21.9571 7.90924 21.9565L10.4819 21.9555L10.6219 21.626C10.6989 21.4447 10.8735 21.0547 11.0099 20.7593C11.1463 20.464 11.258 20.2127 11.258 20.201C11.258 20.1893 11.3744 19.9306 11.5167 19.6261C11.659 19.3217 11.7754 19.0638 11.7754 19.0532C11.7754 19.0427 11.8625 18.8445 11.9688 18.613C12.0752 18.3814 12.4149 17.6229 12.7238 16.9273C13.0327 16.2316 13.3618 15.4943 13.4552 15.2888C13.5486 15.0833 13.6597 14.8375 13.702 14.7427C13.7442 14.6478 13.8695 14.3697 13.9806 14.1247L14.1824 13.6791H15.221H16.2595V17.8183V21.9575H18.6166H20.9736V15.6069V9.25607L16.8775 9.23998L12.7814 9.22374L12.3882 9.02842C10.5428 8.11161 10.6906 5.62392 12.6377 4.82684C12.8041 4.75857 13.5414 4.74089 16.9068 4.72451L20.9749 4.70453L20.9598 2.36502L20.9449 0.0255059L17.0356 0.0194695C14.8855 0.0160202 12.9065 0.0329797 12.6377 0.0569813ZM26.693 0.0643115C26.6768 0.106278 26.6705 1.16249 26.6787 2.41144L26.6938 4.68211L30.7467 4.711C34.0133 4.73414 34.8332 4.75512 34.9722 4.81865C35.067 4.86205 35.2093 4.9263 35.2884 4.96151C36.8979 5.67624 37.0228 8.07037 35.4952 8.92422C34.937 9.2361 35.1452 9.22173 30.7755 9.25248L26.6938 9.28123L26.6791 15.62L26.6644 21.9588L29.0361 21.9437L31.4079 21.9288L31.4227 17.804L31.4373 13.6791H32.4747H33.5121L33.6003 13.8947C33.6488 14.0133 33.7898 14.3263 33.9135 14.5902C34.0373 14.8542 34.1386 15.0797 34.1386 15.0915C34.1386 15.1033 34.201 15.2496 34.2773 15.4164C34.3536 15.5835 34.5189 15.9528 34.6448 16.2374C34.7707 16.522 34.951 16.9229 35.0456 17.1285C35.1402 17.334 35.3783 17.8643 35.5748 18.307C35.7711 18.7497 36.007 19.2754 36.0988 19.4752C36.1905 19.6749 36.2657 19.8473 36.2657 19.858C36.2657 19.8688 36.3538 20.0676 36.4616 20.2996C36.6563 20.7194 36.8947 21.2471 37.1 21.7132L37.2076 21.9575H39.7836C41.2004 21.9575 42.3595 21.9478 42.3595 21.9358C42.3595 21.9058 42.2014 21.5265 42.0452 21.1814C41.9735 21.0233 41.8627 20.7776 41.7988 20.6353C41.4941 19.9562 41.4128 19.7761 41.2596 19.441C41.1689 19.2425 41.0947 19.0709 41.0947 19.0594C41.0947 19.048 40.9816 18.7964 40.8432 18.5003C40.705 18.2042 40.4555 17.6516 40.289 17.2722C40.1225 16.8928 39.9277 16.453 39.8564 16.2949C39.7851 16.1368 39.5663 15.6453 39.3699 15.2026C39.1738 14.7599 38.9125 14.1817 38.7893 13.9179C38.666 13.6538 38.5652 13.4282 38.5652 13.4163C38.5652 13.4043 38.4876 13.2251 38.3928 13.018C38.1746 12.5419 38.1671 12.5811 38.5221 12.3445C41.1669 10.5825 42.0871 6.73849 40.5789 3.7528C39.6236 1.86185 37.959 0.635895 35.662 0.131573C35.0946 0.00696552 26.739 -0.0556967 26.693 0.0643115ZM12.6664 26.2604C10.1778 27.0827 9.88456 31.3301 12.2387 32.4563C12.717 32.6851 12.8156 32.708 13.3274 32.708C13.8652 32.708 14.2263 32.6363 14.8367 32.4082L14.9948 32.3491V31.6086C14.9948 31.2015 14.9735 30.8683 14.9475 30.8683C14.9215 30.8683 14.7563 30.9462 14.5803 31.0415C13.0899 31.8488 11.934 31.1733 11.9233 29.4886C11.9122 27.7485 12.9576 27.0853 14.4995 27.854C14.7171 27.9625 14.9176 28.0514 14.945 28.0514C14.9723 28.0514 14.9948 27.7182 14.9948 27.3111V26.5709L14.7217 26.4553C13.9867 26.1443 13.2342 26.0729 12.6664 26.2604ZM0.0615617 26.2594C0.0045039 26.2957 -0.00771273 26.975 0.00407251 29.4636L0.018876 32.6217L0.589023 32.6383C1.30375 32.6591 1.25719 32.7491 1.24727 31.3696C1.2362 29.8432 1.16621 29.8396 2.09552 31.4145C2.8995 32.777 2.7532 32.6485 3.5017 32.6496C4.17346 32.6506 4.2058 32.6404 4.10835 32.4596C3.99927 32.2568 3.21526 30.9319 2.94305 30.4898C2.63908 29.9965 2.63937 30.0018 2.9077 29.8002C3.9872 28.9893 3.94552 27.1226 2.83325 26.4667C2.46704 26.2508 0.327304 26.0907 0.0615617 26.2594ZM6.28517 26.5335C6.0887 26.9779 6.11112 27.0138 6.58699 27.0158C6.84238 27.0169 6.79668 27.1981 5.971 29.4598C5.90172 29.6496 5.82368 29.8695 5.79752 29.9485C5.77137 30.0275 5.59042 30.545 5.39553 31.0983C5.20079 31.6516 5.00561 32.2061 4.96206 32.3304C4.85341 32.6406 4.86922 32.6505 5.47673 32.6505C6.10236 32.6505 6.06988 32.6758 6.28934 32.0181C6.51872 31.3311 6.40461 31.3857 7.61029 31.3857H8.66263L8.84185 31.86C8.94059 32.1209 9.04896 32.4054 9.08302 32.4924C9.14467 32.6499 9.14683 32.6505 9.70936 32.6505C10.4077 32.6505 10.3938 32.6674 10.1614 32.1043C10.1354 32.0411 10.0757 31.8729 10.029 31.7307C9.98229 31.5884 9.84992 31.2133 9.73466 30.8971C9.61953 30.5809 9.44735 30.1023 9.35235 29.8335C9.25721 29.5648 9.06275 29.0215 8.92018 28.6263C8.77761 28.231 8.59623 27.7266 8.51718 27.5052C8.43828 27.2839 8.35866 27.064 8.3404 27.0166C8.32215 26.9691 8.25101 26.7751 8.18231 26.5854L8.05727 26.2405L7.24308 26.2245L6.4289 26.2086L6.28517 26.5335ZM20.782 26.2501C20.7609 26.2711 20.7436 27.7207 20.7436 29.4713V32.6544L21.3617 32.6381L21.9797 32.6217L21.9952 31.4001C22.0123 30.0523 22.042 29.9606 22.3134 30.4228C22.535 30.8005 23.6086 32.4979 23.6769 32.5786C23.7378 32.6508 25.1128 32.6889 25.1128 32.6184C25.1128 32.5588 24.8448 32.1084 24.2339 31.1413C23.4774 29.9432 23.4942 29.9941 23.789 29.799C24.9116 29.0561 24.862 27.1458 23.7023 26.4663C23.3488 26.259 20.9506 26.0815 20.782 26.2501ZM26.1741 26.2836C26.1588 26.3231 26.1532 27.7654 26.1614 29.4886L26.1764 32.6217H27.8435H29.5107L29.527 32.005L29.5433 31.3885L28.5209 31.3727L27.4986 31.357L27.4824 30.7102L27.4661 30.0635L28.4309 30.0626C29.6199 30.0615 29.5478 30.1053 29.5272 29.3976L29.5107 28.8275L28.5047 28.7987L27.4986 28.77V28.1376V27.5052L28.519 27.4896L29.5395 27.4739V26.8777C29.5395 26.3871 29.5234 26.2754 29.4485 26.2466C29.2575 26.1733 26.2029 26.2078 26.1741 26.2836ZM30.6608 26.2765C30.6443 26.3199 30.6374 27.7654 30.6455 29.4886L30.6605 32.6217H31.2641H31.8678L31.8833 31.409L31.8988 30.1963L32.4977 30.1395C33.2199 30.0711 33.7362 29.8515 34.0216 29.4912C34.8464 28.4496 34.5233 26.7948 33.4106 26.3621C33.0402 26.218 30.7109 26.1456 30.6608 26.2765ZM36.2145 26.4561C35.9904 26.9792 36.007 27.0138 36.4813 27.0158C36.7187 27.0167 36.718 27.0443 36.4618 27.7773C36.3485 28.102 36.2342 28.4322 36.208 28.5113C36.1817 28.5903 36.0655 28.9137 35.9493 29.2299C35.8334 29.5461 35.6911 29.9471 35.6331 30.121C35.5754 30.2949 35.368 30.8899 35.1724 31.4432C34.7106 32.7498 34.6876 32.6186 35.3812 32.638L35.9627 32.6544L36.0239 32.4943C36.0577 32.4063 36.159 32.1273 36.2491 31.8744L36.4128 31.4145H37.4997H38.5864L38.6814 31.6732C38.7337 31.8155 38.7959 31.9836 38.8199 32.0468C38.8439 32.1101 38.8912 32.2394 38.9253 32.3343C39.0339 32.638 39.0615 32.6505 39.6262 32.6505C40.2229 32.6505 40.24 32.6436 40.1751 32.4306C40.1087 32.2133 39.7747 31.2649 39.7159 31.127C39.6634 31.0044 39.4911 30.529 39.1944 29.6898C39.0938 29.4052 38.8998 28.862 38.763 28.4825C38.6263 28.1031 38.3964 27.46 38.2519 27.0534C38.1075 26.6468 37.9751 26.2911 37.9577 26.2629C37.9403 26.2347 37.5645 26.2117 37.1225 26.2117H36.3191L36.2145 26.4561ZM41.2812 26.2594C41.2241 26.2957 41.2119 26.975 41.2237 29.4636L41.2385 32.6217H41.8708H42.5032L42.518 29.4636C42.5298 26.975 42.5176 26.2957 42.4605 26.2594C42.4209 26.2341 42.1554 26.2134 41.8708 26.2134C41.5863 26.2134 41.3208 26.2341 41.2812 26.2594ZM43.7532 26.2554C43.6961 26.2948 43.6839 26.9768 43.6957 29.4636L43.7105 32.6217H44.3429H44.9752L44.9908 31.4001C45.0024 30.478 45.0237 30.1792 45.077 30.1816C45.116 30.1833 45.4194 30.6269 45.7514 31.1673C46.0834 31.7077 46.4286 32.2624 46.5185 32.4001L46.6819 32.6505H47.3665C48.2222 32.6505 48.2297 32.7629 47.2748 31.2623C46.3981 29.8845 46.4473 29.9938 46.6568 29.8884C47.9602 29.2336 47.8314 26.8892 46.4632 26.3623C46.1546 26.2435 43.8993 26.1545 43.7532 26.2554ZM2.0044 27.4909C2.80149 27.8927 2.47509 29.0287 1.5626 29.0287H1.25489V28.2335C1.25489 27.796 1.27214 27.4209 1.29326 27.3999C1.3749 27.3182 1.75979 27.3674 2.0044 27.4909ZM22.8733 27.4959C23.6902 27.8865 23.2637 29.0718 22.3259 29.0169L22.0371 28.9999L22.0209 28.2556C22.0121 27.8463 22.0189 27.4745 22.0363 27.4293C22.078 27.3207 22.5924 27.3616 22.8733 27.4959ZM32.6512 27.4427C33.5233 27.808 33.1972 29.0673 32.2436 29.0168L31.9253 28.9999L31.909 28.2556C31.9002 27.8463 31.9058 27.4776 31.9217 27.4364C31.9603 27.3355 32.4044 27.3394 32.6512 27.4427ZM45.7716 27.4729C46.6335 27.8423 46.3005 29.0278 45.3346 29.0285L45.004 29.0287V28.1951V27.3615H45.2579C45.3976 27.3615 45.6288 27.4117 45.7716 27.4729ZM7.97736 29.4164C8.29858 30.3048 8.3279 30.243 7.59305 30.2236C7.0847 30.2101 6.97648 30.192 6.98352 30.121C6.99416 30.0126 7.44717 28.701 7.53542 28.5231C7.61101 28.3706 7.56689 28.2813 7.97736 29.4164ZM37.5582 28.5544C37.7148 28.9489 38.1053 30.0921 38.1053 30.1566C38.1053 30.219 37.9767 30.2359 37.5017 30.2359H36.898V30.0669C36.898 29.9739 36.9239 29.8818 36.9555 29.8623C36.9872 29.8427 37.013 29.7687 37.013 29.6979C37.013 29.627 37.0346 29.5445 37.0609 29.5145C37.0873 29.4844 37.1825 29.2335 37.2723 28.9568C37.4389 28.4442 37.4873 28.376 37.5582 28.5544Z" fill="white"/>
</svg>
