<svg width="66" height="56" viewBox="0 0 66 56" fill="none" xmlns="http://www.w3.org/2000/svg">
<rect width="66" height="56" rx="12" fill="black"/>
<path fill-rule="evenodd" clip-rule="evenodd" d="M21.6377 11.703C16.7685 12.1387 13.8742 17.2643 16.0719 21.5596C16.5223 22.4399 17.2934 23.3488 18.1143 23.9672C18.5186 24.2718 18.5142 24.1866 18.1655 24.9374C18.0515 25.1826 17.9584 25.3956 17.9584 25.4108C17.9584 25.426 17.8291 25.7133 17.671 26.0493C17.5129 26.3854 17.3835 26.6695 17.3835 26.6809C17.3835 26.6922 17.3214 26.8381 17.2455 27.005C17.1697 27.172 16.8875 27.8 16.6186 28.4008C16.3497 29.0015 16.0367 29.6937 15.923 29.9389C15.8093 30.1841 15.7163 30.3957 15.7163 30.4092C15.7163 30.4227 15.6415 30.5972 15.5501 30.7969C15.4585 30.9967 15.3317 31.2767 15.2682 31.419C15.2045 31.5612 14.969 32.0873 14.7446 32.588C14.5201 33.0887 14.3366 33.522 14.3366 33.5509C14.3366 33.582 15.3927 33.6031 16.9092 33.6025L19.4819 33.6015L19.6219 33.272C19.6989 33.0907 19.8735 32.7007 20.0099 32.4053C20.1463 32.11 20.258 31.8587 20.258 31.847C20.258 31.8353 20.3744 31.5766 20.5167 31.2721C20.659 30.9677 20.7754 30.7098 20.7754 30.6992C20.7754 30.6887 20.8625 30.4905 20.9688 30.259C21.0752 30.0274 21.4149 29.2689 21.7238 28.5733C22.0327 27.8776 22.3618 27.1403 22.4552 26.9348C22.5486 26.7293 22.6597 26.4835 22.702 26.3887C22.7442 26.2938 22.8695 26.0157 22.9806 25.7707L23.1824 25.3251H24.221H25.2595V29.4643V33.6035H27.6166H29.9736V27.2529V20.9021L25.8775 20.886L21.7814 20.8697L21.3882 20.6744C19.5428 19.7576 19.6906 17.2699 21.6377 16.4728C21.8041 16.4046 22.5414 16.3869 25.9068 16.3705L29.9749 16.3505L29.9598 14.011L29.9449 11.6715L26.0356 11.6655C23.8855 11.662 21.9065 11.679 21.6377 11.703ZM35.693 11.7103C35.6768 11.7523 35.6705 12.8085 35.6787 14.0574L35.6938 16.3281L39.7467 16.357C43.0133 16.3801 43.8332 16.4011 43.9722 16.4646C44.067 16.508 44.2093 16.5723 44.2884 16.6075C45.8979 17.3222 46.0228 19.7164 44.4952 20.5702C43.937 20.8821 44.1452 20.8677 39.7755 20.8985L35.6938 20.9272L35.6791 27.266L35.6644 33.6048L38.0361 33.5897L40.4079 33.5748L40.4227 29.45L40.4373 25.3251H41.4747H42.5121L42.6003 25.5407C42.6488 25.6593 42.7898 25.9723 42.9135 26.2362C43.0373 26.5002 43.1386 26.7257 43.1386 26.7375C43.1386 26.7493 43.201 26.8956 43.2773 27.0624C43.3536 27.2294 43.5189 27.5988 43.6448 27.8834C43.7707 28.168 43.951 28.5689 44.0456 28.7745C44.1402 28.98 44.3783 29.5103 44.5748 29.953C44.7711 30.3957 45.007 30.9214 45.0988 31.1212C45.1905 31.3209 45.2657 31.4933 45.2657 31.504C45.2657 31.5148 45.3538 31.7136 45.4616 31.9456C45.6563 32.3654 45.8947 32.8931 46.1 33.3592L46.2076 33.6035H48.7836C50.2004 33.6035 51.3595 33.5938 51.3595 33.5818C51.3595 33.5518 51.2014 33.1725 51.0452 32.8274C50.9735 32.6693 50.8627 32.4236 50.7988 32.2813C50.4941 31.6022 50.4128 31.4221 50.2596 31.087C50.1689 30.8885 50.0947 30.7169 50.0947 30.7054C50.0947 30.694 49.9816 30.4424 49.8432 30.1463C49.705 29.8502 49.4555 29.2976 49.289 28.9182C49.1225 28.5388 48.9277 28.099 48.8564 27.9409C48.7851 27.7828 48.5663 27.2912 48.3699 26.8486C48.1738 26.4059 47.9125 25.8277 47.7893 25.5639C47.666 25.2998 47.5652 25.0742 47.5652 25.0623C47.5652 25.0503 47.4876 24.8711 47.3928 24.664C47.1746 24.1879 47.1671 24.2271 47.5221 23.9905C50.1669 22.2285 51.0871 18.3845 49.5789 15.3988C48.6236 13.5078 46.959 12.2819 44.662 11.7776C44.0946 11.653 35.739 11.5903 35.693 11.7103ZM21.6664 37.9064C19.1778 38.7287 18.8846 42.9761 21.2387 44.1023C21.717 44.3311 21.8156 44.354 22.3274 44.354C22.8652 44.354 23.2263 44.2823 23.8367 44.0542L23.9948 43.9951V43.2546C23.9948 42.8475 23.9735 42.5143 23.9475 42.5143C23.9215 42.5143 23.7563 42.5922 23.5803 42.6875C22.0899 43.4948 20.934 42.8193 20.9233 41.1346C20.9122 39.3945 21.9576 38.7313 23.4995 39.5C23.7171 39.6085 23.9176 39.6974 23.945 39.6974C23.9723 39.6974 23.9948 39.3642 23.9948 38.9571V38.2169L23.7217 38.1013C22.9867 37.7903 22.2342 37.7189 21.6664 37.9064ZM9.06156 37.9054C9.0045 37.9417 8.99229 38.621 9.00407 41.1096L9.01888 44.2677L9.58902 44.2843C10.3038 44.3051 10.2572 44.3951 10.2473 43.0156C10.2362 41.4891 10.1662 41.4856 11.0955 43.0605C11.8995 44.423 11.7532 44.2945 12.5017 44.2956C13.1735 44.2966 13.2058 44.2864 13.1084 44.1056C12.9993 43.9028 12.2153 42.5779 11.9431 42.1358C11.6391 41.6425 11.6394 41.6478 11.9077 41.4462C12.9872 40.6353 12.9455 38.7686 11.8332 38.1127C11.467 37.8968 9.3273 37.7367 9.06156 37.9054ZM15.2852 38.1795C15.0887 38.6239 15.1111 38.6598 15.587 38.6618C15.8424 38.6628 15.7967 38.8441 14.971 41.1058C14.9017 41.2956 14.8237 41.5155 14.7975 41.5945C14.7714 41.6735 14.5904 42.1909 14.3955 42.7443C14.2008 43.2976 14.0056 43.8521 13.9621 43.9764C13.8534 44.2866 13.8692 44.2965 14.4767 44.2965C15.1024 44.2965 15.0699 44.3218 15.2893 43.6641C15.5187 42.9771 15.4046 43.0317 16.6103 43.0317H17.6626L17.8419 43.506C17.9406 43.7669 18.049 44.0514 18.083 44.1384C18.1447 44.2959 18.1468 44.2965 18.7094 44.2965C19.4077 44.2965 19.3938 44.3134 19.1614 43.7503C19.1354 43.6871 19.0757 43.5189 19.029 43.3767C18.9823 43.2344 18.8499 42.8593 18.7347 42.5431C18.6195 42.2269 18.4474 41.7483 18.3524 41.4795C18.2572 41.2108 18.0628 40.6675 17.9202 40.2723C17.7776 39.877 17.5962 39.3726 17.5172 39.1512C17.4383 38.9299 17.3587 38.71 17.3404 38.6626C17.3222 38.6151 17.251 38.4211 17.1823 38.2314L17.0573 37.8865L16.2431 37.8705L15.4289 37.8546L15.2852 38.1795ZM29.782 37.8961C29.7609 37.9171 29.7436 39.3667 29.7436 41.1173V44.3004L30.3617 44.2841L30.9797 44.2677L30.9952 43.0461C31.0123 41.6983 31.042 41.6066 31.3134 42.0688C31.535 42.4465 32.6086 44.1438 32.6769 44.2246C32.7378 44.2968 34.1128 44.3349 34.1128 44.2644C34.1128 44.2048 33.8448 43.7544 33.2339 42.7873C32.4774 41.5892 32.4942 41.6401 32.789 41.445C33.9116 40.7021 33.862 38.7918 32.7023 38.1123C32.3488 37.905 29.9506 37.7275 29.782 37.8961ZM35.1741 37.9296C35.1588 37.9691 35.1532 39.4114 35.1614 41.1346L35.1764 44.2677H36.8435H38.5107L38.527 43.651L38.5433 43.0345L37.5209 43.0186L36.4986 43.003L36.4824 42.3562L36.4661 41.7095L37.4309 41.7086C38.6199 41.7075 38.5478 41.7513 38.5272 41.0436L38.5107 40.4735L37.5047 40.4447L36.4986 40.416V39.7836V39.1512L37.519 39.1356L38.5395 39.1199V38.5237C38.5395 38.0331 38.5234 37.9214 38.4485 37.8926C38.2575 37.8193 35.2029 37.8538 35.1741 37.9296ZM39.6608 37.9225C39.6443 37.9659 39.6374 39.4114 39.6455 41.1346L39.6605 44.2677H40.2641H40.8678L40.8833 43.055L40.8988 41.8423L41.4977 41.7855C42.2199 41.7171 42.7362 41.4975 43.0216 41.1372C43.8464 40.0956 43.5233 38.4408 42.4106 38.0081C42.0402 37.864 39.7109 37.7916 39.6608 37.9225ZM45.2145 38.102C44.9904 38.6252 45.007 38.6598 45.4813 38.6618C45.7187 38.6627 45.718 38.6903 45.4618 39.4233C45.3485 39.748 45.2342 40.0782 45.208 40.1573C45.1817 40.2363 45.0655 40.5597 44.9493 40.8759C44.8334 41.1921 44.6911 41.5931 44.6331 41.767C44.5754 41.9409 44.368 42.5359 44.1724 43.0892C43.7106 44.3958 43.6876 44.2646 44.3812 44.284L44.9627 44.3004L45.0239 44.1403C45.0577 44.0523 45.159 43.7733 45.2491 43.5204L45.4128 43.0605H46.4997H47.5864L47.6814 43.3192C47.7337 43.4615 47.7959 43.6296 47.8199 43.6928C47.8439 43.7561 47.8912 43.8854 47.9253 43.9803C48.0339 44.284 48.0615 44.2965 48.6262 44.2965C49.2229 44.2965 49.24 44.2896 49.1751 44.0766C49.1087 43.8593 48.7747 42.9109 48.7159 42.773C48.6634 42.6504 48.4911 42.175 48.1944 41.3358C48.0938 41.0512 47.8998 40.508 47.763 40.1285C47.6263 39.7491 47.3964 39.1059 47.2519 38.6994C47.1075 38.2928 46.9751 37.9371 46.9577 37.9089C46.9403 37.8807 46.5645 37.8577 46.1225 37.8577H45.3191L45.2145 38.102ZM50.2812 37.9054C50.2241 37.9417 50.2119 38.621 50.2237 41.1096L50.2385 44.2677H50.8708H51.5032L51.518 41.1096C51.5298 38.621 51.5176 37.9417 51.4605 37.9054C51.4209 37.8801 51.1554 37.8594 50.8708 37.8594C50.5863 37.8594 50.3208 37.8801 50.2812 37.9054ZM52.7532 37.9014C52.6961 37.9408 52.6839 38.6228 52.6957 41.1096L52.7105 44.2677H53.3429H53.9752L53.9908 43.0461C54.0024 42.124 54.0237 41.8252 54.077 41.8276C54.116 41.8293 54.4194 42.2729 54.7514 42.8133C55.0834 43.3537 55.4286 43.9084 55.5185 44.0461L55.6819 44.2965H56.3665C57.2222 44.2965 57.2297 44.4089 56.2748 42.9083C55.3981 41.5305 55.4473 41.6398 55.6568 41.5344C56.9602 40.8796 56.8314 38.5352 55.4632 38.0083C55.1546 37.8895 52.8993 37.8005 52.7532 37.9014ZM11.0044 39.1368C11.8015 39.5387 11.4751 40.6747 10.5626 40.6747H10.2549V39.8795C10.2549 39.442 10.2721 39.0669 10.2933 39.0459C10.3749 38.9642 10.7598 39.0134 11.0044 39.1368ZM31.8733 39.1419C32.6902 39.5325 32.2637 40.7178 31.3259 40.6629L31.0371 40.6459L31.0209 39.9016C31.0121 39.4923 31.0189 39.1205 31.0363 39.0753C31.078 38.9667 31.5924 39.0076 31.8733 39.1419ZM41.6512 39.0887C42.5233 39.454 42.1972 40.7133 41.2436 40.6627L40.9253 40.6459L40.909 39.9016C40.9002 39.4923 40.9058 39.1236 40.9217 39.0824C40.9603 38.9815 41.4044 38.9854 41.6512 39.0887ZM54.7716 39.1189C55.6335 39.4883 55.3005 40.6738 54.3346 40.6745L54.004 40.6747V39.8411V39.0075H54.2579C54.3976 39.0075 54.6288 39.0577 54.7716 39.1189ZM16.9774 41.0624C17.2986 41.9508 17.3279 41.889 16.593 41.8696C16.0847 41.8561 15.9765 41.838 15.9835 41.767C15.9942 41.6586 16.4472 40.347 16.5354 40.1691C16.611 40.0166 16.5669 39.9273 16.9774 41.0624ZM46.5582 40.2004C46.7148 40.5949 47.1053 41.7381 47.1053 41.8026C47.1053 41.865 46.9767 41.8819 46.5017 41.8819H45.898V41.7129C45.898 41.6199 45.9239 41.5278 45.9555 41.5083C45.9872 41.4887 46.013 41.4147 46.013 41.3438C46.013 41.273 46.0346 41.1905 46.0609 41.1605C46.0873 41.1304 46.1825 40.8795 46.2723 40.6028C46.4389 40.0902 46.4873 40.022 46.5582 40.2004Z" fill="white"/>
</svg>
